M48
;GenerationSoftware,Autodesk,EAGLE,9.2.2*%
;CreationDate,2019-04-13T20:15:01Z*%
FMAT,2
ICI,OFF
INCH,TZ,000.0000
T6C0.0197
T5C0.0315
T4C0.0350
T3C0.0354
T2C0.0472
T1C0.1400
%
G90
M72
T1
X2000Y32744
X2000Y2000
X29988Y2000
X29988Y32744
T2
X27626Y23374
T3
X23571Y32513
X21831Y32513
T4
X21559Y8862
X22266Y9569
X22973Y10276
X23680Y10983
X24387Y11691
X25095Y12398
T5
X28217Y26287
X30185Y25500
X30185Y26287
X30185Y24713
X30185Y23925
X28217Y23925
X28217Y24713
X28217Y25500
T6
X6439Y15059
X6734Y25984
X14173Y17667
X5458Y31693
X10278Y25295
X10179Y23327
X16240Y19291
X18209Y33071
X17815Y33465
X16240Y18701
X17224Y33465
X16240Y18110
X16634Y33465
X16240Y17520
X16240Y32382
X17274Y28469
X14542Y30684
X12697Y30315
X13115Y25492
X11024Y22933
X9941Y28248
X11516Y19587
X15059Y8883
X11885Y4626
X4503Y16216
X11516Y22638
X9547Y27854
X11516Y23893
X12279Y24754
X12894Y21949
X9154Y27461
X10778Y25295
X10236Y26403
X13681Y21063
X8760Y26999
X6699Y18110
X6398Y26575
X7874Y25000
X9908Y24856
X10236Y24356
X6398Y15748
X9941Y23856
X14868Y7480
X14961Y25591
X15945Y28248
X19187Y11153
X7603Y28986
X4503Y15428
X12328Y4183
X17200Y4774
X2386Y19207
X4279Y6781
X12697Y22717
X15453Y31496
X18762Y7480
X19094Y25591
X11319Y17323
X18209Y7480
X18504Y25591
X11319Y16732
X17655Y7480
X17913Y25591
X11319Y16142
X17101Y7480
X17323Y25591
X11713Y15453
X16548Y7480
X16732Y25591
X12303Y15354
X15994Y7480
X16142Y25591
X13091Y14764
X15422Y7480
X15551Y25591
X13484Y13780
X2386Y18653
X4279Y6227
X28543Y16831
X11122Y30315
X16240Y32972
X10679Y21604
X14321Y19094
X10335Y6299
X6791Y18898
X13896Y21879
X10335Y11283
X6791Y23881
X21850Y22047
X10335Y10729
X6791Y23327
X21850Y21457
X10335Y10175
X6791Y22774
X11288Y20472
X14787Y18504
X10335Y9621
X6791Y22220
X15059Y17717
X10704Y11713
X10335Y9068
X6791Y21666
X15082Y16404
X10335Y8514
X6791Y21112
X21854Y7378
X12771Y3814
X10335Y7960
X6791Y20559
X23720Y17323
X10335Y7407
X6791Y20005
X24114Y16929
X2386Y20334
X4279Y7888
X21752Y24803
X2386Y20888
X4279Y8442
X21759Y24206
X21569Y11600
X4279Y10106
X22047Y20866
X2386Y21442
X4279Y8996
X22047Y20276
X25792Y18115
X25689Y16043
X10335Y6853
X6791Y19451
X21260Y18307
X18996Y3543
X18209Y4724
X2386Y19781
X4279Y7334
X21161Y17520
X2386Y23214
X4279Y10660
X21850Y6791
X2386Y22106
X4279Y9549
X12106Y22736
X15059Y31102
X2386Y22660
X19741Y11155
X19316Y26181
X23128Y13158
X22734Y18572
X15989Y12500
X16088Y10433
X20077Y21032
X7426Y30118
X21159Y16111
X26575Y20472
X13329Y22441
X9097Y29134
X8900Y26181
X21274Y9927
X16777Y23031
X14808Y22539
X14021Y23327
X10671Y20276
X6439Y11909
X7620Y4429
X9852Y22539
X23128Y15324
X17224Y27854
M30