M48
;GenerationSoftware,Autodesk,EAGLE,9.2.2*%
;CreationDate,2019-04-13T20:01:11Z*%
FMAT,2
ICI,OFF
INCH,TZ,000.000
T6C0.020
T5C0.031
T4C0.035
T3C0.035
T2C0.047
T1C0.140
%
G90
M72
T1
X3274Y2999
X200Y2999
X200Y200
X3274Y200
T2
X2337Y436
T3
X3251Y842
X3251Y1016
T4
X886Y1043
X957Y972
X1028Y901
X1098Y831
X1169Y760
X1240Y689
T5
X2629Y377
X2550Y180
X2629Y180
X2471Y180
X2393Y180
X2393Y377
X2471Y377
X2550Y377
T6
X1506Y2555
X2598Y2525
X1767Y1781
X3169Y2653
X2530Y2171
X2333Y2181
X1929Y1575
X3307Y1378
X3346Y1417
X1870Y1575
X3346Y1476
X1811Y1575
X3346Y1535
X1752Y1575
X3238Y1575
X2847Y1471
X3068Y1745
X3031Y1929
X2549Y1887
X2293Y2096
X2825Y2205
X1959Y2047
X888Y1693
X463Y2010
X1622Y2749
X2264Y2047
X2785Y2244
X2389Y2047
X2475Y1971
X2195Y1909
X2746Y2283
X2530Y2121
X2640Y2175
X2106Y1831
X2700Y2323
X1811Y2529
X2657Y2559
X2500Y2411
X2486Y2208
X2436Y2175
X1575Y2559
X2386Y2205
X748Y1712
X2559Y1703
X2825Y1604
X1115Y1280
X2899Y2438
X1543Y2749
X418Y1966
X477Y1479
X1921Y2960
X678Y2771
X2272Y1929
X3150Y1654
X748Y1323
X2559Y1289
X1732Y2067
X748Y1378
X2559Y1348
X1673Y2067
X748Y1433
X2559Y1407
X1614Y2067
X748Y1489
X2559Y1467
X1545Y2028
X748Y1544
X2559Y1526
X1535Y1969
X748Y1599
X2559Y1585
X1476Y1890
X748Y1657
X2559Y1644
X1378Y1850
X1865Y2960
X623Y2771
X1683Y344
X3031Y2087
X3297Y1575
X2160Y2131
X1909Y1767
X630Y2165
X1890Y2520
X2188Y1809
X1128Y2165
X2388Y2520
X2205Y1014
X1073Y2165
X2333Y2520
X2146Y1014
X1018Y2165
X2277Y2520
X2047Y2070
X1850Y1720
X962Y2165
X2222Y2520
X1772Y1693
X1171Y2128
X907Y2165
X2167Y2520
X1640Y1691
X851Y2165
X2111Y2520
X738Y1013
X381Y1922
X796Y2165
X2056Y2520
X1732Y827
X741Y2165
X2001Y2520
X1693Y787
X2033Y2960
X789Y2771
X2480Y1024
X2089Y2960
X844Y2771
X2421Y1023
X1160Y1042
X1011Y2771
X2087Y994
X2144Y2960
X900Y2771
X2028Y994
X1812Y620
X1604Y630
X685Y2165
X1945Y2520
X1831Y1073
X354Y1299
X472Y1378
X1978Y2960
X733Y2771
X1752Y1083
X2321Y2960
X1066Y2771
X679Y1014
X2211Y2960
X955Y2771
X2274Y1988
X3110Y1693
X2266Y2960
X1116Y1225
X2618Y1267
X1316Y886
X1857Y925
X1250Y1600
X1043Y1590
X2103Y1191
X3012Y2456
X1611Y1083
X2047Y541
X2244Y1866
X2913Y2289
X2618Y2309
X993Y1071
X2303Y1521
X2254Y1718
X2333Y1797
X2028Y2132
X1191Y2555
X443Y2437
X2254Y2214
X1532Y886
X2785Y1476
M30