M48
;GenerationSoftware,Autodesk,EAGLE,9.2.2*%
;CreationDate,2019-03-23T19:51:20Z*%
FMAT,2
ICI,OFF
METRIC,TZ,000.000
T6C0.500
T5C0.800
T4C0.889
T3C0.900
T2C1.200
T1C3.556
%
G90
M71
T1
X83170Y76170
X5080Y76170
X5080Y5080
X83170Y5080
T2
X59370Y11080
T3
X77334Y21380
X77334Y25800
T4
X22510Y26490
X24306Y24694
X26102Y22898
X27898Y21102
X29694Y19306
X31490Y17510
T5
X66770Y9580
X64770Y4580
X66770Y4580
X62770Y4580
X60770Y4580
X60770Y9580
X62770Y9580
X64770Y9580
T6
X38250Y64895
X66000Y64145
X44875Y45250
X80500Y67387
X64250Y55145
X59250Y55395
X49000Y40000
X84000Y35000
X85000Y36000
X47500Y40000
X85000Y37500
X46000Y40000
X85000Y39000
X44500Y40000
X82250Y40000
X72313Y37375
X77938Y44312
X77000Y49000
X64750Y47937
X58250Y53250
X71750Y56000
X49750Y52000
X22562Y43000
X11750Y51062
X41188Y69813
X57500Y52000
X70750Y57000
X60687Y52000
X62875Y50062
X55750Y48500
X69750Y58000
X64250Y53875
X67063Y55250
X53500Y46500
X68578Y59000
X46000Y64236
X67500Y65000
X63500Y61250
X63135Y56083
X61865Y55250
X40000Y65000
X60595Y56000
X19000Y43485
X65000Y43250
X71750Y40750
X28328Y32515
X73625Y61937
X39188Y69813
X10625Y49937
X12125Y37563
X48785Y75191
X17223Y70381
X57700Y49000
X80000Y42000
X19000Y33594
X65000Y32750
X44000Y52500
X19000Y35000
X65000Y34250
X42500Y52500
X19000Y36406
X65000Y35750
X41000Y52500
X19000Y37813
X65000Y37250
X39250Y51500
X19000Y39219
X65000Y38750
X39000Y50000
X19000Y40626
X65000Y40250
X37500Y48000
X19000Y42078
X65000Y41750
X35000Y47000
X47378Y75191
X15817Y70381
X42750Y8750
X77000Y53000
X83750Y40000
X54875Y54125
X48500Y44875
X16000Y55000
X48000Y64000
X55572Y45953
X28658Y55000
X60658Y64000
X56000Y25750
X27251Y55000
X59251Y64000
X54500Y25750
X25845Y55000
X57845Y64000
X52000Y52578
X47000Y43692
X24438Y55000
X56438Y64000
X45000Y43000
X29750Y54062
X23032Y55000
X55032Y64000
X41667Y42942
X21626Y55000
X53626Y64000
X18740Y25740
X9688Y48812
X20219Y55000
X52219Y64000
X44000Y21000
X18813Y55000
X50813Y64000
X43000Y20000
X51650Y75191
X20036Y70381
X63000Y26000
X53056Y75191
X21442Y70381
X61482Y25982
X29464Y26464
X25670Y70381
X53000Y25250
X54462Y75191
X22849Y70381
X51500Y25250
X46012Y15738
X40750Y16000
X17406Y55000
X49406Y64000
X46500Y27250
X9000Y33000
X12000Y35000
X50243Y75191
X18630Y70381
X44500Y27500
X58963Y75191
X27076Y70381
X17250Y25750
X56150Y75191
X24255Y70381
X57750Y50500
X79000Y43000
X57556Y75191
X28334Y31109
X66500Y32187
X33422Y22505
X47172Y23505
X31750Y40637
X26500Y40387
X53422Y30255
X76500Y62387
X40922Y27505
X52000Y13750
X57000Y47395
X74000Y58145
X66500Y58645
X25214Y27214
X58500Y38637
X57250Y43637
X59250Y45637
X51500Y54145
X30250Y64895
X11250Y61895
X57250Y56225
X38922Y22505
X70750Y37500
M30