G04 EAGLE Gerber RS-274X export*
G75*
%MOMM*%
%FSLAX34Y34*%
%LPD*%
%INBottom Copper*%
%IPPOS*%
%AMOC8*
5,1,8,0,0,1.08239X$1,22.5*%
G01*
%ADD10C,1.422400*%
%ADD11C,1.714500*%
%ADD12P,1.855758X8X22.500000*%
%ADD13C,0.906400*%
%ADD14C,0.250000*%

G36*
X599441Y37350D02*
X599441Y37350D01*
X599513Y37352D01*
X599562Y37370D01*
X599613Y37379D01*
X599677Y37412D01*
X599744Y37437D01*
X599785Y37469D01*
X599831Y37494D01*
X599880Y37546D01*
X599936Y37590D01*
X599964Y37634D01*
X600000Y37672D01*
X600030Y37737D01*
X600069Y37797D01*
X600082Y37848D01*
X600104Y37895D01*
X600112Y37966D01*
X600129Y38036D01*
X600125Y38088D01*
X600131Y38139D01*
X600116Y38210D01*
X600110Y38281D01*
X600090Y38329D01*
X600079Y38380D01*
X600042Y38441D01*
X600014Y38507D01*
X599969Y38563D01*
X599952Y38591D01*
X599935Y38606D01*
X599909Y38638D01*
X598736Y39811D01*
X597127Y43697D01*
X597127Y47903D01*
X598736Y51789D01*
X601711Y54764D01*
X605597Y56373D01*
X609803Y56373D01*
X613689Y54764D01*
X616664Y51789D01*
X616756Y51566D01*
X616778Y51530D01*
X616792Y51491D01*
X616843Y51426D01*
X616886Y51357D01*
X616918Y51330D01*
X616944Y51297D01*
X617012Y51252D01*
X617075Y51200D01*
X617114Y51185D01*
X617149Y51162D01*
X617229Y51141D01*
X617305Y51112D01*
X617347Y51110D01*
X617387Y51099D01*
X617469Y51105D01*
X617550Y51102D01*
X617591Y51113D01*
X617633Y51116D01*
X617708Y51147D01*
X617787Y51170D01*
X617821Y51194D01*
X617860Y51210D01*
X617922Y51264D01*
X617989Y51310D01*
X618014Y51344D01*
X618045Y51372D01*
X618130Y51501D01*
X618136Y51508D01*
X618136Y51509D01*
X618138Y51512D01*
X618195Y51625D01*
X619223Y53040D01*
X620460Y54277D01*
X621875Y55305D01*
X623434Y56099D01*
X625098Y56640D01*
X626177Y56811D01*
X626177Y46562D01*
X626180Y46542D01*
X626178Y46523D01*
X626200Y46421D01*
X626217Y46319D01*
X626226Y46302D01*
X626230Y46282D01*
X626283Y46193D01*
X626332Y46102D01*
X626346Y46088D01*
X626356Y46071D01*
X626435Y46004D01*
X626510Y45933D01*
X626528Y45924D01*
X626543Y45911D01*
X626639Y45873D01*
X626733Y45829D01*
X626753Y45827D01*
X626771Y45819D01*
X626938Y45801D01*
X628462Y45801D01*
X628482Y45804D01*
X628501Y45802D01*
X628603Y45824D01*
X628705Y45841D01*
X628722Y45850D01*
X628742Y45854D01*
X628831Y45907D01*
X628922Y45956D01*
X628936Y45970D01*
X628953Y45980D01*
X629020Y46059D01*
X629091Y46134D01*
X629100Y46152D01*
X629113Y46167D01*
X629152Y46263D01*
X629195Y46357D01*
X629197Y46377D01*
X629205Y46395D01*
X629223Y46562D01*
X629223Y56811D01*
X630302Y56640D01*
X631966Y56099D01*
X633525Y55305D01*
X634940Y54277D01*
X636177Y53040D01*
X637205Y51625D01*
X637262Y51512D01*
X637287Y51478D01*
X637304Y51440D01*
X637360Y51379D01*
X637408Y51314D01*
X637442Y51289D01*
X637471Y51258D01*
X637542Y51219D01*
X637609Y51172D01*
X637649Y51160D01*
X637686Y51140D01*
X637767Y51125D01*
X637845Y51102D01*
X637887Y51104D01*
X637928Y51096D01*
X638009Y51108D01*
X638091Y51111D01*
X638130Y51126D01*
X638172Y51132D01*
X638244Y51169D01*
X638321Y51198D01*
X638353Y51224D01*
X638391Y51243D01*
X638448Y51302D01*
X638511Y51354D01*
X638534Y51389D01*
X638563Y51419D01*
X638638Y51554D01*
X638642Y51562D01*
X638643Y51564D01*
X638644Y51566D01*
X638736Y51789D01*
X641711Y54764D01*
X645597Y56373D01*
X649803Y56373D01*
X653689Y54764D01*
X656664Y51789D01*
X656835Y51376D01*
X656859Y51337D01*
X656875Y51294D01*
X656923Y51233D01*
X656964Y51167D01*
X657000Y51138D01*
X657028Y51102D01*
X657094Y51060D01*
X657154Y51010D01*
X657197Y50994D01*
X657235Y50969D01*
X657311Y50950D01*
X657383Y50922D01*
X657429Y50920D01*
X657474Y50909D01*
X657551Y50915D01*
X657629Y50912D01*
X657673Y50924D01*
X657719Y50928D01*
X657791Y50958D01*
X657865Y50980D01*
X657903Y51006D01*
X657945Y51024D01*
X658052Y51110D01*
X658067Y51120D01*
X658070Y51124D01*
X658076Y51129D01*
X663320Y56373D01*
X672080Y56373D01*
X678273Y50180D01*
X678273Y41420D01*
X675491Y38638D01*
X675449Y38580D01*
X675400Y38528D01*
X675378Y38481D01*
X675348Y38439D01*
X675326Y38370D01*
X675296Y38305D01*
X675291Y38253D01*
X675275Y38203D01*
X675277Y38132D01*
X675269Y38061D01*
X675280Y38010D01*
X675282Y37958D01*
X675306Y37890D01*
X675321Y37820D01*
X675348Y37776D01*
X675366Y37727D01*
X675411Y37671D01*
X675448Y37609D01*
X675487Y37575D01*
X675520Y37535D01*
X675580Y37496D01*
X675634Y37449D01*
X675683Y37430D01*
X675727Y37402D01*
X675796Y37384D01*
X675863Y37357D01*
X675934Y37349D01*
X675965Y37341D01*
X675988Y37343D01*
X676029Y37339D01*
X800035Y37339D01*
X800057Y37342D01*
X800079Y37340D01*
X800178Y37362D01*
X800278Y37379D01*
X800298Y37389D01*
X800319Y37394D01*
X800406Y37446D01*
X800495Y37494D01*
X800511Y37510D01*
X800530Y37521D01*
X800595Y37599D01*
X800665Y37672D01*
X800674Y37692D01*
X800688Y37709D01*
X800726Y37803D01*
X800768Y37895D01*
X800771Y37917D01*
X800779Y37938D01*
X800784Y38039D01*
X800795Y38139D01*
X800791Y38161D01*
X800792Y38184D01*
X800755Y38347D01*
X798388Y45241D01*
X798388Y56359D01*
X801998Y66874D01*
X808827Y75647D01*
X818134Y81728D01*
X828911Y84457D01*
X839991Y83539D01*
X847094Y80423D01*
X847146Y80410D01*
X847195Y80387D01*
X847265Y80379D01*
X847332Y80362D01*
X847386Y80366D01*
X847439Y80360D01*
X847508Y80375D01*
X847578Y80380D01*
X847627Y80401D01*
X847680Y80412D01*
X847740Y80448D01*
X847805Y80475D01*
X847845Y80511D01*
X847891Y80538D01*
X847936Y80591D01*
X847989Y80638D01*
X848016Y80684D01*
X848051Y80725D01*
X848077Y80790D01*
X848112Y80851D01*
X848123Y80903D01*
X848143Y80953D01*
X848155Y81063D01*
X848161Y81092D01*
X848159Y81103D01*
X848161Y81120D01*
X848161Y353182D01*
X848142Y353297D01*
X848125Y353413D01*
X848123Y353419D01*
X848122Y353425D01*
X848067Y353527D01*
X848014Y353632D01*
X848009Y353637D01*
X848006Y353642D01*
X847922Y353722D01*
X847838Y353804D01*
X847832Y353808D01*
X847828Y353812D01*
X847811Y353819D01*
X847691Y353885D01*
X846698Y354297D01*
X846628Y354313D01*
X846561Y354339D01*
X846509Y354341D01*
X846458Y354353D01*
X846387Y354346D01*
X846315Y354349D01*
X846265Y354335D01*
X846213Y354330D01*
X846148Y354301D01*
X846079Y354281D01*
X846036Y354251D01*
X845989Y354230D01*
X845936Y354181D01*
X845877Y354141D01*
X845846Y354099D01*
X845808Y354064D01*
X845773Y354001D01*
X845730Y353943D01*
X845714Y353894D01*
X845689Y353848D01*
X845676Y353777D01*
X845654Y353709D01*
X845655Y353657D01*
X845645Y353606D01*
X845656Y353535D01*
X845656Y353463D01*
X845676Y353394D01*
X845681Y353363D01*
X845692Y353342D01*
X845703Y353302D01*
X846533Y351299D01*
X846533Y348701D01*
X845538Y346299D01*
X843701Y344462D01*
X841299Y343467D01*
X838701Y343467D01*
X836299Y344462D01*
X834451Y346310D01*
X834409Y346378D01*
X834349Y346479D01*
X834344Y346483D01*
X834341Y346488D01*
X834251Y346562D01*
X834162Y346639D01*
X834156Y346641D01*
X834151Y346645D01*
X834043Y346687D01*
X833934Y346731D01*
X833926Y346732D01*
X833922Y346733D01*
X833904Y346734D01*
X833767Y346749D01*
X688653Y346749D01*
X676749Y358653D01*
X676749Y418586D01*
X676735Y418676D01*
X676727Y418767D01*
X676715Y418797D01*
X676710Y418829D01*
X676667Y418910D01*
X676631Y418994D01*
X676605Y419026D01*
X676594Y419046D01*
X676571Y419069D01*
X676526Y419125D01*
X653343Y442308D01*
X653269Y442361D01*
X653199Y442421D01*
X653169Y442433D01*
X653143Y442452D01*
X653056Y442479D01*
X652971Y442513D01*
X652930Y442517D01*
X652908Y442524D01*
X652876Y442523D01*
X652804Y442531D01*
X645624Y442531D01*
X645534Y442517D01*
X645443Y442509D01*
X645413Y442497D01*
X645381Y442492D01*
X645301Y442449D01*
X645217Y442413D01*
X645185Y442387D01*
X645164Y442376D01*
X645142Y442353D01*
X645086Y442308D01*
X599527Y396749D01*
X496233Y396749D01*
X496119Y396731D01*
X496002Y396713D01*
X495996Y396711D01*
X495990Y396710D01*
X495888Y396655D01*
X495783Y396602D01*
X495778Y396597D01*
X495773Y396594D01*
X495693Y396510D01*
X495611Y396426D01*
X495607Y396420D01*
X495604Y396416D01*
X495596Y396399D01*
X495544Y396306D01*
X493701Y394462D01*
X491299Y393467D01*
X488701Y393467D01*
X486299Y394462D01*
X484462Y396299D01*
X483467Y398701D01*
X483467Y401299D01*
X483820Y402152D01*
X483843Y402247D01*
X483871Y402340D01*
X483871Y402366D01*
X483877Y402391D01*
X483867Y402488D01*
X483865Y402586D01*
X483856Y402610D01*
X483853Y402636D01*
X483814Y402725D01*
X483780Y402817D01*
X483764Y402837D01*
X483753Y402861D01*
X483688Y402933D01*
X483627Y403009D01*
X483605Y403023D01*
X483587Y403042D01*
X483502Y403089D01*
X483420Y403142D01*
X483395Y403148D01*
X483372Y403161D01*
X483276Y403178D01*
X483181Y403202D01*
X483155Y403200D01*
X483130Y403204D01*
X483033Y403190D01*
X482936Y403183D01*
X482912Y403173D01*
X482886Y403169D01*
X482799Y403124D01*
X482710Y403086D01*
X482684Y403066D01*
X482667Y403057D01*
X482644Y403034D01*
X482579Y402982D01*
X481706Y402109D01*
X481638Y402015D01*
X481568Y401920D01*
X481566Y401914D01*
X481563Y401909D01*
X481528Y401798D01*
X481492Y401686D01*
X481492Y401680D01*
X481490Y401674D01*
X481493Y401557D01*
X481494Y401440D01*
X481496Y401433D01*
X481497Y401428D01*
X481503Y401411D01*
X481533Y401308D01*
X481533Y398701D01*
X480538Y396299D01*
X478701Y394462D01*
X476299Y393467D01*
X473701Y393467D01*
X471299Y394462D01*
X469462Y396299D01*
X468467Y398701D01*
X468467Y401299D01*
X468820Y402152D01*
X468843Y402247D01*
X468871Y402340D01*
X468871Y402366D01*
X468877Y402391D01*
X468867Y402488D01*
X468865Y402586D01*
X468856Y402610D01*
X468853Y402636D01*
X468814Y402725D01*
X468780Y402817D01*
X468764Y402837D01*
X468753Y402861D01*
X468688Y402933D01*
X468627Y403009D01*
X468605Y403023D01*
X468587Y403042D01*
X468502Y403089D01*
X468420Y403142D01*
X468395Y403148D01*
X468372Y403161D01*
X468276Y403178D01*
X468181Y403202D01*
X468155Y403200D01*
X468130Y403204D01*
X468033Y403190D01*
X467936Y403183D01*
X467912Y403173D01*
X467886Y403169D01*
X467799Y403124D01*
X467710Y403086D01*
X467684Y403066D01*
X467667Y403057D01*
X467644Y403034D01*
X467579Y402982D01*
X466706Y402109D01*
X466638Y402015D01*
X466568Y401920D01*
X466566Y401914D01*
X466563Y401909D01*
X466528Y401798D01*
X466492Y401686D01*
X466492Y401680D01*
X466490Y401674D01*
X466493Y401557D01*
X466494Y401440D01*
X466496Y401433D01*
X466497Y401428D01*
X466503Y401411D01*
X466533Y401308D01*
X466533Y398701D01*
X465538Y396299D01*
X463701Y394462D01*
X461299Y393467D01*
X458701Y393467D01*
X456299Y394462D01*
X454462Y396299D01*
X453467Y398701D01*
X453467Y401299D01*
X453820Y402152D01*
X453843Y402247D01*
X453871Y402340D01*
X453871Y402366D01*
X453877Y402391D01*
X453867Y402488D01*
X453865Y402586D01*
X453856Y402610D01*
X453853Y402636D01*
X453814Y402725D01*
X453780Y402817D01*
X453764Y402837D01*
X453754Y402861D01*
X453688Y402933D01*
X453627Y403009D01*
X453605Y403023D01*
X453587Y403042D01*
X453502Y403089D01*
X453420Y403142D01*
X453394Y403148D01*
X453372Y403161D01*
X453276Y403178D01*
X453181Y403202D01*
X453155Y403200D01*
X453130Y403204D01*
X453033Y403190D01*
X452936Y403183D01*
X452912Y403172D01*
X452886Y403169D01*
X452800Y403125D01*
X452710Y403086D01*
X452684Y403066D01*
X452667Y403057D01*
X452644Y403034D01*
X452579Y402982D01*
X451706Y402109D01*
X451638Y402014D01*
X451568Y401920D01*
X451566Y401914D01*
X451563Y401909D01*
X451528Y401797D01*
X451492Y401686D01*
X451492Y401680D01*
X451490Y401674D01*
X451493Y401557D01*
X451494Y401440D01*
X451496Y401433D01*
X451497Y401428D01*
X451503Y401411D01*
X451533Y401308D01*
X451533Y398701D01*
X450538Y396299D01*
X448701Y394462D01*
X446299Y393467D01*
X443701Y393467D01*
X441299Y394462D01*
X439462Y396299D01*
X438467Y398701D01*
X438467Y401299D01*
X439462Y403701D01*
X441299Y405538D01*
X443701Y406533D01*
X446372Y406533D01*
X446462Y406547D01*
X446553Y406555D01*
X446583Y406567D01*
X446615Y406572D01*
X446696Y406615D01*
X446779Y406651D01*
X446812Y406677D01*
X446832Y406688D01*
X446843Y406699D01*
X446845Y406700D01*
X446857Y406713D01*
X446910Y406756D01*
X454187Y414033D01*
X458265Y414033D01*
X458356Y414047D01*
X458446Y414055D01*
X458476Y414067D01*
X458508Y414072D01*
X458589Y414115D01*
X458673Y414151D01*
X458705Y414177D01*
X458726Y414188D01*
X458748Y414211D01*
X458804Y414256D01*
X473581Y429033D01*
X502026Y429033D01*
X502585Y428474D01*
X502659Y428421D01*
X502728Y428361D01*
X502758Y428349D01*
X502785Y428330D01*
X502872Y428303D01*
X502956Y428269D01*
X502997Y428265D01*
X503020Y428258D01*
X503052Y428259D01*
X503123Y428251D01*
X589698Y428251D01*
X589789Y428265D01*
X589879Y428273D01*
X589909Y428285D01*
X589941Y428290D01*
X590022Y428333D01*
X590106Y428369D01*
X590138Y428395D01*
X590159Y428406D01*
X590181Y428429D01*
X590237Y428474D01*
X633296Y471533D01*
X645535Y471533D01*
X645631Y471548D01*
X645728Y471558D01*
X645752Y471568D01*
X645778Y471572D01*
X645864Y471618D01*
X645953Y471658D01*
X645972Y471675D01*
X645995Y471688D01*
X646062Y471758D01*
X646134Y471824D01*
X646146Y471847D01*
X646165Y471866D01*
X646206Y471954D01*
X646252Y472040D01*
X646257Y472065D01*
X646268Y472089D01*
X646279Y472186D01*
X646296Y472282D01*
X646292Y472308D01*
X646295Y472333D01*
X646275Y472429D01*
X646260Y472525D01*
X646249Y472548D01*
X646243Y472574D01*
X646193Y472657D01*
X646149Y472744D01*
X646130Y472763D01*
X646117Y472785D01*
X646043Y472848D01*
X645973Y472916D01*
X645945Y472932D01*
X645930Y472945D01*
X645899Y472957D01*
X645826Y472997D01*
X643799Y473837D01*
X641962Y475674D01*
X640967Y478076D01*
X640967Y480674D01*
X641962Y483076D01*
X643799Y484913D01*
X644317Y485128D01*
X644400Y485179D01*
X644486Y485225D01*
X644504Y485244D01*
X644526Y485257D01*
X644589Y485332D01*
X644656Y485403D01*
X644667Y485427D01*
X644683Y485447D01*
X644718Y485538D01*
X644722Y485547D01*
X644723Y485546D01*
X644817Y485523D01*
X644910Y485492D01*
X644936Y485493D01*
X644961Y485486D01*
X645058Y485494D01*
X645156Y485495D01*
X645187Y485504D01*
X645206Y485505D01*
X645237Y485518D01*
X645317Y485542D01*
X646201Y485908D01*
X648799Y485908D01*
X651201Y484913D01*
X653049Y483065D01*
X653091Y482997D01*
X653151Y482896D01*
X653156Y482892D01*
X653159Y482887D01*
X653249Y482812D01*
X653338Y482736D01*
X653344Y482734D01*
X653349Y482730D01*
X653457Y482688D01*
X653566Y482644D01*
X653574Y482643D01*
X653579Y482642D01*
X653597Y482641D01*
X653733Y482626D01*
X757713Y482626D01*
X757803Y482640D01*
X757894Y482648D01*
X757924Y482660D01*
X757956Y482665D01*
X758037Y482708D01*
X758120Y482744D01*
X758153Y482770D01*
X758173Y482781D01*
X758195Y482804D01*
X758251Y482849D01*
X763294Y487891D01*
X763362Y487986D01*
X763432Y488080D01*
X763434Y488086D01*
X763437Y488091D01*
X763472Y488203D01*
X763508Y488314D01*
X763508Y488320D01*
X763510Y488326D01*
X763507Y488443D01*
X763506Y488560D01*
X763504Y488567D01*
X763503Y488572D01*
X763497Y488589D01*
X763467Y488692D01*
X763467Y491299D01*
X764462Y493701D01*
X766299Y495538D01*
X768701Y496533D01*
X771299Y496533D01*
X773701Y495538D01*
X775538Y493701D01*
X776535Y491295D01*
X776586Y491212D01*
X776632Y491126D01*
X776651Y491108D01*
X776664Y491086D01*
X776739Y491023D01*
X776810Y490956D01*
X776834Y490945D01*
X776854Y490929D01*
X776945Y490894D01*
X777033Y490853D01*
X777059Y490850D01*
X777083Y490841D01*
X777181Y490836D01*
X777277Y490826D01*
X777303Y490831D01*
X777329Y490830D01*
X777423Y490857D01*
X777518Y490878D01*
X777540Y490891D01*
X777565Y490899D01*
X777645Y490954D01*
X777729Y491004D01*
X777746Y491024D01*
X777767Y491039D01*
X777826Y491117D01*
X777889Y491191D01*
X777899Y491215D01*
X777914Y491236D01*
X777944Y491329D01*
X777981Y491419D01*
X777984Y491452D01*
X777990Y491470D01*
X777990Y491503D01*
X777999Y491586D01*
X777999Y493963D01*
X777985Y494053D01*
X777977Y494144D01*
X777965Y494174D01*
X777960Y494206D01*
X777917Y494287D01*
X777881Y494371D01*
X777855Y494403D01*
X777844Y494423D01*
X777821Y494446D01*
X777776Y494501D01*
X753876Y518401D01*
X751749Y520528D01*
X751749Y593338D01*
X751735Y593428D01*
X751727Y593519D01*
X751715Y593549D01*
X751710Y593581D01*
X751667Y593662D01*
X751631Y593745D01*
X751605Y593778D01*
X751594Y593798D01*
X751571Y593820D01*
X751526Y593876D01*
X732999Y612403D01*
X732999Y613142D01*
X732980Y613257D01*
X732963Y613373D01*
X732961Y613378D01*
X732960Y613385D01*
X732905Y613488D01*
X732852Y613592D01*
X732847Y613596D01*
X732844Y613602D01*
X732760Y613682D01*
X732676Y613764D01*
X732670Y613768D01*
X732666Y613771D01*
X732649Y613779D01*
X732556Y613831D01*
X730712Y615674D01*
X729717Y618076D01*
X729717Y620674D01*
X730712Y623076D01*
X732549Y624913D01*
X734951Y625908D01*
X737549Y625908D01*
X739951Y624913D01*
X741788Y623076D01*
X742783Y620674D01*
X742783Y618076D01*
X741788Y615674D01*
X740894Y614780D01*
X740882Y614764D01*
X740867Y614751D01*
X740810Y614664D01*
X740750Y614580D01*
X740744Y614561D01*
X740734Y614545D01*
X740708Y614444D01*
X740678Y614345D01*
X740678Y614325D01*
X740673Y614306D01*
X740682Y614203D01*
X740684Y614099D01*
X740691Y614081D01*
X740693Y614061D01*
X740733Y613966D01*
X740769Y613868D01*
X740781Y613853D01*
X740789Y613834D01*
X740894Y613704D01*
X758251Y596347D01*
X758251Y523537D01*
X758265Y523447D01*
X758273Y523356D01*
X758285Y523326D01*
X758290Y523294D01*
X758333Y523213D01*
X758369Y523129D01*
X758395Y523097D01*
X758406Y523077D01*
X758429Y523054D01*
X758474Y522999D01*
X765450Y516022D01*
X765508Y515981D01*
X765560Y515931D01*
X765607Y515909D01*
X765649Y515879D01*
X765718Y515858D01*
X765783Y515828D01*
X765835Y515822D01*
X765885Y515807D01*
X765956Y515808D01*
X766027Y515801D01*
X766078Y515812D01*
X766130Y515813D01*
X766198Y515838D01*
X766268Y515853D01*
X766312Y515879D01*
X766361Y515897D01*
X766417Y515942D01*
X766479Y515979D01*
X766513Y516019D01*
X766553Y516051D01*
X766592Y516111D01*
X766639Y516166D01*
X766658Y516214D01*
X766686Y516258D01*
X766704Y516327D01*
X766731Y516394D01*
X766739Y516465D01*
X766747Y516497D01*
X766745Y516520D01*
X766749Y516561D01*
X766749Y523767D01*
X766731Y523881D01*
X766713Y523998D01*
X766711Y524004D01*
X766710Y524010D01*
X766655Y524112D01*
X766602Y524217D01*
X766597Y524222D01*
X766594Y524227D01*
X766510Y524307D01*
X766426Y524389D01*
X766420Y524393D01*
X766416Y524396D01*
X766399Y524404D01*
X766361Y524425D01*
X766357Y524428D01*
X766350Y524431D01*
X766306Y524456D01*
X764462Y526299D01*
X763467Y528701D01*
X763467Y531299D01*
X764462Y533701D01*
X766310Y535549D01*
X766378Y535591D01*
X766479Y535651D01*
X766483Y535656D01*
X766488Y535659D01*
X766562Y535749D01*
X766639Y535838D01*
X766641Y535844D01*
X766645Y535849D01*
X766687Y535957D01*
X766731Y536066D01*
X766732Y536074D01*
X766733Y536078D01*
X766734Y536096D01*
X766749Y536233D01*
X766749Y600838D01*
X766735Y600928D01*
X766727Y601019D01*
X766715Y601049D01*
X766710Y601081D01*
X766667Y601162D01*
X766631Y601245D01*
X766605Y601278D01*
X766594Y601298D01*
X766571Y601320D01*
X766526Y601376D01*
X746124Y621778D01*
X746124Y640213D01*
X746110Y640303D01*
X746102Y640394D01*
X746090Y640424D01*
X746085Y640456D01*
X746042Y640537D01*
X746006Y640620D01*
X745980Y640653D01*
X745969Y640673D01*
X745946Y640695D01*
X745901Y640751D01*
X707832Y678821D01*
X707774Y678862D01*
X707722Y678912D01*
X707675Y678934D01*
X707633Y678964D01*
X707564Y678985D01*
X707499Y679015D01*
X707447Y679021D01*
X707397Y679036D01*
X707326Y679035D01*
X707255Y679042D01*
X707204Y679031D01*
X707152Y679030D01*
X707084Y679005D01*
X707014Y678990D01*
X706969Y678963D01*
X706921Y678946D01*
X706865Y678901D01*
X706803Y678864D01*
X706769Y678824D01*
X706729Y678792D01*
X706690Y678732D01*
X706643Y678677D01*
X706624Y678629D01*
X706596Y678585D01*
X706578Y678516D01*
X706551Y678449D01*
X706543Y678378D01*
X706535Y678346D01*
X706537Y678323D01*
X706533Y678282D01*
X706533Y638136D01*
X656756Y588359D01*
X656703Y588285D01*
X656643Y588216D01*
X656631Y588185D01*
X656612Y588159D01*
X656585Y588072D01*
X656551Y587987D01*
X656547Y587946D01*
X656540Y587924D01*
X656541Y587892D01*
X656533Y587821D01*
X656533Y570485D01*
X656547Y570394D01*
X656555Y570304D01*
X656567Y570274D01*
X656572Y570242D01*
X656615Y570161D01*
X656651Y570077D01*
X656677Y570045D01*
X656688Y570024D01*
X656711Y570002D01*
X656756Y569946D01*
X664033Y562669D01*
X664033Y556984D01*
X664044Y556913D01*
X664046Y556842D01*
X664064Y556793D01*
X664072Y556741D01*
X664106Y556678D01*
X664131Y556611D01*
X664163Y556570D01*
X664188Y556524D01*
X664240Y556475D01*
X664284Y556419D01*
X664328Y556391D01*
X664366Y556355D01*
X664431Y556325D01*
X664491Y556286D01*
X664542Y556273D01*
X664589Y556251D01*
X664660Y556243D01*
X664730Y556226D01*
X664782Y556230D01*
X664833Y556224D01*
X664904Y556239D01*
X664975Y556245D01*
X665023Y556265D01*
X665074Y556276D01*
X665135Y556313D01*
X665201Y556341D01*
X665257Y556386D01*
X665285Y556402D01*
X665300Y556420D01*
X665332Y556446D01*
X666924Y558038D01*
X669326Y559033D01*
X671924Y559033D01*
X674354Y558026D01*
X674398Y557998D01*
X674482Y557938D01*
X674501Y557932D01*
X674518Y557921D01*
X674619Y557896D01*
X674717Y557865D01*
X674737Y557866D01*
X674757Y557861D01*
X674859Y557869D01*
X674963Y557872D01*
X674982Y557879D01*
X675002Y557880D01*
X675096Y557920D01*
X675194Y557956D01*
X675210Y557969D01*
X675228Y557976D01*
X675359Y558081D01*
X692231Y574954D01*
X692243Y574970D01*
X692258Y574982D01*
X692315Y575069D01*
X692375Y575153D01*
X692381Y575172D01*
X692391Y575189D01*
X692417Y575289D01*
X692447Y575388D01*
X692447Y575408D01*
X692452Y575428D01*
X692443Y575531D01*
X692441Y575634D01*
X692434Y575653D01*
X692432Y575673D01*
X692392Y575768D01*
X692356Y575865D01*
X692344Y575881D01*
X692336Y575899D01*
X692231Y576030D01*
X691962Y576300D01*
X690967Y578701D01*
X690967Y581299D01*
X691962Y583701D01*
X693799Y585538D01*
X696205Y586535D01*
X696288Y586586D01*
X696374Y586632D01*
X696392Y586651D01*
X696414Y586664D01*
X696477Y586739D01*
X696544Y586810D01*
X696555Y586834D01*
X696571Y586854D01*
X696606Y586945D01*
X696647Y587033D01*
X696650Y587059D01*
X696659Y587083D01*
X696664Y587181D01*
X696674Y587277D01*
X696669Y587303D01*
X696670Y587329D01*
X696643Y587423D01*
X696622Y587518D01*
X696609Y587540D01*
X696601Y587565D01*
X696546Y587645D01*
X696496Y587729D01*
X696476Y587746D01*
X696461Y587767D01*
X696383Y587826D01*
X696309Y587889D01*
X696285Y587899D01*
X696264Y587914D01*
X696171Y587944D01*
X696081Y587981D01*
X696048Y587984D01*
X696030Y587990D01*
X695997Y587990D01*
X695914Y587999D01*
X692533Y587999D01*
X692418Y587980D01*
X692302Y587963D01*
X692296Y587961D01*
X692290Y587960D01*
X692188Y587905D01*
X692083Y587852D01*
X692078Y587847D01*
X692073Y587844D01*
X691993Y587760D01*
X691910Y587676D01*
X691907Y587670D01*
X691903Y587666D01*
X691896Y587649D01*
X691830Y587529D01*
X691320Y586299D01*
X689483Y584462D01*
X687081Y583467D01*
X684483Y583467D01*
X682081Y584462D01*
X680244Y586299D01*
X679249Y588701D01*
X679249Y591299D01*
X680244Y593701D01*
X682081Y595538D01*
X684483Y596533D01*
X687081Y596533D01*
X689483Y595538D01*
X690297Y594724D01*
X690371Y594671D01*
X690440Y594611D01*
X690471Y594599D01*
X690497Y594580D01*
X690584Y594553D01*
X690669Y594519D01*
X690709Y594515D01*
X690732Y594508D01*
X690764Y594509D01*
X690835Y594501D01*
X713847Y594501D01*
X715974Y592374D01*
X729874Y578474D01*
X732001Y576347D01*
X732001Y552403D01*
X713847Y534249D01*
X692268Y534249D01*
X692178Y534235D01*
X692087Y534227D01*
X692058Y534215D01*
X692026Y534210D01*
X691945Y534167D01*
X691861Y534131D01*
X691829Y534105D01*
X691808Y534094D01*
X691786Y534071D01*
X691730Y534026D01*
X644487Y486783D01*
X644430Y486704D01*
X644368Y486629D01*
X644359Y486605D01*
X644343Y486583D01*
X644325Y486524D01*
X644283Y486537D01*
X644193Y486574D01*
X644160Y486577D01*
X644142Y486583D01*
X644109Y486583D01*
X644026Y486592D01*
X607718Y486592D01*
X607628Y486578D01*
X607537Y486570D01*
X607507Y486558D01*
X607475Y486553D01*
X607395Y486510D01*
X607311Y486474D01*
X607279Y486448D01*
X607258Y486437D01*
X607236Y486414D01*
X607180Y486369D01*
X600060Y479249D01*
X597961Y479249D01*
X597871Y479235D01*
X597780Y479227D01*
X597751Y479215D01*
X597719Y479210D01*
X597638Y479167D01*
X597554Y479131D01*
X597522Y479105D01*
X597501Y479094D01*
X597479Y479071D01*
X597423Y479026D01*
X563896Y445499D01*
X549903Y445499D01*
X547776Y447626D01*
X537109Y458294D01*
X537014Y458362D01*
X536920Y458432D01*
X536914Y458434D01*
X536909Y458437D01*
X536797Y458472D01*
X536686Y458508D01*
X536680Y458508D01*
X536674Y458510D01*
X536557Y458507D01*
X536440Y458506D01*
X536433Y458504D01*
X536428Y458503D01*
X536411Y458497D01*
X536308Y458467D01*
X533701Y458467D01*
X531299Y459462D01*
X529462Y461299D01*
X528467Y463701D01*
X528467Y466299D01*
X529462Y468701D01*
X531299Y470538D01*
X533701Y471533D01*
X536299Y471533D01*
X538701Y470538D01*
X540538Y468701D01*
X541533Y466299D01*
X541533Y463685D01*
X541515Y463608D01*
X541486Y463494D01*
X541486Y463487D01*
X541485Y463481D01*
X541496Y463365D01*
X541505Y463248D01*
X541507Y463243D01*
X541508Y463236D01*
X541556Y463129D01*
X541601Y463022D01*
X541606Y463016D01*
X541608Y463012D01*
X541621Y462998D01*
X541706Y462891D01*
X548470Y456127D01*
X548549Y456070D01*
X548624Y456008D01*
X548649Y455999D01*
X548670Y455983D01*
X548763Y455955D01*
X548854Y455920D01*
X548880Y455919D01*
X548905Y455911D01*
X549002Y455914D01*
X549100Y455909D01*
X549125Y455917D01*
X549151Y455917D01*
X549243Y455951D01*
X549336Y455978D01*
X549357Y455993D01*
X549382Y456002D01*
X549458Y456063D01*
X549538Y456118D01*
X549554Y456139D01*
X549574Y456156D01*
X549627Y456238D01*
X549685Y456316D01*
X549693Y456340D01*
X549707Y456362D01*
X549731Y456457D01*
X549761Y456549D01*
X549761Y456576D01*
X549767Y456601D01*
X549760Y456698D01*
X549759Y456795D01*
X549749Y456827D01*
X549748Y456846D01*
X549735Y456876D01*
X549712Y456957D01*
X549183Y458233D01*
X549183Y460831D01*
X550178Y463233D01*
X550636Y463690D01*
X550647Y463707D01*
X550663Y463719D01*
X550719Y463806D01*
X550779Y463890D01*
X550785Y463909D01*
X550796Y463926D01*
X550821Y464026D01*
X550852Y464125D01*
X550851Y464145D01*
X550856Y464164D01*
X550848Y464267D01*
X550845Y464371D01*
X550838Y464390D01*
X550837Y464410D01*
X550797Y464504D01*
X550761Y464602D01*
X550748Y464618D01*
X550741Y464636D01*
X550636Y464767D01*
X545594Y469808D01*
X543467Y471935D01*
X543467Y490813D01*
X546526Y493872D01*
X546579Y493946D01*
X546639Y494015D01*
X546651Y494045D01*
X546670Y494071D01*
X546697Y494158D01*
X546731Y494243D01*
X546735Y494284D01*
X546742Y494306D01*
X546741Y494339D01*
X546749Y494410D01*
X546749Y527578D01*
X586526Y567355D01*
X586579Y567429D01*
X586639Y567499D01*
X586651Y567529D01*
X586670Y567555D01*
X586697Y567642D01*
X586731Y567727D01*
X586735Y567768D01*
X586742Y567790D01*
X586741Y567822D01*
X586749Y567893D01*
X586749Y598916D01*
X612501Y624668D01*
X612543Y624726D01*
X612592Y624778D01*
X612614Y624825D01*
X612645Y624867D01*
X612666Y624936D01*
X612696Y625001D01*
X612702Y625053D01*
X612717Y625103D01*
X612715Y625174D01*
X612723Y625245D01*
X612712Y625296D01*
X612711Y625348D01*
X612686Y625416D01*
X612671Y625486D01*
X612644Y625531D01*
X612626Y625579D01*
X612581Y625635D01*
X612545Y625697D01*
X612505Y625731D01*
X612473Y625771D01*
X612412Y625810D01*
X612358Y625857D01*
X612309Y625876D01*
X612266Y625904D01*
X612196Y625922D01*
X612130Y625949D01*
X612058Y625957D01*
X612027Y625965D01*
X612004Y625963D01*
X611963Y625967D01*
X610880Y625967D01*
X610790Y625953D01*
X610699Y625945D01*
X610669Y625933D01*
X610637Y625928D01*
X610556Y625885D01*
X610473Y625849D01*
X610440Y625823D01*
X610420Y625812D01*
X610398Y625789D01*
X610342Y625744D01*
X536347Y551749D01*
X506662Y551749D01*
X506572Y551735D01*
X506481Y551727D01*
X506451Y551715D01*
X506419Y551710D01*
X506338Y551667D01*
X506255Y551631D01*
X506222Y551605D01*
X506202Y551594D01*
X506180Y551571D01*
X506124Y551526D01*
X417644Y463046D01*
X417591Y462972D01*
X417531Y462903D01*
X417519Y462873D01*
X417500Y462847D01*
X417473Y462760D01*
X417439Y462675D01*
X417435Y462634D01*
X417428Y462612D01*
X417429Y462579D01*
X417421Y462508D01*
X417421Y436687D01*
X417439Y436572D01*
X417457Y436456D01*
X417459Y436450D01*
X417460Y436444D01*
X417515Y436341D01*
X417568Y436236D01*
X417573Y436232D01*
X417575Y436227D01*
X417660Y436147D01*
X417744Y436064D01*
X417750Y436061D01*
X417754Y436057D01*
X417771Y436049D01*
X417891Y435983D01*
X420370Y434956D01*
X422208Y433119D01*
X423203Y430717D01*
X423203Y428119D01*
X422674Y426843D01*
X422652Y426748D01*
X422623Y426655D01*
X422624Y426629D01*
X422618Y426603D01*
X422627Y426506D01*
X422630Y426409D01*
X422639Y426384D01*
X422641Y426358D01*
X422681Y426269D01*
X422714Y426178D01*
X422730Y426157D01*
X422741Y426133D01*
X422807Y426062D01*
X422868Y425986D01*
X422890Y425972D01*
X422907Y425952D01*
X422993Y425905D01*
X423075Y425853D01*
X423100Y425846D01*
X423123Y425834D01*
X423219Y425816D01*
X423313Y425793D01*
X423339Y425795D01*
X423365Y425790D01*
X423462Y425804D01*
X423558Y425812D01*
X423582Y425822D01*
X423608Y425826D01*
X423695Y425870D01*
X423785Y425908D01*
X423810Y425928D01*
X423828Y425937D01*
X423851Y425961D01*
X423916Y426013D01*
X434026Y436124D01*
X434079Y436197D01*
X434139Y436267D01*
X434151Y436297D01*
X434170Y436323D01*
X434197Y436410D01*
X434231Y436495D01*
X434235Y436536D01*
X434242Y436558D01*
X434241Y436591D01*
X434249Y436662D01*
X434249Y474985D01*
X434249Y474987D01*
X434249Y474991D01*
X434240Y476337D01*
X435191Y477288D01*
X435192Y477290D01*
X435194Y477292D01*
X478405Y521111D01*
X478445Y521167D01*
X479567Y522290D01*
X479569Y522291D01*
X479571Y522293D01*
X480515Y523251D01*
X481860Y523251D01*
X481862Y523251D01*
X481866Y523251D01*
X483407Y523262D01*
X483422Y523257D01*
X483454Y523258D01*
X483520Y523251D01*
X491267Y523251D01*
X491381Y523269D01*
X491498Y523287D01*
X491504Y523289D01*
X491510Y523290D01*
X491612Y523345D01*
X491717Y523398D01*
X491722Y523403D01*
X491727Y523406D01*
X491807Y523490D01*
X491889Y523574D01*
X491893Y523580D01*
X491896Y523584D01*
X491904Y523601D01*
X491956Y523694D01*
X493799Y525538D01*
X496201Y526533D01*
X498799Y526533D01*
X501201Y525538D01*
X503038Y523701D01*
X504033Y521299D01*
X504033Y518701D01*
X503038Y516299D01*
X501201Y514462D01*
X498799Y513467D01*
X496201Y513467D01*
X493799Y514462D01*
X491951Y516310D01*
X491909Y516378D01*
X491849Y516479D01*
X491844Y516483D01*
X491841Y516488D01*
X491751Y516562D01*
X491662Y516639D01*
X491656Y516641D01*
X491651Y516645D01*
X491543Y516687D01*
X491434Y516731D01*
X491426Y516732D01*
X491422Y516733D01*
X491404Y516734D01*
X491267Y516749D01*
X483553Y516749D01*
X483461Y516734D01*
X483367Y516726D01*
X483340Y516714D01*
X483311Y516710D01*
X483228Y516666D01*
X483141Y516628D01*
X483112Y516605D01*
X483093Y516594D01*
X483071Y516571D01*
X483011Y516523D01*
X440970Y473889D01*
X440919Y473817D01*
X440861Y473749D01*
X440848Y473717D01*
X440828Y473688D01*
X440802Y473604D01*
X440769Y473521D01*
X440764Y473477D01*
X440757Y473453D01*
X440758Y473421D01*
X440751Y473355D01*
X440751Y433653D01*
X439147Y432050D01*
X439106Y431992D01*
X439056Y431940D01*
X439034Y431893D01*
X439004Y431851D01*
X438983Y431782D01*
X438953Y431717D01*
X438947Y431665D01*
X438932Y431615D01*
X438933Y431544D01*
X438926Y431473D01*
X438937Y431422D01*
X438938Y431370D01*
X438963Y431302D01*
X438978Y431232D01*
X439005Y431187D01*
X439022Y431139D01*
X439067Y431083D01*
X439104Y431021D01*
X439144Y430987D01*
X439176Y430947D01*
X439236Y430908D01*
X439291Y430861D01*
X439339Y430842D01*
X439383Y430814D01*
X439452Y430796D01*
X439519Y430769D01*
X439590Y430761D01*
X439622Y430753D01*
X439645Y430755D01*
X439686Y430751D01*
X442731Y430751D01*
X442846Y430770D01*
X442962Y430787D01*
X442968Y430789D01*
X442974Y430790D01*
X443077Y430845D01*
X443182Y430898D01*
X443186Y430903D01*
X443191Y430906D01*
X443271Y430989D01*
X443354Y431074D01*
X443357Y431080D01*
X443361Y431084D01*
X443369Y431101D01*
X443435Y431221D01*
X444462Y433701D01*
X446299Y435538D01*
X448701Y436533D01*
X451299Y436533D01*
X453701Y435538D01*
X455538Y433701D01*
X456533Y431299D01*
X456533Y428701D01*
X455538Y426299D01*
X453701Y424462D01*
X451299Y423467D01*
X448701Y423467D01*
X446953Y424191D01*
X446889Y424206D01*
X446828Y424231D01*
X446745Y424240D01*
X446713Y424247D01*
X446694Y424246D01*
X446661Y424249D01*
X442912Y424249D01*
X442822Y424235D01*
X442731Y424227D01*
X442701Y424215D01*
X442669Y424210D01*
X442588Y424167D01*
X442504Y424131D01*
X442472Y424105D01*
X442452Y424094D01*
X442429Y424071D01*
X442374Y424026D01*
X424099Y405751D01*
X421972Y403624D01*
X340528Y403624D01*
X328876Y415276D01*
X328803Y415329D01*
X328733Y415389D01*
X328703Y415401D01*
X328677Y415420D01*
X328590Y415447D01*
X328505Y415481D01*
X328464Y415485D01*
X328442Y415492D01*
X328409Y415491D01*
X328338Y415499D01*
X218653Y415499D01*
X211124Y423028D01*
X211124Y436972D01*
X218653Y444501D01*
X370838Y444501D01*
X370928Y444515D01*
X371019Y444523D01*
X371049Y444535D01*
X371081Y444540D01*
X371162Y444583D01*
X371245Y444619D01*
X371278Y444645D01*
X371298Y444656D01*
X371320Y444679D01*
X371376Y444724D01*
X447776Y521124D01*
X447829Y521197D01*
X447889Y521267D01*
X447901Y521297D01*
X447920Y521323D01*
X447947Y521410D01*
X447981Y521495D01*
X447985Y521536D01*
X447992Y521558D01*
X447991Y521591D01*
X447999Y521662D01*
X447999Y523414D01*
X447984Y523510D01*
X447974Y523607D01*
X447964Y523631D01*
X447960Y523657D01*
X447914Y523743D01*
X447874Y523832D01*
X447857Y523851D01*
X447844Y523874D01*
X447774Y523941D01*
X447708Y524013D01*
X447685Y524026D01*
X447666Y524044D01*
X447578Y524085D01*
X447492Y524132D01*
X447467Y524136D01*
X447443Y524147D01*
X447346Y524158D01*
X447250Y524175D01*
X447224Y524171D01*
X447199Y524174D01*
X447103Y524154D01*
X447007Y524139D01*
X446984Y524128D01*
X446958Y524122D01*
X446875Y524072D01*
X446788Y524028D01*
X446769Y524009D01*
X446747Y523996D01*
X446684Y523922D01*
X446616Y523852D01*
X446600Y523824D01*
X446587Y523809D01*
X446575Y523778D01*
X446535Y523705D01*
X445538Y521299D01*
X443701Y519462D01*
X441299Y518467D01*
X438701Y518467D01*
X436299Y519462D01*
X434462Y521299D01*
X433467Y523701D01*
X433467Y526299D01*
X434191Y528047D01*
X434212Y528134D01*
X434214Y528140D01*
X434215Y528151D01*
X434218Y528161D01*
X434246Y528274D01*
X434246Y528280D01*
X434247Y528286D01*
X434240Y528368D01*
X434241Y528384D01*
X434236Y528410D01*
X434227Y528519D01*
X434225Y528525D01*
X434224Y528531D01*
X434195Y528596D01*
X434189Y528625D01*
X434166Y528664D01*
X434131Y528746D01*
X434126Y528752D01*
X434124Y528756D01*
X434112Y528770D01*
X434075Y528815D01*
X434063Y528836D01*
X434049Y528847D01*
X434026Y528877D01*
X421376Y541526D01*
X421303Y541579D01*
X421233Y541639D01*
X421203Y541651D01*
X421177Y541670D01*
X421090Y541697D01*
X421005Y541731D01*
X420964Y541735D01*
X420942Y541742D01*
X420909Y541741D01*
X420838Y541749D01*
X419686Y541749D01*
X419615Y541738D01*
X419543Y541736D01*
X419494Y541718D01*
X419443Y541710D01*
X419380Y541676D01*
X419312Y541651D01*
X419272Y541619D01*
X419226Y541594D01*
X419176Y541542D01*
X419120Y541498D01*
X419092Y541454D01*
X419056Y541416D01*
X419026Y541351D01*
X418987Y541291D01*
X418975Y541240D01*
X418953Y541193D01*
X418945Y541122D01*
X418927Y541052D01*
X418931Y541000D01*
X418926Y540949D01*
X418941Y540878D01*
X418946Y540807D01*
X418967Y540759D01*
X418978Y540708D01*
X419015Y540647D01*
X419043Y540581D01*
X419087Y540525D01*
X419104Y540497D01*
X419122Y540482D01*
X419147Y540450D01*
X428251Y531347D01*
X428251Y531233D01*
X428270Y531118D01*
X428287Y531002D01*
X428289Y530997D01*
X428290Y530990D01*
X428345Y530887D01*
X428398Y530783D01*
X428403Y530779D01*
X428406Y530773D01*
X428490Y530693D01*
X428574Y530611D01*
X428580Y530607D01*
X428584Y530604D01*
X428601Y530596D01*
X428694Y530544D01*
X430538Y528701D01*
X431533Y526299D01*
X431533Y523701D01*
X430538Y521299D01*
X428701Y519462D01*
X426299Y518467D01*
X423701Y518467D01*
X421299Y519462D01*
X419462Y521299D01*
X418467Y523701D01*
X418467Y526299D01*
X419462Y528700D01*
X420044Y529282D01*
X420055Y529299D01*
X420071Y529311D01*
X420127Y529398D01*
X420187Y529482D01*
X420193Y529501D01*
X420204Y529518D01*
X420229Y529618D01*
X420260Y529717D01*
X420259Y529737D01*
X420264Y529756D01*
X420256Y529859D01*
X420253Y529963D01*
X420246Y529982D01*
X420245Y530002D01*
X420205Y530097D01*
X420169Y530194D01*
X420156Y530210D01*
X420149Y530228D01*
X420044Y530359D01*
X416376Y534026D01*
X416303Y534079D01*
X416233Y534139D01*
X416203Y534151D01*
X416177Y534170D01*
X416090Y534197D01*
X416005Y534231D01*
X415964Y534235D01*
X415942Y534242D01*
X415909Y534241D01*
X415838Y534249D01*
X378555Y534249D01*
X378465Y534235D01*
X378374Y534227D01*
X378344Y534215D01*
X378312Y534210D01*
X378232Y534167D01*
X378148Y534131D01*
X378116Y534105D01*
X378095Y534094D01*
X378073Y534071D01*
X378017Y534026D01*
X376041Y532050D01*
X375999Y531992D01*
X375950Y531940D01*
X375928Y531893D01*
X375897Y531851D01*
X375876Y531782D01*
X375846Y531717D01*
X375840Y531665D01*
X375825Y531615D01*
X375827Y531544D01*
X375819Y531473D01*
X375830Y531422D01*
X375831Y531370D01*
X375856Y531302D01*
X375871Y531232D01*
X375898Y531188D01*
X375916Y531139D01*
X375961Y531083D01*
X375997Y531021D01*
X376037Y530987D01*
X376069Y530947D01*
X376130Y530908D01*
X376184Y530861D01*
X376233Y530842D01*
X376276Y530814D01*
X376346Y530796D01*
X376412Y530769D01*
X376484Y530761D01*
X376515Y530753D01*
X376538Y530755D01*
X376579Y530751D01*
X406661Y530751D01*
X406726Y530761D01*
X406791Y530762D01*
X406871Y530785D01*
X406904Y530790D01*
X406921Y530800D01*
X406953Y530809D01*
X408701Y531533D01*
X411299Y531533D01*
X413701Y530538D01*
X415538Y528701D01*
X416533Y526299D01*
X416533Y523701D01*
X415538Y521299D01*
X413701Y519462D01*
X411299Y518467D01*
X408701Y518467D01*
X406299Y519462D01*
X404462Y521299D01*
X403435Y523779D01*
X403373Y523879D01*
X403313Y523979D01*
X403308Y523983D01*
X403305Y523988D01*
X403215Y524063D01*
X403126Y524139D01*
X403120Y524141D01*
X403116Y524145D01*
X403007Y524187D01*
X402898Y524231D01*
X402890Y524232D01*
X402886Y524233D01*
X402868Y524234D01*
X402731Y524249D01*
X379162Y524249D01*
X379072Y524235D01*
X378981Y524227D01*
X378951Y524215D01*
X378919Y524210D01*
X378838Y524167D01*
X378755Y524131D01*
X378722Y524105D01*
X378702Y524094D01*
X378680Y524071D01*
X378624Y524026D01*
X368474Y513876D01*
X366647Y512050D01*
X366606Y511992D01*
X366556Y511940D01*
X366534Y511893D01*
X366504Y511851D01*
X366483Y511782D01*
X366453Y511717D01*
X366447Y511665D01*
X366432Y511615D01*
X366433Y511544D01*
X366426Y511473D01*
X366437Y511422D01*
X366438Y511370D01*
X366463Y511302D01*
X366478Y511232D01*
X366505Y511187D01*
X366522Y511139D01*
X366567Y511083D01*
X366604Y511021D01*
X366644Y510987D01*
X366676Y510947D01*
X366736Y510908D01*
X366791Y510861D01*
X366839Y510842D01*
X366883Y510814D01*
X366952Y510796D01*
X367019Y510769D01*
X367090Y510761D01*
X367122Y510753D01*
X367145Y510755D01*
X367186Y510751D01*
X375838Y510751D01*
X375928Y510765D01*
X376019Y510773D01*
X376049Y510785D01*
X376081Y510790D01*
X376162Y510833D01*
X376245Y510869D01*
X376278Y510895D01*
X376298Y510906D01*
X376320Y510929D01*
X376376Y510974D01*
X379435Y514033D01*
X385206Y514033D01*
X385226Y514036D01*
X385245Y514034D01*
X385347Y514056D01*
X385449Y514072D01*
X385466Y514082D01*
X385486Y514086D01*
X385575Y514139D01*
X385666Y514188D01*
X385680Y514202D01*
X385697Y514212D01*
X385764Y514291D01*
X385836Y514366D01*
X385844Y514384D01*
X385857Y514399D01*
X385896Y514495D01*
X385939Y514589D01*
X385941Y514609D01*
X385949Y514627D01*
X385967Y514794D01*
X385967Y516299D01*
X386962Y518701D01*
X388799Y520538D01*
X391201Y521533D01*
X393799Y521533D01*
X396201Y520538D01*
X398038Y518701D01*
X399033Y516299D01*
X399033Y513701D01*
X398038Y511299D01*
X396201Y509462D01*
X393799Y508467D01*
X391185Y508467D01*
X391108Y508485D01*
X390994Y508514D01*
X390987Y508514D01*
X390981Y508515D01*
X390865Y508504D01*
X390748Y508495D01*
X390743Y508493D01*
X390736Y508492D01*
X390629Y508444D01*
X390522Y508399D01*
X390516Y508394D01*
X390512Y508392D01*
X390498Y508379D01*
X390391Y508294D01*
X389929Y507832D01*
X389888Y507774D01*
X389838Y507722D01*
X389816Y507675D01*
X389786Y507633D01*
X389765Y507564D01*
X389735Y507499D01*
X389729Y507447D01*
X389714Y507397D01*
X389715Y507326D01*
X389708Y507255D01*
X389719Y507204D01*
X389720Y507152D01*
X389745Y507084D01*
X389760Y507014D01*
X389786Y506970D01*
X389804Y506921D01*
X389849Y506865D01*
X389886Y506803D01*
X389926Y506769D01*
X389958Y506729D01*
X390018Y506690D01*
X390073Y506643D01*
X390121Y506624D01*
X390165Y506596D01*
X390234Y506578D01*
X390301Y506551D01*
X390372Y506543D01*
X390404Y506535D01*
X390427Y506537D01*
X390468Y506533D01*
X391299Y506533D01*
X393701Y505538D01*
X395538Y503701D01*
X396533Y501299D01*
X396533Y498701D01*
X395538Y496299D01*
X393701Y494462D01*
X391299Y493467D01*
X388701Y493467D01*
X386299Y494462D01*
X384451Y496310D01*
X384409Y496378D01*
X384349Y496479D01*
X384344Y496483D01*
X384341Y496488D01*
X384251Y496563D01*
X384162Y496639D01*
X384156Y496641D01*
X384151Y496645D01*
X384043Y496687D01*
X383934Y496731D01*
X383926Y496732D01*
X383921Y496733D01*
X383903Y496734D01*
X383767Y496749D01*
X371662Y496749D01*
X371572Y496735D01*
X371481Y496727D01*
X371451Y496715D01*
X371419Y496710D01*
X371338Y496667D01*
X371255Y496631D01*
X371222Y496605D01*
X371202Y496594D01*
X371180Y496571D01*
X371124Y496526D01*
X359629Y485031D01*
X356652Y485031D01*
X356581Y485020D01*
X356509Y485018D01*
X356460Y485000D01*
X356409Y484992D01*
X356346Y484958D01*
X356278Y484933D01*
X356238Y484901D01*
X356192Y484876D01*
X356142Y484825D01*
X356086Y484780D01*
X356058Y484736D01*
X356022Y484698D01*
X355992Y484633D01*
X355953Y484573D01*
X355941Y484522D01*
X355919Y484475D01*
X355911Y484404D01*
X355893Y484334D01*
X355897Y484282D01*
X355892Y484231D01*
X355907Y484160D01*
X355912Y484089D01*
X355933Y484041D01*
X355944Y483990D01*
X355981Y483929D01*
X356009Y483863D01*
X356054Y483807D01*
X356070Y483779D01*
X356088Y483764D01*
X356114Y483732D01*
X356372Y483474D01*
X356446Y483421D01*
X356515Y483361D01*
X356545Y483349D01*
X356571Y483330D01*
X356658Y483303D01*
X356743Y483269D01*
X356784Y483265D01*
X356806Y483258D01*
X356839Y483259D01*
X356910Y483251D01*
X368767Y483251D01*
X368881Y483269D01*
X368998Y483287D01*
X369004Y483289D01*
X369010Y483290D01*
X369112Y483345D01*
X369217Y483398D01*
X369222Y483403D01*
X369227Y483406D01*
X369307Y483490D01*
X369389Y483574D01*
X369393Y483580D01*
X369396Y483584D01*
X369404Y483601D01*
X369456Y483694D01*
X371299Y485538D01*
X373701Y486533D01*
X376299Y486533D01*
X378701Y485538D01*
X380538Y483701D01*
X381533Y481299D01*
X381533Y478701D01*
X380538Y476299D01*
X378701Y474462D01*
X376299Y473467D01*
X373701Y473467D01*
X371299Y474462D01*
X369451Y476310D01*
X369409Y476378D01*
X369349Y476479D01*
X369344Y476483D01*
X369341Y476488D01*
X369251Y476562D01*
X369162Y476639D01*
X369156Y476641D01*
X369151Y476645D01*
X369043Y476687D01*
X368934Y476731D01*
X368926Y476732D01*
X368922Y476733D01*
X368904Y476734D01*
X368767Y476749D01*
X354327Y476749D01*
X354256Y476738D01*
X354185Y476736D01*
X354136Y476718D01*
X354084Y476710D01*
X354021Y476676D01*
X353954Y476651D01*
X353913Y476619D01*
X353867Y476594D01*
X353818Y476542D01*
X353762Y476498D01*
X353734Y476454D01*
X353698Y476416D01*
X353668Y476351D01*
X353629Y476291D01*
X353616Y476240D01*
X353594Y476193D01*
X353586Y476122D01*
X353569Y476052D01*
X353573Y476000D01*
X353567Y475949D01*
X353582Y475878D01*
X353588Y475807D01*
X353608Y475759D01*
X353619Y475708D01*
X353656Y475647D01*
X353684Y475581D01*
X353729Y475525D01*
X353745Y475497D01*
X353763Y475482D01*
X353789Y475450D01*
X355538Y473701D01*
X356533Y471299D01*
X356533Y468701D01*
X355538Y466299D01*
X353701Y464462D01*
X351299Y463467D01*
X348701Y463467D01*
X346299Y464462D01*
X345718Y465044D01*
X345701Y465055D01*
X345689Y465071D01*
X345602Y465127D01*
X345518Y465187D01*
X345499Y465193D01*
X345482Y465204D01*
X345381Y465229D01*
X345283Y465260D01*
X345263Y465259D01*
X345243Y465264D01*
X345141Y465256D01*
X345037Y465253D01*
X345018Y465246D01*
X344998Y465245D01*
X344904Y465205D01*
X344806Y465169D01*
X344790Y465156D01*
X344772Y465149D01*
X344641Y465044D01*
X328474Y448876D01*
X326347Y446749D01*
X191662Y446749D01*
X191572Y446735D01*
X191481Y446727D01*
X191451Y446715D01*
X191419Y446710D01*
X191338Y446667D01*
X191255Y446631D01*
X191222Y446605D01*
X191202Y446594D01*
X191180Y446571D01*
X191124Y446526D01*
X186755Y442158D01*
X186699Y442079D01*
X186637Y442004D01*
X186627Y441980D01*
X186612Y441959D01*
X186583Y441865D01*
X186548Y441775D01*
X186547Y441748D01*
X186540Y441723D01*
X186542Y441626D01*
X186538Y441529D01*
X186545Y441504D01*
X186546Y441478D01*
X186579Y441386D01*
X186607Y441293D01*
X186621Y441271D01*
X186630Y441247D01*
X186691Y441170D01*
X186747Y441091D01*
X186768Y441075D01*
X186784Y441055D01*
X186866Y441002D01*
X186944Y440944D01*
X186969Y440936D01*
X186991Y440922D01*
X187086Y440898D01*
X187178Y440868D01*
X187204Y440868D01*
X187230Y440861D01*
X187326Y440869D01*
X187424Y440870D01*
X187455Y440879D01*
X187475Y440881D01*
X187505Y440893D01*
X187585Y440917D01*
X188701Y441379D01*
X191299Y441379D01*
X193701Y440384D01*
X195538Y438547D01*
X196533Y436145D01*
X196533Y434410D01*
X196547Y434320D01*
X196555Y434229D01*
X196567Y434199D01*
X196572Y434167D01*
X196615Y434086D01*
X196651Y434003D01*
X196677Y433970D01*
X196688Y433950D01*
X196711Y433928D01*
X196756Y433872D01*
X219033Y411595D01*
X219033Y401076D01*
X219047Y400986D01*
X219055Y400895D01*
X219067Y400865D01*
X219072Y400833D01*
X219115Y400752D01*
X219151Y400668D01*
X219177Y400636D01*
X219188Y400616D01*
X219211Y400593D01*
X219256Y400537D01*
X231319Y388474D01*
X231393Y388421D01*
X231463Y388361D01*
X231493Y388349D01*
X231519Y388330D01*
X231606Y388303D01*
X231691Y388269D01*
X231732Y388265D01*
X231754Y388258D01*
X231786Y388259D01*
X231858Y388251D01*
X251972Y388251D01*
X252062Y388265D01*
X252153Y388273D01*
X252183Y388285D01*
X252215Y388290D01*
X252295Y388333D01*
X252379Y388369D01*
X252411Y388395D01*
X252432Y388406D01*
X252454Y388429D01*
X252456Y388430D01*
X252459Y388433D01*
X252510Y388474D01*
X255723Y391687D01*
X310841Y391687D01*
X325304Y377224D01*
X325378Y377171D01*
X325447Y377111D01*
X325478Y377099D01*
X325504Y377080D01*
X325591Y377053D01*
X325676Y377019D01*
X325717Y377015D01*
X325739Y377008D01*
X325771Y377009D01*
X325842Y377001D01*
X588375Y377001D01*
X588465Y377015D01*
X588556Y377023D01*
X588586Y377035D01*
X588618Y377040D01*
X588698Y377083D01*
X588782Y377119D01*
X588814Y377145D01*
X588835Y377156D01*
X588857Y377179D01*
X588913Y377224D01*
X643244Y431555D01*
X643297Y431629D01*
X643357Y431698D01*
X643369Y431728D01*
X643388Y431755D01*
X643415Y431841D01*
X643449Y431926D01*
X643453Y431967D01*
X643460Y431990D01*
X643459Y432022D01*
X643467Y432093D01*
X643467Y433799D01*
X644462Y436201D01*
X646299Y438038D01*
X648701Y439033D01*
X651299Y439033D01*
X653701Y438038D01*
X655538Y436201D01*
X656533Y433799D01*
X656533Y431201D01*
X655538Y428799D01*
X653701Y426962D01*
X651299Y425967D01*
X648685Y425967D01*
X648608Y425985D01*
X648494Y426014D01*
X648487Y426014D01*
X648481Y426015D01*
X648365Y426004D01*
X648248Y425995D01*
X648243Y425993D01*
X648236Y425992D01*
X648129Y425944D01*
X648022Y425899D01*
X648016Y425894D01*
X648012Y425892D01*
X647998Y425879D01*
X647891Y425794D01*
X647018Y424921D01*
X646962Y424842D01*
X646899Y424767D01*
X646890Y424743D01*
X646875Y424721D01*
X646846Y424628D01*
X646811Y424537D01*
X646810Y424511D01*
X646802Y424486D01*
X646805Y424389D01*
X646801Y424292D01*
X646808Y424267D01*
X646809Y424240D01*
X646842Y424149D01*
X646869Y424055D01*
X646884Y424034D01*
X646893Y424009D01*
X646954Y423933D01*
X647010Y423853D01*
X647031Y423838D01*
X647047Y423817D01*
X647129Y423765D01*
X647207Y423707D01*
X647232Y423699D01*
X647254Y423684D01*
X647348Y423661D01*
X647441Y423630D01*
X647467Y423631D01*
X647492Y423624D01*
X647589Y423632D01*
X647687Y423633D01*
X647718Y423642D01*
X647738Y423643D01*
X647768Y423656D01*
X647848Y423680D01*
X648701Y424033D01*
X651299Y424033D01*
X653701Y423038D01*
X655538Y421201D01*
X656533Y418799D01*
X656533Y416201D01*
X655538Y413799D01*
X653701Y411962D01*
X651299Y410967D01*
X648685Y410967D01*
X648608Y410985D01*
X648494Y411014D01*
X648487Y411014D01*
X648481Y411015D01*
X648365Y411004D01*
X648248Y410995D01*
X648243Y410993D01*
X648236Y410992D01*
X648129Y410944D01*
X648022Y410899D01*
X648016Y410894D01*
X648012Y410892D01*
X647998Y410879D01*
X647891Y410794D01*
X647018Y409921D01*
X646962Y409842D01*
X646899Y409767D01*
X646890Y409743D01*
X646875Y409721D01*
X646846Y409628D01*
X646811Y409537D01*
X646810Y409511D01*
X646802Y409486D01*
X646805Y409389D01*
X646801Y409292D01*
X646808Y409267D01*
X646809Y409240D01*
X646842Y409149D01*
X646869Y409055D01*
X646884Y409034D01*
X646893Y409009D01*
X646954Y408933D01*
X647010Y408853D01*
X647031Y408838D01*
X647047Y408817D01*
X647129Y408765D01*
X647207Y408707D01*
X647232Y408699D01*
X647254Y408684D01*
X647348Y408661D01*
X647441Y408630D01*
X647467Y408631D01*
X647492Y408624D01*
X647589Y408632D01*
X647687Y408633D01*
X647718Y408642D01*
X647738Y408643D01*
X647768Y408656D01*
X647848Y408680D01*
X648701Y409033D01*
X651299Y409033D01*
X653701Y408038D01*
X655538Y406201D01*
X656533Y403799D01*
X656533Y401201D01*
X655538Y398799D01*
X653701Y396962D01*
X651299Y395967D01*
X648701Y395967D01*
X646953Y396691D01*
X646839Y396718D01*
X646726Y396746D01*
X646720Y396746D01*
X646714Y396747D01*
X646597Y396736D01*
X646481Y396727D01*
X646475Y396725D01*
X646469Y396724D01*
X646361Y396676D01*
X646254Y396631D01*
X646248Y396626D01*
X646244Y396624D01*
X646230Y396612D01*
X646123Y396526D01*
X607224Y357626D01*
X605397Y355800D01*
X605356Y355742D01*
X605306Y355690D01*
X605284Y355643D01*
X605254Y355601D01*
X605233Y355532D01*
X605203Y355467D01*
X605197Y355415D01*
X605182Y355365D01*
X605183Y355294D01*
X605176Y355223D01*
X605187Y355172D01*
X605188Y355120D01*
X605213Y355052D01*
X605228Y354982D01*
X605255Y354937D01*
X605272Y354889D01*
X605317Y354833D01*
X605354Y354771D01*
X605394Y354737D01*
X605426Y354697D01*
X605486Y354658D01*
X605541Y354611D01*
X605589Y354592D01*
X605633Y354564D01*
X605702Y354546D01*
X605769Y354519D01*
X605840Y354511D01*
X605872Y354503D01*
X605895Y354505D01*
X605936Y354501D01*
X610195Y354501D01*
X610285Y354515D01*
X610376Y354523D01*
X610406Y354535D01*
X610438Y354540D01*
X610518Y354583D01*
X610602Y354619D01*
X610634Y354645D01*
X610655Y354656D01*
X610677Y354679D01*
X610733Y354724D01*
X643244Y387235D01*
X643297Y387309D01*
X643357Y387378D01*
X643369Y387408D01*
X643388Y387435D01*
X643415Y387522D01*
X643449Y387606D01*
X643453Y387647D01*
X643460Y387670D01*
X643459Y387702D01*
X643467Y387773D01*
X643467Y388799D01*
X644462Y391201D01*
X646299Y393038D01*
X648701Y394033D01*
X651299Y394033D01*
X653701Y393038D01*
X655538Y391201D01*
X656533Y388799D01*
X656533Y386201D01*
X655538Y383799D01*
X653701Y381962D01*
X651299Y380967D01*
X648701Y380967D01*
X647382Y381513D01*
X647268Y381540D01*
X647155Y381569D01*
X647149Y381568D01*
X647142Y381570D01*
X647026Y381559D01*
X646910Y381550D01*
X646904Y381547D01*
X646898Y381547D01*
X646790Y381499D01*
X646683Y381453D01*
X646677Y381449D01*
X646673Y381447D01*
X646659Y381434D01*
X646552Y381348D01*
X613504Y348300D01*
X613462Y348242D01*
X613413Y348190D01*
X613391Y348143D01*
X613361Y348101D01*
X613340Y348032D01*
X613309Y347967D01*
X613304Y347915D01*
X613288Y347865D01*
X613290Y347794D01*
X613282Y347723D01*
X613293Y347672D01*
X613295Y347620D01*
X613319Y347552D01*
X613334Y347482D01*
X613361Y347438D01*
X613379Y347389D01*
X613424Y347333D01*
X613461Y347271D01*
X613500Y347237D01*
X613533Y347197D01*
X613593Y347158D01*
X613648Y347111D01*
X613696Y347092D01*
X613740Y347064D01*
X613809Y347046D01*
X613876Y347019D01*
X613947Y347011D01*
X613978Y347003D01*
X614001Y347005D01*
X614042Y347001D01*
X617088Y347001D01*
X617178Y347015D01*
X617269Y347023D01*
X617299Y347035D01*
X617331Y347040D01*
X617412Y347083D01*
X617495Y347119D01*
X617528Y347145D01*
X617548Y347156D01*
X617570Y347179D01*
X617626Y347224D01*
X643244Y372842D01*
X643297Y372915D01*
X643357Y372985D01*
X643369Y373015D01*
X643388Y373041D01*
X643415Y373128D01*
X643449Y373213D01*
X643453Y373254D01*
X643460Y373276D01*
X643459Y373309D01*
X643467Y373380D01*
X643467Y373799D01*
X644462Y376201D01*
X646299Y378038D01*
X648701Y379033D01*
X651299Y379033D01*
X653701Y378038D01*
X655538Y376201D01*
X656533Y373799D01*
X656533Y371201D01*
X655538Y368799D01*
X653701Y366962D01*
X651299Y365967D01*
X648701Y365967D01*
X646953Y366691D01*
X646839Y366718D01*
X646726Y366746D01*
X646720Y366746D01*
X646714Y366747D01*
X646597Y366736D01*
X646481Y366727D01*
X646475Y366725D01*
X646469Y366724D01*
X646361Y366676D01*
X646254Y366631D01*
X646248Y366626D01*
X646244Y366624D01*
X646230Y366612D01*
X646123Y366526D01*
X620397Y340800D01*
X620356Y340742D01*
X620306Y340690D01*
X620284Y340643D01*
X620254Y340601D01*
X620233Y340532D01*
X620203Y340467D01*
X620197Y340415D01*
X620182Y340365D01*
X620183Y340294D01*
X620176Y340223D01*
X620187Y340172D01*
X620188Y340120D01*
X620213Y340052D01*
X620228Y339982D01*
X620254Y339938D01*
X620272Y339889D01*
X620317Y339833D01*
X620354Y339771D01*
X620394Y339737D01*
X620426Y339697D01*
X620486Y339658D01*
X620541Y339611D01*
X620589Y339592D01*
X620633Y339564D01*
X620702Y339546D01*
X620769Y339519D01*
X620840Y339511D01*
X620872Y339503D01*
X620895Y339505D01*
X620936Y339501D01*
X624588Y339501D01*
X624678Y339515D01*
X624769Y339523D01*
X624799Y339535D01*
X624831Y339540D01*
X624912Y339583D01*
X624995Y339619D01*
X625028Y339645D01*
X625048Y339656D01*
X625070Y339679D01*
X625126Y339724D01*
X643244Y357842D01*
X643297Y357915D01*
X643357Y357985D01*
X643369Y358015D01*
X643388Y358041D01*
X643415Y358128D01*
X643449Y358213D01*
X643453Y358254D01*
X643460Y358276D01*
X643459Y358309D01*
X643467Y358380D01*
X643467Y358799D01*
X644462Y361201D01*
X646299Y363038D01*
X648701Y364033D01*
X651299Y364033D01*
X653701Y363038D01*
X655538Y361201D01*
X656533Y358799D01*
X656533Y356201D01*
X655538Y353799D01*
X653701Y351962D01*
X651299Y350967D01*
X648701Y350967D01*
X646953Y351691D01*
X646887Y351707D01*
X646862Y351717D01*
X646830Y351720D01*
X646726Y351746D01*
X646720Y351746D01*
X646714Y351747D01*
X646597Y351736D01*
X646481Y351727D01*
X646475Y351725D01*
X646469Y351724D01*
X646361Y351676D01*
X646254Y351631D01*
X646248Y351626D01*
X646244Y351624D01*
X646230Y351612D01*
X646198Y351586D01*
X646187Y351580D01*
X646176Y351569D01*
X646123Y351526D01*
X627897Y333300D01*
X627856Y333242D01*
X627806Y333190D01*
X627784Y333143D01*
X627754Y333101D01*
X627733Y333032D01*
X627703Y332967D01*
X627697Y332915D01*
X627682Y332865D01*
X627683Y332794D01*
X627676Y332723D01*
X627687Y332672D01*
X627688Y332620D01*
X627713Y332552D01*
X627728Y332482D01*
X627754Y332438D01*
X627772Y332389D01*
X627817Y332333D01*
X627854Y332271D01*
X627894Y332237D01*
X627926Y332197D01*
X627986Y332158D01*
X628041Y332111D01*
X628089Y332092D01*
X628133Y332064D01*
X628202Y332046D01*
X628269Y332019D01*
X628340Y332011D01*
X628372Y332003D01*
X628395Y332005D01*
X628436Y332001D01*
X632088Y332001D01*
X632178Y332015D01*
X632269Y332023D01*
X632299Y332035D01*
X632331Y332040D01*
X632412Y332083D01*
X632495Y332119D01*
X632528Y332145D01*
X632548Y332156D01*
X632570Y332179D01*
X632626Y332224D01*
X643244Y342842D01*
X643289Y342904D01*
X643317Y342933D01*
X643322Y342944D01*
X643357Y342985D01*
X643369Y343015D01*
X643388Y343041D01*
X643415Y343128D01*
X643449Y343213D01*
X643453Y343254D01*
X643460Y343276D01*
X643459Y343309D01*
X643467Y343380D01*
X643467Y343799D01*
X644462Y346201D01*
X646299Y348038D01*
X648701Y349033D01*
X651299Y349033D01*
X653701Y348038D01*
X655538Y346201D01*
X656533Y343799D01*
X656533Y341201D01*
X655538Y338799D01*
X653701Y336962D01*
X651299Y335967D01*
X648701Y335967D01*
X646953Y336691D01*
X646839Y336718D01*
X646726Y336746D01*
X646720Y336746D01*
X646714Y336747D01*
X646597Y336736D01*
X646481Y336727D01*
X646475Y336725D01*
X646469Y336724D01*
X646361Y336676D01*
X646254Y336631D01*
X646248Y336626D01*
X646244Y336624D01*
X646230Y336612D01*
X646123Y336526D01*
X635397Y325800D01*
X635356Y325742D01*
X635306Y325690D01*
X635284Y325643D01*
X635254Y325601D01*
X635233Y325532D01*
X635203Y325467D01*
X635197Y325415D01*
X635182Y325365D01*
X635183Y325294D01*
X635176Y325223D01*
X635187Y325172D01*
X635188Y325120D01*
X635213Y325052D01*
X635228Y324982D01*
X635254Y324938D01*
X635272Y324889D01*
X635317Y324833D01*
X635354Y324771D01*
X635394Y324737D01*
X635426Y324697D01*
X635486Y324658D01*
X635541Y324611D01*
X635589Y324592D01*
X635633Y324564D01*
X635702Y324546D01*
X635769Y324519D01*
X635840Y324511D01*
X635872Y324503D01*
X635895Y324505D01*
X635936Y324501D01*
X637088Y324501D01*
X637178Y324515D01*
X637269Y324523D01*
X637299Y324535D01*
X637331Y324540D01*
X637412Y324583D01*
X637495Y324619D01*
X637528Y324645D01*
X637548Y324656D01*
X637570Y324679D01*
X637626Y324724D01*
X641526Y328624D01*
X643653Y330751D01*
X643767Y330751D01*
X643882Y330770D01*
X643998Y330787D01*
X644003Y330789D01*
X644010Y330790D01*
X644113Y330845D01*
X644217Y330898D01*
X644221Y330903D01*
X644227Y330906D01*
X644307Y330990D01*
X644389Y331074D01*
X644393Y331080D01*
X644396Y331084D01*
X644404Y331101D01*
X644456Y331194D01*
X646299Y333038D01*
X648701Y334033D01*
X651299Y334033D01*
X653701Y333038D01*
X655538Y331201D01*
X656533Y328799D01*
X656533Y326201D01*
X655538Y323799D01*
X653701Y321962D01*
X651299Y320967D01*
X648701Y320967D01*
X646299Y321962D01*
X645718Y322544D01*
X645701Y322555D01*
X645689Y322571D01*
X645602Y322627D01*
X645518Y322687D01*
X645499Y322693D01*
X645482Y322704D01*
X645381Y322729D01*
X645283Y322760D01*
X645263Y322759D01*
X645243Y322764D01*
X645141Y322756D01*
X645037Y322753D01*
X645018Y322746D01*
X644998Y322745D01*
X644904Y322705D01*
X644806Y322669D01*
X644790Y322656D01*
X644772Y322649D01*
X644641Y322544D01*
X640397Y318300D01*
X640356Y318242D01*
X640306Y318190D01*
X640284Y318143D01*
X640254Y318101D01*
X640233Y318032D01*
X640203Y317967D01*
X640197Y317915D01*
X640182Y317865D01*
X640183Y317794D01*
X640176Y317723D01*
X640187Y317672D01*
X640188Y317620D01*
X640213Y317552D01*
X640228Y317482D01*
X640254Y317438D01*
X640272Y317389D01*
X640317Y317333D01*
X640354Y317271D01*
X640394Y317237D01*
X640426Y317197D01*
X640486Y317158D01*
X640541Y317111D01*
X640589Y317092D01*
X640633Y317064D01*
X640702Y317046D01*
X640769Y317019D01*
X640840Y317011D01*
X640872Y317003D01*
X640895Y317005D01*
X640936Y317001D01*
X655213Y317001D01*
X655303Y317015D01*
X655394Y317023D01*
X655424Y317035D01*
X655456Y317040D01*
X655536Y317083D01*
X655620Y317119D01*
X655653Y317145D01*
X655673Y317156D01*
X655695Y317179D01*
X655751Y317224D01*
X658294Y319766D01*
X658362Y319861D01*
X658432Y319955D01*
X658434Y319961D01*
X658437Y319966D01*
X658472Y320078D01*
X658508Y320189D01*
X658508Y320195D01*
X658510Y320201D01*
X658507Y320318D01*
X658506Y320435D01*
X658504Y320442D01*
X658503Y320447D01*
X658497Y320464D01*
X658467Y320567D01*
X658467Y323174D01*
X659462Y325576D01*
X661299Y327413D01*
X663701Y328408D01*
X666299Y328408D01*
X668701Y327413D01*
X670538Y325576D01*
X671533Y323174D01*
X671533Y320576D01*
X670538Y318174D01*
X668701Y316337D01*
X666299Y315342D01*
X663685Y315342D01*
X663608Y315360D01*
X663494Y315389D01*
X663487Y315389D01*
X663481Y315390D01*
X663365Y315379D01*
X663248Y315370D01*
X663243Y315368D01*
X663236Y315367D01*
X663129Y315319D01*
X663022Y315274D01*
X663016Y315269D01*
X663012Y315267D01*
X662998Y315254D01*
X662891Y315169D01*
X660349Y312626D01*
X658222Y310499D01*
X290636Y310499D01*
X290616Y310496D01*
X290596Y310498D01*
X290495Y310476D01*
X290393Y310460D01*
X290376Y310450D01*
X290356Y310446D01*
X290267Y310393D01*
X290176Y310344D01*
X290162Y310330D01*
X290145Y310320D01*
X290078Y310241D01*
X290006Y310166D01*
X289998Y310148D01*
X289985Y310133D01*
X289946Y310037D01*
X289903Y309943D01*
X289901Y309923D01*
X289893Y309905D01*
X289883Y309810D01*
X288880Y307389D01*
X287042Y305552D01*
X285023Y304715D01*
X284940Y304664D01*
X284854Y304618D01*
X284836Y304599D01*
X284814Y304586D01*
X284752Y304511D01*
X284685Y304440D01*
X284674Y304416D01*
X284657Y304396D01*
X284622Y304305D01*
X284581Y304217D01*
X284578Y304191D01*
X284569Y304167D01*
X284565Y304069D01*
X284554Y303973D01*
X284559Y303947D01*
X284558Y303921D01*
X284586Y303827D01*
X284606Y303732D01*
X284620Y303710D01*
X284627Y303685D01*
X284682Y303605D01*
X284732Y303521D01*
X284752Y303504D01*
X284767Y303483D01*
X284845Y303424D01*
X284919Y303361D01*
X284944Y303351D01*
X284965Y303336D01*
X285057Y303306D01*
X285147Y303269D01*
X285180Y303266D01*
X285198Y303260D01*
X285231Y303260D01*
X285314Y303251D01*
X361953Y303251D01*
X399959Y265245D01*
X400033Y265192D01*
X400103Y265132D01*
X400133Y265120D01*
X400159Y265101D01*
X400246Y265074D01*
X400331Y265040D01*
X400372Y265036D01*
X400394Y265029D01*
X400426Y265030D01*
X400497Y265022D01*
X458338Y265022D01*
X458428Y265036D01*
X458519Y265044D01*
X458549Y265056D01*
X458581Y265061D01*
X458662Y265104D01*
X458745Y265140D01*
X458778Y265166D01*
X458798Y265177D01*
X458820Y265200D01*
X458876Y265245D01*
X460408Y266777D01*
X460420Y266793D01*
X460435Y266805D01*
X460492Y266892D01*
X460552Y266976D01*
X460558Y266995D01*
X460568Y267012D01*
X460594Y267112D01*
X460624Y267211D01*
X460624Y267231D01*
X460629Y267251D01*
X460620Y267354D01*
X460618Y267457D01*
X460611Y267476D01*
X460609Y267496D01*
X460569Y267590D01*
X460533Y267688D01*
X460521Y267704D01*
X460513Y267722D01*
X460408Y267853D01*
X459462Y268799D01*
X458467Y271201D01*
X458467Y273799D01*
X459462Y276201D01*
X461299Y278038D01*
X463701Y279033D01*
X466299Y279033D01*
X468701Y278038D01*
X470538Y276201D01*
X471533Y273799D01*
X471533Y271201D01*
X470538Y268799D01*
X468690Y266951D01*
X468622Y266909D01*
X468521Y266849D01*
X468517Y266844D01*
X468512Y266841D01*
X468438Y266751D01*
X468361Y266662D01*
X468359Y266656D01*
X468355Y266651D01*
X468313Y266543D01*
X468269Y266434D01*
X468268Y266426D01*
X468267Y266422D01*
X468266Y266404D01*
X468251Y266267D01*
X468251Y265424D01*
X461647Y258821D01*
X461606Y258763D01*
X461556Y258711D01*
X461534Y258664D01*
X461504Y258622D01*
X461483Y258553D01*
X461453Y258488D01*
X461447Y258436D01*
X461432Y258386D01*
X461433Y258315D01*
X461426Y258244D01*
X461437Y258193D01*
X461438Y258141D01*
X461463Y258073D01*
X461478Y258003D01*
X461505Y257958D01*
X461522Y257910D01*
X461567Y257854D01*
X461604Y257792D01*
X461644Y257758D01*
X461676Y257718D01*
X461736Y257679D01*
X461791Y257632D01*
X461839Y257613D01*
X461883Y257585D01*
X461952Y257567D01*
X462019Y257540D01*
X462090Y257532D01*
X462122Y257524D01*
X462145Y257526D01*
X462186Y257522D01*
X482022Y257522D01*
X482112Y257536D01*
X482203Y257544D01*
X482233Y257556D01*
X482265Y257561D01*
X482346Y257604D01*
X482430Y257640D01*
X482462Y257666D01*
X482482Y257677D01*
X482505Y257700D01*
X482561Y257745D01*
X503067Y278251D01*
X553847Y278251D01*
X563251Y268847D01*
X563251Y263733D01*
X563269Y263619D01*
X563287Y263502D01*
X563289Y263496D01*
X563290Y263490D01*
X563345Y263388D01*
X563398Y263283D01*
X563403Y263278D01*
X563406Y263273D01*
X563490Y263193D01*
X563574Y263111D01*
X563580Y263107D01*
X563584Y263104D01*
X563601Y263096D01*
X563694Y263044D01*
X565538Y261201D01*
X566533Y258799D01*
X566533Y256201D01*
X565538Y253799D01*
X563701Y251962D01*
X561299Y250967D01*
X558701Y250967D01*
X556299Y251962D01*
X554462Y253799D01*
X553467Y256201D01*
X553467Y258799D01*
X554462Y261201D01*
X556310Y263049D01*
X556378Y263091D01*
X556479Y263151D01*
X556483Y263156D01*
X556488Y263159D01*
X556562Y263249D01*
X556639Y263338D01*
X556641Y263344D01*
X556645Y263349D01*
X556687Y263457D01*
X556731Y263566D01*
X556732Y263574D01*
X556733Y263578D01*
X556734Y263596D01*
X556749Y263733D01*
X556749Y265838D01*
X556735Y265928D01*
X556727Y266019D01*
X556715Y266049D01*
X556710Y266081D01*
X556667Y266162D01*
X556631Y266245D01*
X556605Y266278D01*
X556594Y266298D01*
X556571Y266320D01*
X556526Y266376D01*
X551376Y271526D01*
X551303Y271579D01*
X551233Y271639D01*
X551203Y271651D01*
X551177Y271670D01*
X551090Y271697D01*
X551005Y271731D01*
X550964Y271735D01*
X550942Y271742D01*
X550909Y271741D01*
X550838Y271749D01*
X537186Y271749D01*
X537115Y271738D01*
X537043Y271736D01*
X536994Y271718D01*
X536943Y271710D01*
X536880Y271676D01*
X536812Y271651D01*
X536772Y271619D01*
X536726Y271594D01*
X536676Y271542D01*
X536620Y271498D01*
X536592Y271454D01*
X536556Y271416D01*
X536526Y271351D01*
X536487Y271291D01*
X536475Y271240D01*
X536453Y271193D01*
X536445Y271122D01*
X536427Y271052D01*
X536431Y271000D01*
X536426Y270949D01*
X536441Y270878D01*
X536446Y270807D01*
X536467Y270759D01*
X536478Y270708D01*
X536515Y270647D01*
X536543Y270581D01*
X536587Y270525D01*
X536604Y270497D01*
X536622Y270482D01*
X536647Y270450D01*
X538474Y268624D01*
X542891Y264206D01*
X542986Y264138D01*
X543080Y264068D01*
X543086Y264066D01*
X543091Y264063D01*
X543203Y264028D01*
X543314Y263992D01*
X543320Y263992D01*
X543326Y263990D01*
X543443Y263993D01*
X543560Y263994D01*
X543567Y263996D01*
X543572Y263997D01*
X543589Y264003D01*
X543692Y264033D01*
X546299Y264033D01*
X548701Y263038D01*
X550538Y261201D01*
X551533Y258799D01*
X551533Y256201D01*
X550538Y253799D01*
X548701Y251962D01*
X546299Y250967D01*
X543701Y250967D01*
X541299Y251962D01*
X539462Y253799D01*
X538467Y256201D01*
X538467Y258815D01*
X538485Y258892D01*
X538514Y259006D01*
X538514Y259013D01*
X538515Y259019D01*
X538504Y259135D01*
X538495Y259252D01*
X538493Y259257D01*
X538492Y259264D01*
X538444Y259371D01*
X538399Y259478D01*
X538394Y259484D01*
X538392Y259488D01*
X538379Y259502D01*
X538294Y259609D01*
X533876Y264026D01*
X533802Y264079D01*
X533733Y264139D01*
X533703Y264151D01*
X533677Y264170D01*
X533590Y264197D01*
X533505Y264231D01*
X533464Y264235D01*
X533442Y264242D01*
X533409Y264241D01*
X533338Y264249D01*
X509182Y264249D01*
X509091Y264235D01*
X509001Y264227D01*
X508971Y264215D01*
X508939Y264210D01*
X508858Y264167D01*
X508774Y264131D01*
X508742Y264105D01*
X508721Y264094D01*
X508699Y264071D01*
X508643Y264026D01*
X488137Y243520D01*
X391276Y243520D01*
X353270Y281526D01*
X353196Y281579D01*
X353126Y281639D01*
X353096Y281651D01*
X353070Y281670D01*
X352983Y281697D01*
X352898Y281731D01*
X352857Y281735D01*
X352835Y281742D01*
X352803Y281741D01*
X352732Y281749D01*
X157799Y281749D01*
X94550Y344998D01*
X94492Y345040D01*
X94440Y345089D01*
X94393Y345111D01*
X94351Y345141D01*
X94282Y345162D01*
X94217Y345193D01*
X94165Y345198D01*
X94115Y345214D01*
X94044Y345212D01*
X93973Y345220D01*
X93922Y345209D01*
X93870Y345207D01*
X93802Y345183D01*
X93732Y345168D01*
X93687Y345141D01*
X93639Y345123D01*
X93583Y345078D01*
X93521Y345041D01*
X93487Y345002D01*
X93447Y344969D01*
X93408Y344909D01*
X93361Y344854D01*
X93342Y344806D01*
X93314Y344762D01*
X93296Y344693D01*
X93269Y344626D01*
X93261Y344555D01*
X93253Y344524D01*
X93255Y344500D01*
X93251Y344460D01*
X93251Y336233D01*
X93270Y336118D01*
X93287Y336002D01*
X93289Y335997D01*
X93290Y335990D01*
X93345Y335887D01*
X93398Y335783D01*
X93403Y335779D01*
X93406Y335773D01*
X93490Y335693D01*
X93574Y335611D01*
X93580Y335607D01*
X93584Y335604D01*
X93601Y335596D01*
X93694Y335544D01*
X95538Y333701D01*
X96533Y331299D01*
X96533Y328701D01*
X95538Y326299D01*
X93701Y324462D01*
X91299Y323467D01*
X88701Y323467D01*
X86299Y324462D01*
X84462Y326299D01*
X83467Y328701D01*
X83467Y331299D01*
X84462Y333701D01*
X86310Y335549D01*
X86378Y335591D01*
X86479Y335651D01*
X86483Y335656D01*
X86488Y335659D01*
X86562Y335749D01*
X86639Y335838D01*
X86641Y335844D01*
X86645Y335849D01*
X86687Y335957D01*
X86731Y336066D01*
X86732Y336074D01*
X86733Y336079D01*
X86734Y336097D01*
X86749Y336233D01*
X86749Y466806D01*
X88876Y468933D01*
X101206Y481263D01*
X101263Y481342D01*
X101325Y481417D01*
X101334Y481441D01*
X101349Y481462D01*
X101378Y481555D01*
X101413Y481646D01*
X101414Y481672D01*
X101422Y481698D01*
X101419Y481795D01*
X101423Y481892D01*
X101416Y481917D01*
X101415Y481943D01*
X101382Y482035D01*
X101355Y482128D01*
X101340Y482150D01*
X101331Y482174D01*
X101270Y482251D01*
X101215Y482330D01*
X101194Y482346D01*
X101177Y482366D01*
X101095Y482419D01*
X101017Y482477D01*
X100992Y482485D01*
X100970Y482499D01*
X100876Y482523D01*
X100783Y482553D01*
X100757Y482553D01*
X100732Y482560D01*
X100635Y482552D01*
X100537Y482551D01*
X100506Y482542D01*
X100487Y482540D01*
X100456Y482528D01*
X100376Y482504D01*
X98174Y481592D01*
X95560Y481592D01*
X95483Y481610D01*
X95369Y481639D01*
X95362Y481639D01*
X95356Y481640D01*
X95240Y481629D01*
X95123Y481620D01*
X95118Y481618D01*
X95111Y481617D01*
X95004Y481569D01*
X94897Y481524D01*
X94891Y481519D01*
X94887Y481517D01*
X94873Y481504D01*
X94766Y481419D01*
X81599Y468251D01*
X81546Y468178D01*
X81486Y468108D01*
X81474Y468078D01*
X81455Y468052D01*
X81428Y467965D01*
X81394Y467880D01*
X81390Y467839D01*
X81383Y467817D01*
X81384Y467784D01*
X81376Y467713D01*
X81376Y326662D01*
X81390Y326572D01*
X81398Y326481D01*
X81410Y326451D01*
X81415Y326419D01*
X81458Y326338D01*
X81494Y326255D01*
X81520Y326222D01*
X81531Y326202D01*
X81554Y326180D01*
X81599Y326124D01*
X127999Y279724D01*
X128072Y279671D01*
X128142Y279611D01*
X128172Y279599D01*
X128198Y279580D01*
X128285Y279553D01*
X128370Y279519D01*
X128411Y279515D01*
X128433Y279508D01*
X128466Y279509D01*
X128537Y279501D01*
X171347Y279501D01*
X186429Y264418D01*
X186482Y264329D01*
X186531Y264238D01*
X186545Y264224D01*
X186555Y264207D01*
X186634Y264140D01*
X186709Y264068D01*
X186727Y264060D01*
X186742Y264047D01*
X186838Y264008D01*
X186932Y263965D01*
X186952Y263963D01*
X186970Y263955D01*
X187137Y263937D01*
X188703Y263937D01*
X191104Y262942D01*
X192942Y261104D01*
X193937Y258703D01*
X193937Y256105D01*
X192942Y253703D01*
X191104Y251866D01*
X188703Y250871D01*
X186105Y250871D01*
X183703Y251866D01*
X181866Y253703D01*
X180871Y256105D01*
X180871Y258591D01*
X180857Y258681D01*
X180849Y258772D01*
X180837Y258802D01*
X180831Y258834D01*
X180789Y258914D01*
X180753Y258998D01*
X180727Y259031D01*
X180716Y259051D01*
X180693Y259073D01*
X180648Y259129D01*
X180332Y259445D01*
X180274Y259487D01*
X180222Y259537D01*
X180175Y259559D01*
X180133Y259589D01*
X180064Y259610D01*
X179999Y259640D01*
X179947Y259646D01*
X179897Y259661D01*
X179826Y259660D01*
X179755Y259667D01*
X179704Y259656D01*
X179652Y259655D01*
X179584Y259630D01*
X179514Y259615D01*
X179469Y259588D01*
X179421Y259571D01*
X179365Y259526D01*
X179303Y259489D01*
X179269Y259449D01*
X179229Y259417D01*
X179190Y259357D01*
X179143Y259302D01*
X179124Y259254D01*
X179096Y259210D01*
X179078Y259141D01*
X179051Y259074D01*
X179043Y259003D01*
X179035Y258971D01*
X179037Y258948D01*
X179033Y258907D01*
X179033Y256201D01*
X178038Y253799D01*
X176190Y251951D01*
X176122Y251909D01*
X176021Y251849D01*
X176017Y251844D01*
X176012Y251841D01*
X175938Y251751D01*
X175861Y251662D01*
X175859Y251656D01*
X175855Y251651D01*
X175813Y251543D01*
X175769Y251434D01*
X175768Y251426D01*
X175767Y251422D01*
X175766Y251404D01*
X175751Y251267D01*
X175751Y241153D01*
X161347Y226749D01*
X73653Y226749D01*
X71526Y228876D01*
X59550Y240853D01*
X59492Y240894D01*
X59440Y240944D01*
X59393Y240966D01*
X59351Y240996D01*
X59282Y241017D01*
X59217Y241047D01*
X59165Y241053D01*
X59115Y241068D01*
X59044Y241067D01*
X58973Y241074D01*
X58922Y241063D01*
X58870Y241062D01*
X58802Y241037D01*
X58732Y241022D01*
X58687Y240995D01*
X58639Y240978D01*
X58583Y240933D01*
X58521Y240896D01*
X58487Y240856D01*
X58447Y240824D01*
X58408Y240764D01*
X58361Y240709D01*
X58342Y240661D01*
X58314Y240617D01*
X58296Y240548D01*
X58269Y240481D01*
X58261Y240410D01*
X58253Y240378D01*
X58255Y240355D01*
X58251Y240314D01*
X58251Y236662D01*
X58265Y236572D01*
X58273Y236481D01*
X58285Y236451D01*
X58290Y236419D01*
X58333Y236338D01*
X58369Y236255D01*
X58395Y236222D01*
X58406Y236202D01*
X58429Y236180D01*
X58474Y236124D01*
X161124Y133474D01*
X161197Y133421D01*
X161267Y133361D01*
X161297Y133349D01*
X161323Y133330D01*
X161410Y133303D01*
X161495Y133269D01*
X161536Y133265D01*
X161558Y133258D01*
X161591Y133259D01*
X161662Y133251D01*
X408338Y133251D01*
X408428Y133265D01*
X408519Y133273D01*
X408549Y133285D01*
X408581Y133290D01*
X408662Y133333D01*
X408745Y133369D01*
X408778Y133395D01*
X408798Y133406D01*
X408803Y133411D01*
X408804Y133411D01*
X408822Y133430D01*
X408876Y133474D01*
X430853Y155450D01*
X430894Y155508D01*
X430944Y155560D01*
X430966Y155607D01*
X430996Y155649D01*
X431017Y155718D01*
X431047Y155783D01*
X431053Y155835D01*
X431068Y155885D01*
X431067Y155956D01*
X431074Y156027D01*
X431063Y156078D01*
X431062Y156130D01*
X431037Y156198D01*
X431022Y156268D01*
X430995Y156313D01*
X430978Y156361D01*
X430933Y156417D01*
X430896Y156479D01*
X430856Y156513D01*
X430824Y156553D01*
X430764Y156592D01*
X430709Y156639D01*
X430661Y156658D01*
X430617Y156686D01*
X430548Y156704D01*
X430481Y156731D01*
X430410Y156739D01*
X430378Y156747D01*
X430355Y156745D01*
X430314Y156749D01*
X413733Y156749D01*
X413619Y156731D01*
X413502Y156713D01*
X413496Y156711D01*
X413490Y156710D01*
X413388Y156655D01*
X413283Y156602D01*
X413278Y156597D01*
X413273Y156594D01*
X413193Y156510D01*
X413111Y156426D01*
X413107Y156420D01*
X413104Y156416D01*
X413096Y156399D01*
X413044Y156306D01*
X411201Y154462D01*
X408799Y153467D01*
X406201Y153467D01*
X403799Y154462D01*
X401962Y156299D01*
X400967Y158701D01*
X400967Y161299D01*
X401962Y163701D01*
X403799Y165538D01*
X406201Y166533D01*
X408799Y166533D01*
X411201Y165538D01*
X413049Y163690D01*
X413091Y163622D01*
X413151Y163521D01*
X413156Y163517D01*
X413159Y163512D01*
X413249Y163438D01*
X413338Y163361D01*
X413344Y163359D01*
X413349Y163355D01*
X413457Y163313D01*
X413566Y163269D01*
X413574Y163268D01*
X413578Y163267D01*
X413596Y163266D01*
X413733Y163251D01*
X427732Y163251D01*
X427822Y163265D01*
X427913Y163273D01*
X427942Y163285D01*
X427974Y163290D01*
X428055Y163333D01*
X428139Y163369D01*
X428171Y163395D01*
X428192Y163406D01*
X428214Y163429D01*
X428270Y163474D01*
X485547Y220751D01*
X505232Y220751D01*
X505322Y220765D01*
X505413Y220773D01*
X505442Y220785D01*
X505474Y220790D01*
X505555Y220833D01*
X505639Y220869D01*
X505671Y220895D01*
X505692Y220906D01*
X505714Y220929D01*
X505770Y220974D01*
X511526Y226730D01*
X511579Y226804D01*
X511639Y226874D01*
X511651Y226904D01*
X511670Y226930D01*
X511697Y227017D01*
X511731Y227102D01*
X511735Y227143D01*
X511742Y227165D01*
X511741Y227197D01*
X511749Y227268D01*
X511749Y246267D01*
X511730Y246382D01*
X511713Y246498D01*
X511711Y246503D01*
X511710Y246510D01*
X511655Y246613D01*
X511602Y246717D01*
X511597Y246721D01*
X511594Y246727D01*
X511510Y246807D01*
X511426Y246889D01*
X511420Y246893D01*
X511416Y246896D01*
X511399Y246904D01*
X511306Y246956D01*
X509462Y248799D01*
X508467Y251201D01*
X508467Y253799D01*
X509462Y256201D01*
X511299Y258038D01*
X513701Y259033D01*
X516299Y259033D01*
X518701Y258038D01*
X520538Y256201D01*
X521533Y253799D01*
X521533Y251201D01*
X520538Y248799D01*
X518690Y246951D01*
X518622Y246909D01*
X518521Y246849D01*
X518517Y246844D01*
X518512Y246841D01*
X518437Y246751D01*
X518361Y246662D01*
X518359Y246656D01*
X518355Y246651D01*
X518313Y246543D01*
X518269Y246434D01*
X518268Y246426D01*
X518267Y246421D01*
X518266Y246403D01*
X518251Y246267D01*
X518251Y224686D01*
X518262Y224615D01*
X518264Y224543D01*
X518282Y224494D01*
X518290Y224443D01*
X518324Y224380D01*
X518349Y224312D01*
X518381Y224272D01*
X518406Y224226D01*
X518458Y224176D01*
X518502Y224120D01*
X518546Y224092D01*
X518584Y224056D01*
X518649Y224026D01*
X518709Y223987D01*
X518760Y223975D01*
X518807Y223953D01*
X518878Y223945D01*
X518948Y223927D01*
X519000Y223931D01*
X519051Y223926D01*
X519122Y223941D01*
X519193Y223946D01*
X519241Y223967D01*
X519292Y223978D01*
X519353Y224015D01*
X519419Y224043D01*
X519475Y224087D01*
X519503Y224104D01*
X519518Y224122D01*
X519550Y224147D01*
X526526Y231124D01*
X526579Y231197D01*
X526639Y231267D01*
X526651Y231297D01*
X526670Y231323D01*
X526697Y231410D01*
X526731Y231495D01*
X526735Y231536D01*
X526742Y231558D01*
X526741Y231591D01*
X526749Y231662D01*
X526749Y246267D01*
X526730Y246382D01*
X526713Y246498D01*
X526711Y246503D01*
X526710Y246510D01*
X526655Y246613D01*
X526602Y246717D01*
X526597Y246721D01*
X526594Y246727D01*
X526510Y246807D01*
X526426Y246889D01*
X526420Y246893D01*
X526416Y246896D01*
X526399Y246904D01*
X526306Y246956D01*
X524462Y248799D01*
X523467Y251201D01*
X523467Y253799D01*
X524462Y256201D01*
X526299Y258038D01*
X528701Y259033D01*
X531299Y259033D01*
X533701Y258038D01*
X535538Y256201D01*
X536533Y253799D01*
X536533Y251201D01*
X535538Y248799D01*
X533690Y246951D01*
X533622Y246909D01*
X533521Y246849D01*
X533517Y246844D01*
X533512Y246841D01*
X533437Y246751D01*
X533361Y246662D01*
X533359Y246656D01*
X533355Y246651D01*
X533313Y246543D01*
X533269Y246434D01*
X533268Y246426D01*
X533267Y246421D01*
X533266Y246403D01*
X533251Y246267D01*
X533251Y228653D01*
X511347Y206749D01*
X491662Y206749D01*
X491572Y206735D01*
X491481Y206727D01*
X491451Y206715D01*
X491419Y206710D01*
X491338Y206667D01*
X491255Y206631D01*
X491222Y206605D01*
X491202Y206594D01*
X491180Y206571D01*
X491124Y206526D01*
X428844Y144247D01*
X428802Y144189D01*
X428753Y144137D01*
X428731Y144089D01*
X428701Y144047D01*
X428680Y143979D01*
X428649Y143914D01*
X428644Y143862D01*
X428628Y143812D01*
X428630Y143740D01*
X428622Y143669D01*
X428633Y143618D01*
X428635Y143566D01*
X428659Y143499D01*
X428674Y143429D01*
X428701Y143384D01*
X428719Y143335D01*
X428764Y143279D01*
X428801Y143218D01*
X428840Y143184D01*
X428873Y143143D01*
X428933Y143104D01*
X428988Y143058D01*
X429036Y143038D01*
X429080Y143010D01*
X429149Y142993D01*
X429216Y142966D01*
X429287Y142958D01*
X429318Y142950D01*
X429342Y142952D01*
X429382Y142947D01*
X433254Y142947D01*
X433349Y142963D01*
X433444Y142972D01*
X433470Y142983D01*
X433497Y142987D01*
X433582Y143032D01*
X433669Y143071D01*
X433696Y143093D01*
X433714Y143102D01*
X433737Y143126D01*
X433799Y143177D01*
X441533Y151102D01*
X441583Y151173D01*
X441625Y151223D01*
X442684Y152281D01*
X442686Y152284D01*
X442690Y152288D01*
X443728Y153351D01*
X443763Y153378D01*
X443785Y153391D01*
X443806Y153414D01*
X443856Y153454D01*
X448902Y158500D01*
X451029Y160627D01*
X453891Y160627D01*
X454005Y160645D01*
X454122Y160663D01*
X454128Y160665D01*
X454134Y160666D01*
X454236Y160721D01*
X454341Y160774D01*
X454346Y160779D01*
X454351Y160782D01*
X454431Y160866D01*
X454513Y160950D01*
X454517Y160956D01*
X454520Y160960D01*
X454528Y160977D01*
X454580Y161070D01*
X456424Y162914D01*
X458825Y163909D01*
X461423Y163909D01*
X463825Y162914D01*
X465662Y161076D01*
X466657Y158675D01*
X466657Y156077D01*
X465662Y153675D01*
X463825Y151838D01*
X461423Y150843D01*
X458825Y150843D01*
X456424Y151838D01*
X454519Y153742D01*
X454508Y153760D01*
X454472Y153790D01*
X454444Y153826D01*
X454378Y153868D01*
X454319Y153917D01*
X454276Y153934D01*
X454237Y153959D01*
X454161Y153978D01*
X454089Y154005D01*
X454043Y154007D01*
X453998Y154019D01*
X453921Y154013D01*
X453843Y154016D01*
X453799Y154003D01*
X453753Y154000D01*
X453682Y153969D01*
X453607Y153948D01*
X453569Y153921D01*
X453527Y153903D01*
X453421Y153819D01*
X453405Y153808D01*
X453402Y153803D01*
X453396Y153798D01*
X447316Y147718D01*
X447313Y147715D01*
X447309Y147712D01*
X438412Y138595D01*
X438362Y138524D01*
X438319Y138474D01*
X437261Y137416D01*
X437259Y137413D01*
X437254Y137409D01*
X436315Y136446D01*
X434969Y136446D01*
X434966Y136445D01*
X434960Y136446D01*
X433475Y136428D01*
X433431Y136433D01*
X433406Y136440D01*
X433375Y136439D01*
X433312Y136446D01*
X431965Y136446D01*
X431875Y136431D01*
X431784Y136424D01*
X431754Y136411D01*
X431722Y136406D01*
X431642Y136363D01*
X431558Y136328D01*
X431526Y136302D01*
X431505Y136291D01*
X431483Y136268D01*
X431427Y136223D01*
X416580Y121376D01*
X414754Y119550D01*
X414712Y119492D01*
X414663Y119440D01*
X414641Y119393D01*
X414611Y119351D01*
X414589Y119282D01*
X414559Y119217D01*
X414554Y119165D01*
X414538Y119115D01*
X414540Y119044D01*
X414532Y118973D01*
X414543Y118922D01*
X414545Y118870D01*
X414569Y118802D01*
X414584Y118732D01*
X414611Y118687D01*
X414629Y118639D01*
X414674Y118583D01*
X414711Y118521D01*
X414750Y118487D01*
X414783Y118447D01*
X414843Y118408D01*
X414898Y118361D01*
X414946Y118342D01*
X414990Y118314D01*
X415059Y118296D01*
X415126Y118269D01*
X415197Y118261D01*
X415228Y118253D01*
X415251Y118255D01*
X415292Y118251D01*
X424551Y118251D01*
X424642Y118265D01*
X424732Y118273D01*
X424762Y118285D01*
X424794Y118290D01*
X424875Y118333D01*
X424959Y118369D01*
X424991Y118395D01*
X425012Y118406D01*
X425034Y118429D01*
X425090Y118474D01*
X429260Y122644D01*
X527732Y122644D01*
X527822Y122659D01*
X527913Y122666D01*
X527942Y122679D01*
X527974Y122684D01*
X528055Y122727D01*
X528139Y122762D01*
X528171Y122788D01*
X528192Y122799D01*
X528214Y122822D01*
X528270Y122867D01*
X611347Y205944D01*
X611400Y206018D01*
X611460Y206088D01*
X611472Y206118D01*
X611491Y206144D01*
X611517Y206231D01*
X611552Y206316D01*
X611556Y206357D01*
X611563Y206379D01*
X611562Y206411D01*
X611570Y206483D01*
X611570Y253588D01*
X611551Y253702D01*
X611534Y253819D01*
X611531Y253824D01*
X611530Y253830D01*
X611476Y253933D01*
X611423Y254038D01*
X611418Y254042D01*
X611415Y254048D01*
X611331Y254128D01*
X611247Y254210D01*
X611240Y254214D01*
X611237Y254217D01*
X611220Y254225D01*
X611126Y254276D01*
X609283Y256120D01*
X608288Y258521D01*
X608288Y261120D01*
X609283Y263521D01*
X611120Y265359D01*
X613521Y266353D01*
X616120Y266353D01*
X618521Y265359D01*
X620359Y263521D01*
X621353Y261120D01*
X621353Y258521D01*
X620359Y256120D01*
X618510Y254272D01*
X618443Y254230D01*
X618342Y254169D01*
X618338Y254165D01*
X618332Y254161D01*
X618258Y254072D01*
X618182Y253982D01*
X618180Y253977D01*
X618176Y253972D01*
X618134Y253863D01*
X618090Y253754D01*
X618089Y253747D01*
X618087Y253742D01*
X618087Y253724D01*
X618071Y253588D01*
X618071Y203900D01*
X618083Y203829D01*
X618085Y203757D01*
X618103Y203708D01*
X618111Y203657D01*
X618145Y203594D01*
X618169Y203526D01*
X618202Y203486D01*
X618226Y203440D01*
X618278Y203390D01*
X618323Y203334D01*
X618367Y203306D01*
X618405Y203270D01*
X618470Y203240D01*
X618530Y203201D01*
X618581Y203189D01*
X618628Y203167D01*
X618699Y203159D01*
X618768Y203141D01*
X618820Y203145D01*
X618872Y203140D01*
X618942Y203155D01*
X619014Y203160D01*
X619062Y203181D01*
X619113Y203192D01*
X619174Y203229D01*
X619240Y203257D01*
X619296Y203301D01*
X619324Y203318D01*
X619339Y203336D01*
X619371Y203362D01*
X626526Y210517D01*
X626579Y210591D01*
X626639Y210660D01*
X626651Y210690D01*
X626670Y210717D01*
X626697Y210804D01*
X626731Y210888D01*
X626735Y210929D01*
X626742Y210952D01*
X626741Y210984D01*
X626749Y211055D01*
X626749Y253767D01*
X626731Y253881D01*
X626713Y253998D01*
X626711Y254004D01*
X626710Y254010D01*
X626655Y254112D01*
X626602Y254217D01*
X626597Y254222D01*
X626594Y254227D01*
X626510Y254307D01*
X626426Y254389D01*
X626420Y254393D01*
X626416Y254396D01*
X626399Y254404D01*
X626306Y254456D01*
X624462Y256299D01*
X623467Y258701D01*
X623467Y261299D01*
X624462Y263701D01*
X626299Y265538D01*
X628701Y266533D01*
X631299Y266533D01*
X633701Y265538D01*
X635538Y263701D01*
X636533Y261299D01*
X636533Y258701D01*
X635538Y256299D01*
X633690Y254451D01*
X633622Y254409D01*
X633521Y254349D01*
X633517Y254344D01*
X633512Y254341D01*
X633438Y254251D01*
X633361Y254162D01*
X633359Y254156D01*
X633355Y254151D01*
X633313Y254043D01*
X633269Y253934D01*
X633268Y253926D01*
X633267Y253922D01*
X633266Y253904D01*
X633251Y253767D01*
X633251Y229686D01*
X633262Y229615D01*
X633264Y229543D01*
X633282Y229494D01*
X633290Y229443D01*
X633324Y229380D01*
X633349Y229312D01*
X633381Y229272D01*
X633406Y229226D01*
X633458Y229176D01*
X633502Y229120D01*
X633546Y229092D01*
X633584Y229056D01*
X633649Y229026D01*
X633709Y228987D01*
X633760Y228975D01*
X633807Y228953D01*
X633878Y228945D01*
X633948Y228927D01*
X634000Y228931D01*
X634051Y228926D01*
X634122Y228941D01*
X634193Y228946D01*
X634241Y228967D01*
X634292Y228978D01*
X634353Y229015D01*
X634419Y229043D01*
X634475Y229087D01*
X634503Y229104D01*
X634518Y229122D01*
X634550Y229147D01*
X636376Y230974D01*
X646526Y241124D01*
X646579Y241197D01*
X646639Y241267D01*
X646651Y241297D01*
X646670Y241323D01*
X646697Y241410D01*
X646731Y241495D01*
X646735Y241536D01*
X646742Y241558D01*
X646741Y241591D01*
X646749Y241662D01*
X646749Y268338D01*
X646735Y268428D01*
X646727Y268519D01*
X646715Y268549D01*
X646710Y268581D01*
X646667Y268662D01*
X646631Y268745D01*
X646605Y268778D01*
X646594Y268798D01*
X646571Y268820D01*
X646526Y268876D01*
X628876Y286526D01*
X628803Y286579D01*
X628733Y286639D01*
X628703Y286651D01*
X628677Y286670D01*
X628590Y286697D01*
X628505Y286731D01*
X628464Y286735D01*
X628442Y286742D01*
X628409Y286741D01*
X628338Y286749D01*
X461662Y286749D01*
X461572Y286735D01*
X461481Y286727D01*
X461451Y286715D01*
X461419Y286710D01*
X461338Y286667D01*
X461255Y286631D01*
X461222Y286605D01*
X461202Y286594D01*
X461180Y286571D01*
X461124Y286526D01*
X451706Y277109D01*
X451638Y277014D01*
X451568Y276920D01*
X451566Y276914D01*
X451563Y276909D01*
X451528Y276797D01*
X451492Y276686D01*
X451492Y276680D01*
X451490Y276674D01*
X451493Y276556D01*
X451494Y276440D01*
X451496Y276433D01*
X451497Y276428D01*
X451503Y276411D01*
X451533Y276308D01*
X451533Y273701D01*
X450538Y271299D01*
X448701Y269462D01*
X446299Y268467D01*
X443701Y268467D01*
X441299Y269462D01*
X439462Y271299D01*
X438467Y273701D01*
X438467Y276299D01*
X439462Y278701D01*
X441299Y280538D01*
X443701Y281533D01*
X446315Y281533D01*
X446393Y281514D01*
X446506Y281486D01*
X446513Y281486D01*
X446519Y281485D01*
X446636Y281496D01*
X446752Y281505D01*
X446757Y281507D01*
X446764Y281508D01*
X446872Y281556D01*
X446978Y281601D01*
X446984Y281606D01*
X446988Y281608D01*
X447002Y281621D01*
X447109Y281706D01*
X458653Y293251D01*
X631347Y293251D01*
X653251Y271347D01*
X653251Y238653D01*
X640974Y226376D01*
X640921Y226303D01*
X640861Y226233D01*
X640849Y226203D01*
X640830Y226177D01*
X640803Y226090D01*
X640769Y226005D01*
X640765Y225964D01*
X640758Y225942D01*
X640759Y225909D01*
X640751Y225838D01*
X640751Y204940D01*
X622158Y186347D01*
X622157Y186347D01*
X536953Y101143D01*
X438555Y101143D01*
X438465Y101128D01*
X438374Y101121D01*
X438344Y101108D01*
X438312Y101103D01*
X438232Y101060D01*
X438148Y101024D01*
X438116Y100999D01*
X438095Y100988D01*
X438073Y100964D01*
X438017Y100920D01*
X433847Y96749D01*
X424686Y96749D01*
X424615Y96738D01*
X424543Y96736D01*
X424494Y96718D01*
X424443Y96710D01*
X424380Y96676D01*
X424312Y96651D01*
X424272Y96619D01*
X424226Y96594D01*
X424176Y96543D01*
X424120Y96498D01*
X424092Y96454D01*
X424056Y96416D01*
X424026Y96351D01*
X423987Y96291D01*
X423975Y96240D01*
X423953Y96193D01*
X423945Y96122D01*
X423927Y96052D01*
X423931Y96000D01*
X423926Y95949D01*
X423941Y95878D01*
X423946Y95807D01*
X423967Y95759D01*
X423978Y95708D01*
X424015Y95647D01*
X424043Y95581D01*
X424087Y95525D01*
X424104Y95497D01*
X424122Y95482D01*
X424147Y95450D01*
X425391Y94206D01*
X425485Y94138D01*
X425580Y94068D01*
X425586Y94066D01*
X425591Y94063D01*
X425702Y94028D01*
X425814Y93992D01*
X425820Y93992D01*
X425826Y93990D01*
X425943Y93993D01*
X426060Y93994D01*
X426067Y93996D01*
X426072Y93997D01*
X426089Y94003D01*
X426192Y94033D01*
X428799Y94033D01*
X431201Y93038D01*
X433038Y91201D01*
X434033Y88799D01*
X434033Y86201D01*
X433038Y83799D01*
X431201Y81962D01*
X428799Y80967D01*
X426201Y80967D01*
X423799Y81962D01*
X421962Y83799D01*
X420967Y86201D01*
X420967Y88488D01*
X420964Y88508D01*
X420966Y88527D01*
X420944Y88629D01*
X420928Y88731D01*
X420918Y88748D01*
X420914Y88768D01*
X420861Y88857D01*
X420812Y88948D01*
X420798Y88962D01*
X420788Y88979D01*
X420709Y89046D01*
X420634Y89118D01*
X420616Y89126D01*
X420601Y89139D01*
X420505Y89178D01*
X420411Y89221D01*
X420391Y89223D01*
X420373Y89231D01*
X420206Y89249D01*
X143120Y89249D01*
X140993Y91376D01*
X38638Y193731D01*
X38580Y193773D01*
X38528Y193823D01*
X38481Y193845D01*
X38439Y193875D01*
X38370Y193896D01*
X38305Y193926D01*
X38253Y193932D01*
X38203Y193947D01*
X38132Y193945D01*
X38061Y193953D01*
X38010Y193942D01*
X37958Y193941D01*
X37890Y193916D01*
X37820Y193901D01*
X37776Y193874D01*
X37727Y193856D01*
X37671Y193812D01*
X37609Y193775D01*
X37575Y193735D01*
X37535Y193703D01*
X37496Y193642D01*
X37449Y193588D01*
X37430Y193540D01*
X37402Y193496D01*
X37384Y193426D01*
X37357Y193360D01*
X37349Y193288D01*
X37341Y193257D01*
X37343Y193234D01*
X37339Y193193D01*
X37339Y82732D01*
X37357Y82621D01*
X37373Y82507D01*
X37377Y82499D01*
X37379Y82490D01*
X37432Y82389D01*
X37482Y82287D01*
X37489Y82281D01*
X37494Y82272D01*
X37576Y82194D01*
X37657Y82114D01*
X37665Y82109D01*
X37672Y82103D01*
X37775Y82055D01*
X37877Y82004D01*
X37886Y82003D01*
X37895Y81999D01*
X38008Y81987D01*
X38121Y81971D01*
X38132Y81973D01*
X38139Y81972D01*
X38163Y81977D01*
X38287Y81994D01*
X48011Y84457D01*
X59091Y83539D01*
X69272Y79073D01*
X77451Y71543D01*
X82742Y61766D01*
X84572Y50800D01*
X82742Y39834D01*
X82000Y38462D01*
X81972Y38382D01*
X81936Y38305D01*
X81932Y38267D01*
X81919Y38230D01*
X81919Y38145D01*
X81909Y38061D01*
X81917Y38023D01*
X81917Y37984D01*
X81943Y37903D01*
X81961Y37820D01*
X81981Y37787D01*
X81993Y37750D01*
X82044Y37682D01*
X82088Y37609D01*
X82117Y37584D01*
X82140Y37553D01*
X82210Y37504D01*
X82275Y37449D01*
X82311Y37435D01*
X82342Y37413D01*
X82424Y37389D01*
X82503Y37357D01*
X82553Y37352D01*
X82579Y37344D01*
X82609Y37345D01*
X82669Y37339D01*
X599371Y37339D01*
X599441Y37350D01*
G37*
G36*
X843882Y393270D02*
X843882Y393270D01*
X843998Y393287D01*
X844003Y393289D01*
X844010Y393290D01*
X844113Y393345D01*
X844217Y393398D01*
X844221Y393403D01*
X844227Y393406D01*
X844307Y393490D01*
X844389Y393574D01*
X844393Y393580D01*
X844396Y393584D01*
X844404Y393601D01*
X844456Y393694D01*
X846299Y395538D01*
X847691Y396115D01*
X847791Y396177D01*
X847891Y396236D01*
X847895Y396241D01*
X847900Y396244D01*
X847975Y396335D01*
X848051Y396423D01*
X848053Y396429D01*
X848057Y396434D01*
X848099Y396542D01*
X848143Y396651D01*
X848144Y396659D01*
X848145Y396663D01*
X848146Y396682D01*
X848161Y396818D01*
X848161Y731380D01*
X848153Y731433D01*
X848154Y731487D01*
X848133Y731554D01*
X848122Y731623D01*
X848096Y731670D01*
X848080Y731722D01*
X848039Y731778D01*
X848006Y731840D01*
X847968Y731877D01*
X847936Y731921D01*
X847879Y731961D01*
X847828Y732010D01*
X847779Y732032D01*
X847736Y732063D01*
X847669Y732084D01*
X847605Y732113D01*
X847552Y732119D01*
X847500Y732135D01*
X847430Y732133D01*
X847361Y732140D01*
X847308Y732129D01*
X847254Y732127D01*
X847149Y732094D01*
X847120Y732088D01*
X847111Y732082D01*
X847094Y732077D01*
X839991Y728961D01*
X828911Y728043D01*
X818134Y730772D01*
X808827Y736853D01*
X801998Y745626D01*
X798388Y756141D01*
X798388Y767259D01*
X800584Y773653D01*
X800587Y773675D01*
X800597Y773695D01*
X800608Y773795D01*
X800625Y773895D01*
X800621Y773917D01*
X800624Y773939D01*
X800602Y774038D01*
X800587Y774138D01*
X800576Y774158D01*
X800571Y774180D01*
X800520Y774267D01*
X800473Y774356D01*
X800457Y774372D01*
X800445Y774391D01*
X800368Y774457D01*
X800295Y774527D01*
X800275Y774536D01*
X800258Y774551D01*
X800164Y774589D01*
X800073Y774632D01*
X800051Y774634D01*
X800030Y774643D01*
X799864Y774661D01*
X623024Y774661D01*
X622953Y774650D01*
X622881Y774648D01*
X622832Y774630D01*
X622781Y774622D01*
X622718Y774588D01*
X622650Y774563D01*
X622610Y774531D01*
X622564Y774506D01*
X622514Y774455D01*
X622458Y774410D01*
X622430Y774366D01*
X622394Y774328D01*
X622364Y774263D01*
X622325Y774203D01*
X622313Y774152D01*
X622291Y774105D01*
X622283Y774034D01*
X622265Y773964D01*
X622269Y773912D01*
X622264Y773861D01*
X622279Y773790D01*
X622284Y773719D01*
X622305Y773671D01*
X622316Y773620D01*
X622353Y773559D01*
X622381Y773493D01*
X622425Y773437D01*
X622442Y773409D01*
X622460Y773394D01*
X622486Y773362D01*
X752626Y643222D01*
X752626Y624787D01*
X752640Y624697D01*
X752648Y624606D01*
X752660Y624576D01*
X752665Y624544D01*
X752708Y624463D01*
X752744Y624380D01*
X752770Y624347D01*
X752781Y624327D01*
X752804Y624305D01*
X752849Y624249D01*
X773251Y603847D01*
X773251Y536233D01*
X773269Y536119D01*
X773287Y536002D01*
X773289Y535996D01*
X773290Y535990D01*
X773345Y535888D01*
X773398Y535783D01*
X773403Y535778D01*
X773406Y535773D01*
X773490Y535693D01*
X773574Y535611D01*
X773580Y535607D01*
X773584Y535604D01*
X773601Y535596D01*
X773694Y535544D01*
X775538Y533701D01*
X776533Y531299D01*
X776533Y528701D01*
X775538Y526299D01*
X773690Y524451D01*
X773622Y524409D01*
X773600Y524396D01*
X773578Y524384D01*
X773574Y524380D01*
X773521Y524349D01*
X773517Y524344D01*
X773512Y524341D01*
X773438Y524251D01*
X773361Y524162D01*
X773359Y524156D01*
X773355Y524151D01*
X773313Y524043D01*
X773269Y523934D01*
X773268Y523926D01*
X773267Y523922D01*
X773266Y523904D01*
X773251Y523767D01*
X773251Y519787D01*
X773265Y519697D01*
X773273Y519606D01*
X773285Y519576D01*
X773290Y519544D01*
X773333Y519463D01*
X773369Y519380D01*
X773395Y519347D01*
X773406Y519327D01*
X773429Y519305D01*
X773474Y519249D01*
X843251Y449472D01*
X843251Y403339D01*
X843261Y403274D01*
X843262Y403209D01*
X843285Y403129D01*
X843290Y403096D01*
X843300Y403079D01*
X843309Y403047D01*
X844033Y401299D01*
X844033Y398701D01*
X843038Y396299D01*
X841289Y394550D01*
X841247Y394492D01*
X841198Y394440D01*
X841176Y394393D01*
X841145Y394351D01*
X841124Y394282D01*
X841094Y394217D01*
X841088Y394165D01*
X841073Y394115D01*
X841075Y394044D01*
X841067Y393973D01*
X841078Y393922D01*
X841079Y393870D01*
X841104Y393802D01*
X841119Y393732D01*
X841146Y393687D01*
X841164Y393639D01*
X841209Y393583D01*
X841245Y393521D01*
X841285Y393487D01*
X841318Y393447D01*
X841378Y393408D01*
X841432Y393361D01*
X841481Y393342D01*
X841524Y393314D01*
X841594Y393296D01*
X841660Y393269D01*
X841732Y393261D01*
X841763Y393253D01*
X841786Y393255D01*
X841827Y393251D01*
X843767Y393251D01*
X843882Y393270D01*
G37*
G36*
X158428Y233265D02*
X158428Y233265D01*
X158519Y233273D01*
X158549Y233285D01*
X158581Y233290D01*
X158662Y233333D01*
X158745Y233369D01*
X158778Y233395D01*
X158798Y233406D01*
X158820Y233429D01*
X158876Y233474D01*
X169026Y243624D01*
X169079Y243697D01*
X169139Y243767D01*
X169151Y243797D01*
X169170Y243823D01*
X169197Y243910D01*
X169231Y243995D01*
X169235Y244036D01*
X169242Y244058D01*
X169241Y244091D01*
X169249Y244162D01*
X169249Y251267D01*
X169247Y251280D01*
X169248Y251289D01*
X169237Y251339D01*
X169231Y251381D01*
X169213Y251498D01*
X169211Y251504D01*
X169210Y251510D01*
X169155Y251612D01*
X169102Y251717D01*
X169097Y251722D01*
X169094Y251727D01*
X169010Y251807D01*
X168926Y251889D01*
X168920Y251893D01*
X168916Y251896D01*
X168899Y251904D01*
X168806Y251956D01*
X166962Y253799D01*
X165967Y256201D01*
X165967Y258799D01*
X166962Y261201D01*
X168799Y263038D01*
X171201Y264033D01*
X173799Y264033D01*
X176201Y263038D01*
X178038Y261201D01*
X178410Y260304D01*
X178461Y260220D01*
X178507Y260135D01*
X178525Y260117D01*
X178539Y260094D01*
X178615Y260032D01*
X178685Y259965D01*
X178709Y259954D01*
X178729Y259938D01*
X178820Y259903D01*
X178908Y259862D01*
X178934Y259859D01*
X178958Y259849D01*
X179056Y259845D01*
X179152Y259835D01*
X179178Y259840D01*
X179204Y259839D01*
X179298Y259866D01*
X179393Y259887D01*
X179415Y259900D01*
X179440Y259908D01*
X179520Y259963D01*
X179604Y260013D01*
X179621Y260033D01*
X179642Y260048D01*
X179701Y260126D01*
X179764Y260200D01*
X179774Y260224D01*
X179789Y260245D01*
X179819Y260338D01*
X179856Y260428D01*
X179859Y260461D01*
X179865Y260479D01*
X179865Y260512D01*
X179874Y260595D01*
X179874Y261463D01*
X179860Y261553D01*
X179852Y261644D01*
X179840Y261674D01*
X179835Y261706D01*
X179792Y261787D01*
X179756Y261870D01*
X179730Y261903D01*
X179719Y261923D01*
X179696Y261945D01*
X179651Y262001D01*
X168876Y272776D01*
X168803Y272829D01*
X168733Y272889D01*
X168703Y272901D01*
X168677Y272920D01*
X168590Y272947D01*
X168505Y272981D01*
X168464Y272985D01*
X168442Y272992D01*
X168409Y272991D01*
X168338Y272999D01*
X125528Y272999D01*
X74874Y323653D01*
X74874Y470722D01*
X90169Y486016D01*
X90237Y486110D01*
X90307Y486205D01*
X90309Y486211D01*
X90312Y486216D01*
X90347Y486327D01*
X90383Y486439D01*
X90383Y486445D01*
X90385Y486451D01*
X90382Y486568D01*
X90381Y486685D01*
X90379Y486692D01*
X90378Y486697D01*
X90372Y486714D01*
X90342Y486817D01*
X90342Y489424D01*
X91337Y491826D01*
X93174Y493663D01*
X95576Y494658D01*
X98174Y494658D01*
X100706Y493609D01*
X100801Y493587D01*
X100894Y493558D01*
X100920Y493559D01*
X100945Y493553D01*
X101042Y493562D01*
X101140Y493565D01*
X101164Y493574D01*
X101190Y493576D01*
X101279Y493616D01*
X101371Y493649D01*
X101391Y493665D01*
X101415Y493676D01*
X101487Y493742D01*
X101563Y493803D01*
X101577Y493825D01*
X101596Y493842D01*
X101643Y493928D01*
X101696Y494010D01*
X101702Y494035D01*
X101715Y494058D01*
X101732Y494154D01*
X101756Y494248D01*
X101754Y494274D01*
X101759Y494300D01*
X101744Y494397D01*
X101737Y494493D01*
X101727Y494517D01*
X101723Y494543D01*
X101678Y494630D01*
X101640Y494720D01*
X101620Y494745D01*
X101611Y494763D01*
X101588Y494786D01*
X101536Y494851D01*
X100712Y495674D01*
X99717Y498076D01*
X99717Y500674D01*
X100712Y503076D01*
X102560Y504924D01*
X102628Y504966D01*
X102729Y505026D01*
X102733Y505031D01*
X102738Y505034D01*
X102813Y505124D01*
X102889Y505213D01*
X102891Y505219D01*
X102895Y505224D01*
X102937Y505332D01*
X102981Y505441D01*
X102982Y505449D01*
X102983Y505454D01*
X102984Y505472D01*
X102999Y505608D01*
X102999Y525097D01*
X260528Y682626D01*
X265838Y682626D01*
X265928Y682640D01*
X266019Y682648D01*
X266049Y682660D01*
X266081Y682665D01*
X266162Y682708D01*
X266245Y682744D01*
X266278Y682770D01*
X266298Y682781D01*
X266320Y682804D01*
X266376Y682849D01*
X284903Y701376D01*
X385642Y701376D01*
X385757Y701395D01*
X385873Y701412D01*
X385878Y701414D01*
X385885Y701415D01*
X385988Y701470D01*
X386092Y701523D01*
X386096Y701528D01*
X386102Y701531D01*
X386182Y701615D01*
X386264Y701699D01*
X386268Y701705D01*
X386271Y701709D01*
X386279Y701726D01*
X386331Y701819D01*
X388174Y703663D01*
X390399Y704585D01*
X390482Y704636D01*
X390568Y704682D01*
X390586Y704701D01*
X390608Y704714D01*
X390670Y704789D01*
X390737Y704860D01*
X390748Y704884D01*
X390765Y704904D01*
X390800Y704995D01*
X390841Y705083D01*
X390844Y705109D01*
X390853Y705133D01*
X390857Y705231D01*
X390868Y705327D01*
X390863Y705353D01*
X390864Y705379D01*
X390837Y705473D01*
X390816Y705568D01*
X390803Y705590D01*
X390795Y705615D01*
X390740Y705695D01*
X390690Y705779D01*
X390670Y705796D01*
X390655Y705817D01*
X390577Y705876D01*
X390503Y705939D01*
X390479Y705949D01*
X390458Y705964D01*
X390365Y705994D01*
X390275Y706031D01*
X390242Y706034D01*
X390224Y706040D01*
X390191Y706040D01*
X390108Y706049D01*
X287262Y706049D01*
X287172Y706035D01*
X287081Y706027D01*
X287051Y706015D01*
X287019Y706010D01*
X286938Y705967D01*
X286854Y705931D01*
X286822Y705905D01*
X286802Y705894D01*
X286779Y705871D01*
X286724Y705826D01*
X283582Y702684D01*
X281455Y700557D01*
X276997Y700557D01*
X276882Y700538D01*
X276766Y700521D01*
X276761Y700519D01*
X276754Y700518D01*
X276651Y700463D01*
X276547Y700410D01*
X276543Y700405D01*
X276537Y700402D01*
X276457Y700318D01*
X276375Y700234D01*
X276371Y700228D01*
X276368Y700224D01*
X276360Y700207D01*
X276308Y700114D01*
X274465Y698270D01*
X272063Y697275D01*
X270328Y697275D01*
X270238Y697261D01*
X270147Y697253D01*
X270117Y697241D01*
X270085Y697236D01*
X270004Y697193D01*
X269921Y697157D01*
X269888Y697131D01*
X269868Y697120D01*
X269846Y697097D01*
X269790Y697052D01*
X219640Y646902D01*
X217513Y644775D01*
X133716Y644775D01*
X130657Y647834D01*
X130583Y647887D01*
X130513Y647947D01*
X130483Y647959D01*
X130457Y647978D01*
X130370Y648005D01*
X130285Y648039D01*
X130244Y648043D01*
X130222Y648050D01*
X130190Y648049D01*
X130118Y648057D01*
X107216Y648057D01*
X107126Y648043D01*
X107035Y648035D01*
X107005Y648023D01*
X106973Y648018D01*
X106893Y647975D01*
X106809Y647939D01*
X106777Y647913D01*
X106756Y647902D01*
X106734Y647879D01*
X106678Y647834D01*
X65974Y607130D01*
X65921Y607056D01*
X65861Y606987D01*
X65849Y606957D01*
X65830Y606930D01*
X65803Y606843D01*
X65769Y606759D01*
X65765Y606718D01*
X65758Y606695D01*
X65759Y606663D01*
X65751Y606592D01*
X65751Y244162D01*
X65765Y244072D01*
X65773Y243981D01*
X65785Y243951D01*
X65790Y243919D01*
X65833Y243838D01*
X65869Y243755D01*
X65895Y243722D01*
X65906Y243702D01*
X65929Y243680D01*
X65974Y243624D01*
X76124Y233474D01*
X76197Y233421D01*
X76267Y233361D01*
X76297Y233349D01*
X76323Y233330D01*
X76410Y233303D01*
X76495Y233269D01*
X76536Y233265D01*
X76558Y233258D01*
X76591Y233259D01*
X76662Y233251D01*
X158338Y233251D01*
X158428Y233265D01*
G37*
G36*
X103283Y483585D02*
X103283Y483585D01*
X103380Y483593D01*
X103404Y483603D01*
X103430Y483607D01*
X103517Y483651D01*
X103606Y483689D01*
X103632Y483710D01*
X103649Y483719D01*
X103672Y483742D01*
X103737Y483794D01*
X156067Y536124D01*
X158194Y538251D01*
X165838Y538251D01*
X165928Y538265D01*
X166019Y538273D01*
X166049Y538285D01*
X166081Y538290D01*
X166162Y538333D01*
X166245Y538369D01*
X166278Y538395D01*
X166298Y538406D01*
X166320Y538429D01*
X166376Y538474D01*
X170590Y542688D01*
X170643Y542761D01*
X170703Y542831D01*
X170715Y542861D01*
X170734Y542887D01*
X170761Y542974D01*
X170795Y543059D01*
X170799Y543100D01*
X170806Y543122D01*
X170805Y543155D01*
X170813Y543226D01*
X170813Y543767D01*
X170795Y543881D01*
X170777Y543998D01*
X170775Y544004D01*
X170774Y544010D01*
X170719Y544112D01*
X170666Y544217D01*
X170661Y544222D01*
X170658Y544227D01*
X170574Y544307D01*
X170490Y544389D01*
X170484Y544393D01*
X170480Y544396D01*
X170463Y544404D01*
X170370Y544456D01*
X168526Y546299D01*
X167735Y548208D01*
X167697Y548269D01*
X167668Y548334D01*
X167633Y548373D01*
X167606Y548417D01*
X167550Y548463D01*
X167502Y548516D01*
X167456Y548541D01*
X167416Y548574D01*
X167349Y548600D01*
X167286Y548634D01*
X167235Y548643D01*
X167187Y548662D01*
X167115Y548665D01*
X167044Y548678D01*
X166993Y548670D01*
X166941Y548672D01*
X166872Y548652D01*
X166801Y548642D01*
X166755Y548618D01*
X166705Y548604D01*
X166646Y548563D01*
X166582Y548531D01*
X166545Y548493D01*
X166503Y548464D01*
X166460Y548406D01*
X166410Y548355D01*
X166375Y548292D01*
X166356Y548266D01*
X166349Y548244D01*
X166329Y548208D01*
X165538Y546299D01*
X163701Y544462D01*
X161299Y543467D01*
X158701Y543467D01*
X156299Y544462D01*
X154462Y546299D01*
X153467Y548701D01*
X153467Y551299D01*
X154462Y553701D01*
X156299Y555538D01*
X158701Y556533D01*
X160436Y556533D01*
X160526Y556547D01*
X160617Y556555D01*
X160647Y556567D01*
X160679Y556572D01*
X160760Y556615D01*
X160843Y556651D01*
X160876Y556677D01*
X160896Y556688D01*
X160918Y556711D01*
X160974Y556756D01*
X237469Y633251D01*
X468338Y633251D01*
X468428Y633265D01*
X468519Y633273D01*
X468549Y633285D01*
X468581Y633290D01*
X468662Y633333D01*
X468745Y633369D01*
X468778Y633395D01*
X468798Y633406D01*
X468820Y633429D01*
X468876Y633474D01*
X473294Y637891D01*
X473362Y637986D01*
X473432Y638080D01*
X473434Y638086D01*
X473437Y638091D01*
X473472Y638203D01*
X473508Y638314D01*
X473508Y638320D01*
X473510Y638326D01*
X473507Y638443D01*
X473506Y638560D01*
X473504Y638567D01*
X473503Y638572D01*
X473497Y638589D01*
X473467Y638692D01*
X473467Y641299D01*
X473820Y642152D01*
X473843Y642247D01*
X473871Y642340D01*
X473871Y642366D01*
X473877Y642391D01*
X473867Y642488D01*
X473865Y642586D01*
X473856Y642610D01*
X473853Y642636D01*
X473814Y642725D01*
X473780Y642817D01*
X473764Y642837D01*
X473753Y642861D01*
X473688Y642933D01*
X473627Y643009D01*
X473605Y643023D01*
X473587Y643042D01*
X473502Y643089D01*
X473420Y643142D01*
X473395Y643148D01*
X473372Y643161D01*
X473276Y643178D01*
X473181Y643202D01*
X473155Y643200D01*
X473130Y643204D01*
X473033Y643190D01*
X472936Y643183D01*
X472912Y643173D01*
X472886Y643169D01*
X472799Y643124D01*
X472710Y643086D01*
X472684Y643066D01*
X472667Y643057D01*
X472644Y643034D01*
X472579Y642982D01*
X470830Y641232D01*
X468703Y639105D01*
X466233Y639105D01*
X466119Y639087D01*
X466002Y639069D01*
X465996Y639067D01*
X465990Y639066D01*
X465888Y639011D01*
X465783Y638958D01*
X465778Y638953D01*
X465773Y638950D01*
X465693Y638866D01*
X465611Y638782D01*
X465607Y638776D01*
X465604Y638772D01*
X465596Y638755D01*
X465544Y638662D01*
X463701Y636818D01*
X461299Y635823D01*
X458701Y635823D01*
X456299Y636818D01*
X454462Y638655D01*
X453467Y641057D01*
X453467Y643655D01*
X454462Y646057D01*
X456299Y647894D01*
X458701Y648889D01*
X461299Y648889D01*
X463701Y647894D01*
X465460Y646134D01*
X465477Y646123D01*
X465489Y646107D01*
X465576Y646051D01*
X465660Y645991D01*
X465679Y645985D01*
X465696Y645974D01*
X465796Y645949D01*
X465895Y645918D01*
X465915Y645919D01*
X465934Y645914D01*
X466037Y645922D01*
X466141Y645925D01*
X466160Y645932D01*
X466180Y645933D01*
X466275Y645973D01*
X466372Y646009D01*
X466388Y646022D01*
X466406Y646029D01*
X466537Y646134D01*
X493876Y673474D01*
X495703Y675300D01*
X495744Y675358D01*
X495794Y675410D01*
X495816Y675457D01*
X495846Y675499D01*
X495867Y675568D01*
X495897Y675633D01*
X495903Y675685D01*
X495918Y675735D01*
X495917Y675806D01*
X495924Y675877D01*
X495913Y675928D01*
X495912Y675980D01*
X495887Y676048D01*
X495872Y676118D01*
X495845Y676163D01*
X495828Y676211D01*
X495783Y676267D01*
X495746Y676329D01*
X495706Y676363D01*
X495674Y676403D01*
X495614Y676442D01*
X495559Y676489D01*
X495511Y676508D01*
X495467Y676536D01*
X495398Y676554D01*
X495331Y676581D01*
X495260Y676589D01*
X495228Y676597D01*
X495205Y676595D01*
X495164Y676599D01*
X431512Y676599D01*
X431422Y676585D01*
X431331Y676577D01*
X431301Y676565D01*
X431269Y676560D01*
X431188Y676517D01*
X431105Y676481D01*
X431072Y676455D01*
X431052Y676444D01*
X431030Y676421D01*
X430974Y676376D01*
X406706Y652109D01*
X406638Y652015D01*
X406568Y651920D01*
X406566Y651914D01*
X406563Y651909D01*
X406528Y651798D01*
X406492Y651686D01*
X406492Y651680D01*
X406490Y651674D01*
X406493Y651557D01*
X406494Y651440D01*
X406496Y651433D01*
X406497Y651428D01*
X406503Y651411D01*
X406533Y651308D01*
X406533Y648701D01*
X405538Y646299D01*
X403701Y644462D01*
X401299Y643467D01*
X398701Y643467D01*
X396299Y644462D01*
X394462Y646299D01*
X393467Y648701D01*
X393467Y651299D01*
X394462Y653701D01*
X396299Y655538D01*
X398701Y656533D01*
X401315Y656533D01*
X401392Y656515D01*
X401506Y656486D01*
X401513Y656486D01*
X401519Y656485D01*
X401635Y656496D01*
X401752Y656505D01*
X401757Y656507D01*
X401764Y656508D01*
X401871Y656556D01*
X401978Y656601D01*
X401984Y656606D01*
X401988Y656608D01*
X402002Y656621D01*
X402109Y656706D01*
X426376Y680974D01*
X428503Y683101D01*
X437318Y683101D01*
X437389Y683112D01*
X437460Y683114D01*
X437509Y683132D01*
X437561Y683140D01*
X437624Y683174D01*
X437691Y683199D01*
X437732Y683231D01*
X437778Y683256D01*
X437827Y683308D01*
X437883Y683352D01*
X437912Y683396D01*
X437947Y683434D01*
X437978Y683499D01*
X438016Y683559D01*
X438029Y683610D01*
X438051Y683657D01*
X438059Y683728D01*
X438076Y683798D01*
X438072Y683850D01*
X438078Y683901D01*
X438063Y683972D01*
X438057Y684043D01*
X438037Y684091D01*
X438026Y684142D01*
X437989Y684203D01*
X437961Y684269D01*
X437916Y684325D01*
X437900Y684353D01*
X437882Y684368D01*
X437856Y684400D01*
X436030Y686226D01*
X416430Y705826D01*
X416356Y705879D01*
X416287Y705939D01*
X416257Y705951D01*
X416230Y705970D01*
X416143Y705997D01*
X416059Y706031D01*
X416018Y706035D01*
X415995Y706042D01*
X415963Y706041D01*
X415892Y706049D01*
X413642Y706049D01*
X413546Y706034D01*
X413449Y706024D01*
X413425Y706014D01*
X413399Y706010D01*
X413313Y705964D01*
X413224Y705924D01*
X413205Y705907D01*
X413182Y705894D01*
X413115Y705824D01*
X413043Y705758D01*
X413031Y705735D01*
X413012Y705716D01*
X412971Y705628D01*
X412925Y705542D01*
X412920Y705517D01*
X412909Y705493D01*
X412898Y705396D01*
X412881Y705300D01*
X412885Y705274D01*
X412882Y705249D01*
X412902Y705153D01*
X412917Y705057D01*
X412928Y705034D01*
X412934Y705008D01*
X412984Y704925D01*
X413028Y704838D01*
X413047Y704819D01*
X413060Y704797D01*
X413134Y704734D01*
X413204Y704666D01*
X413232Y704650D01*
X413247Y704637D01*
X413278Y704625D01*
X413351Y704585D01*
X415576Y703663D01*
X417413Y701826D01*
X418408Y699424D01*
X418408Y696826D01*
X417413Y694424D01*
X415576Y692587D01*
X413174Y691592D01*
X410560Y691592D01*
X410483Y691610D01*
X410369Y691639D01*
X410362Y691639D01*
X410356Y691640D01*
X410240Y691629D01*
X410123Y691620D01*
X410118Y691618D01*
X410111Y691617D01*
X410004Y691569D01*
X409897Y691524D01*
X409891Y691519D01*
X409887Y691517D01*
X409873Y691504D01*
X409766Y691419D01*
X386972Y668624D01*
X267287Y668624D01*
X267197Y668610D01*
X267106Y668602D01*
X267076Y668590D01*
X267044Y668585D01*
X266963Y668542D01*
X266880Y668506D01*
X266847Y668480D01*
X266827Y668469D01*
X266805Y668446D01*
X266749Y668401D01*
X120974Y522626D01*
X120921Y522553D01*
X120861Y522483D01*
X120849Y522453D01*
X120830Y522427D01*
X120803Y522340D01*
X120769Y522255D01*
X120765Y522214D01*
X120758Y522192D01*
X120759Y522159D01*
X120751Y522088D01*
X120751Y516858D01*
X120770Y516742D01*
X120787Y516627D01*
X120789Y516621D01*
X120790Y516615D01*
X120845Y516513D01*
X120898Y516408D01*
X120903Y516403D01*
X120906Y516398D01*
X120990Y516318D01*
X121074Y516236D01*
X121080Y516232D01*
X121084Y516229D01*
X121101Y516221D01*
X121194Y516169D01*
X123038Y514326D01*
X124033Y511924D01*
X124033Y509326D01*
X123038Y506924D01*
X121201Y505087D01*
X118799Y504092D01*
X116201Y504092D01*
X113799Y505087D01*
X111962Y506924D01*
X110965Y509330D01*
X110914Y509413D01*
X110868Y509499D01*
X110849Y509517D01*
X110836Y509539D01*
X110761Y509602D01*
X110690Y509669D01*
X110666Y509680D01*
X110646Y509696D01*
X110555Y509731D01*
X110467Y509772D01*
X110441Y509775D01*
X110417Y509784D01*
X110319Y509789D01*
X110223Y509799D01*
X110197Y509794D01*
X110171Y509795D01*
X110077Y509768D01*
X109982Y509747D01*
X109960Y509734D01*
X109935Y509726D01*
X109855Y509671D01*
X109771Y509621D01*
X109754Y509601D01*
X109733Y509586D01*
X109674Y509508D01*
X109611Y509434D01*
X109601Y509410D01*
X109586Y509389D01*
X109556Y509296D01*
X109519Y509206D01*
X109516Y509173D01*
X109510Y509155D01*
X109510Y509122D01*
X109501Y509039D01*
X109501Y505608D01*
X109520Y505493D01*
X109537Y505377D01*
X109539Y505372D01*
X109540Y505365D01*
X109595Y505262D01*
X109648Y505158D01*
X109653Y505154D01*
X109656Y505148D01*
X109740Y505068D01*
X109824Y504986D01*
X109830Y504982D01*
X109834Y504979D01*
X109851Y504971D01*
X109944Y504919D01*
X111788Y503076D01*
X112783Y500674D01*
X112783Y498076D01*
X111788Y495674D01*
X109951Y493837D01*
X107549Y492842D01*
X104951Y492842D01*
X102419Y493891D01*
X102324Y493913D01*
X102231Y493942D01*
X102205Y493941D01*
X102180Y493947D01*
X102083Y493938D01*
X101985Y493935D01*
X101961Y493926D01*
X101935Y493924D01*
X101846Y493884D01*
X101754Y493851D01*
X101734Y493835D01*
X101710Y493824D01*
X101638Y493758D01*
X101562Y493697D01*
X101548Y493675D01*
X101529Y493658D01*
X101482Y493572D01*
X101429Y493490D01*
X101423Y493465D01*
X101410Y493442D01*
X101393Y493346D01*
X101369Y493252D01*
X101371Y493226D01*
X101366Y493200D01*
X101381Y493103D01*
X101388Y493007D01*
X101398Y492983D01*
X101402Y492957D01*
X101447Y492870D01*
X101485Y492780D01*
X101505Y492755D01*
X101514Y492737D01*
X101537Y492714D01*
X101589Y492649D01*
X102413Y491826D01*
X103408Y489424D01*
X103408Y486826D01*
X102496Y484624D01*
X102473Y484529D01*
X102445Y484436D01*
X102446Y484410D01*
X102440Y484384D01*
X102449Y484287D01*
X102451Y484190D01*
X102460Y484165D01*
X102463Y484139D01*
X102502Y484050D01*
X102536Y483959D01*
X102552Y483939D01*
X102563Y483915D01*
X102629Y483843D01*
X102689Y483767D01*
X102711Y483753D01*
X102729Y483734D01*
X102814Y483687D01*
X102896Y483634D01*
X102922Y483628D01*
X102945Y483615D01*
X103040Y483598D01*
X103135Y483574D01*
X103161Y483576D01*
X103187Y483571D01*
X103283Y483585D01*
G37*
G36*
X649335Y540711D02*
X649335Y540711D01*
X649361Y540710D01*
X649455Y540737D01*
X649550Y540758D01*
X649572Y540771D01*
X649597Y540779D01*
X649677Y540834D01*
X649761Y540884D01*
X649778Y540904D01*
X649799Y540919D01*
X649858Y540997D01*
X649921Y541071D01*
X649931Y541095D01*
X649946Y541116D01*
X649976Y541209D01*
X650013Y541299D01*
X650016Y541332D01*
X650022Y541350D01*
X650022Y541383D01*
X650031Y541466D01*
X650031Y556554D01*
X650017Y556644D01*
X650009Y556735D01*
X649997Y556765D01*
X649992Y556797D01*
X649949Y556878D01*
X649913Y556962D01*
X649887Y556994D01*
X649876Y557014D01*
X649853Y557037D01*
X649808Y557093D01*
X644658Y562242D01*
X642531Y564370D01*
X642531Y593936D01*
X644658Y596063D01*
X689808Y641213D01*
X689861Y641287D01*
X689921Y641356D01*
X689933Y641386D01*
X689952Y641412D01*
X689979Y641499D01*
X690013Y641584D01*
X690017Y641625D01*
X690024Y641647D01*
X690023Y641680D01*
X690031Y641751D01*
X690031Y643348D01*
X690020Y643419D01*
X690018Y643491D01*
X690000Y643540D01*
X689992Y643591D01*
X689958Y643654D01*
X689933Y643722D01*
X689901Y643762D01*
X689876Y643808D01*
X689824Y643858D01*
X689780Y643914D01*
X689736Y643942D01*
X689698Y643978D01*
X689633Y644008D01*
X689573Y644047D01*
X689522Y644059D01*
X689475Y644081D01*
X689404Y644089D01*
X689334Y644107D01*
X689282Y644103D01*
X689231Y644108D01*
X689160Y644093D01*
X689089Y644088D01*
X689041Y644067D01*
X688990Y644056D01*
X688929Y644019D01*
X688863Y643991D01*
X688807Y643947D01*
X688779Y643930D01*
X688764Y643912D01*
X688732Y643886D01*
X665813Y620967D01*
X631417Y620967D01*
X631327Y620953D01*
X631236Y620945D01*
X631206Y620933D01*
X631174Y620928D01*
X631094Y620885D01*
X631010Y620849D01*
X630978Y620823D01*
X630957Y620812D01*
X630935Y620789D01*
X630879Y620744D01*
X610974Y600839D01*
X610921Y600765D01*
X610861Y600696D01*
X610849Y600666D01*
X610830Y600639D01*
X610803Y600552D01*
X610769Y600468D01*
X610765Y600427D01*
X610758Y600404D01*
X610759Y600372D01*
X610751Y600301D01*
X610751Y564753D01*
X610765Y564663D01*
X610773Y564572D01*
X610785Y564542D01*
X610790Y564511D01*
X610833Y564430D01*
X610869Y564346D01*
X610895Y564314D01*
X610906Y564293D01*
X610929Y564271D01*
X610974Y564215D01*
X611488Y563701D01*
X612483Y561299D01*
X612483Y558701D01*
X611488Y556299D01*
X609651Y554462D01*
X607249Y553467D01*
X604651Y553467D01*
X602249Y554462D01*
X600412Y556299D01*
X599417Y558701D01*
X599417Y561299D01*
X600412Y563701D01*
X602249Y565538D01*
X603077Y565881D01*
X603132Y565915D01*
X603193Y565941D01*
X603258Y565993D01*
X603286Y566010D01*
X603298Y566025D01*
X603324Y566046D01*
X604026Y566749D01*
X604079Y566822D01*
X604139Y566892D01*
X604151Y566922D01*
X604170Y566948D01*
X604197Y567035D01*
X604231Y567120D01*
X604235Y567161D01*
X604242Y567183D01*
X604241Y567216D01*
X604249Y567287D01*
X604249Y603309D01*
X628409Y627469D01*
X662804Y627469D01*
X662894Y627483D01*
X662985Y627491D01*
X663015Y627503D01*
X663047Y627508D01*
X663128Y627551D01*
X663212Y627587D01*
X663244Y627613D01*
X663264Y627624D01*
X663287Y627647D01*
X663343Y627692D01*
X678405Y642754D01*
X678462Y642833D01*
X678524Y642908D01*
X678533Y642933D01*
X678549Y642954D01*
X678577Y643047D01*
X678612Y643138D01*
X678613Y643164D01*
X678621Y643189D01*
X678618Y643286D01*
X678623Y643384D01*
X678615Y643409D01*
X678615Y643435D01*
X678581Y643526D01*
X678554Y643620D01*
X678539Y643641D01*
X678530Y643666D01*
X678469Y643742D01*
X678414Y643822D01*
X678393Y643838D01*
X678376Y643858D01*
X678294Y643911D01*
X678216Y643969D01*
X678192Y643977D01*
X678170Y643991D01*
X678075Y644015D01*
X677983Y644045D01*
X677956Y644045D01*
X677931Y644051D01*
X677834Y644043D01*
X677737Y644043D01*
X677705Y644033D01*
X677686Y644032D01*
X677656Y644019D01*
X677575Y643996D01*
X676299Y643467D01*
X673701Y643467D01*
X671299Y644462D01*
X669462Y646299D01*
X668467Y648701D01*
X668467Y651315D01*
X668485Y651392D01*
X668514Y651506D01*
X668514Y651513D01*
X668515Y651519D01*
X668504Y651635D01*
X668495Y651752D01*
X668493Y651757D01*
X668492Y651764D01*
X668444Y651871D01*
X668399Y651978D01*
X668394Y651984D01*
X668392Y651988D01*
X668379Y652002D01*
X668294Y652109D01*
X633876Y686526D01*
X633803Y686579D01*
X633733Y686639D01*
X633703Y686651D01*
X633677Y686670D01*
X633590Y686697D01*
X633505Y686731D01*
X633464Y686735D01*
X633442Y686742D01*
X633409Y686741D01*
X633338Y686749D01*
X576662Y686749D01*
X576572Y686735D01*
X576481Y686727D01*
X576451Y686715D01*
X576419Y686710D01*
X576338Y686667D01*
X576255Y686631D01*
X576222Y686605D01*
X576202Y686594D01*
X576180Y686571D01*
X576124Y686526D01*
X566647Y677050D01*
X566606Y676992D01*
X566556Y676940D01*
X566534Y676893D01*
X566504Y676851D01*
X566483Y676782D01*
X566453Y676717D01*
X566447Y676665D01*
X566432Y676615D01*
X566433Y676544D01*
X566426Y676473D01*
X566437Y676422D01*
X566438Y676370D01*
X566463Y676302D01*
X566478Y676232D01*
X566505Y676187D01*
X566522Y676139D01*
X566567Y676083D01*
X566604Y676021D01*
X566644Y675987D01*
X566676Y675947D01*
X566736Y675908D01*
X566791Y675861D01*
X566839Y675842D01*
X566883Y675814D01*
X566952Y675796D01*
X567019Y675769D01*
X567090Y675761D01*
X567122Y675753D01*
X567145Y675755D01*
X567186Y675751D01*
X619453Y675751D01*
X630751Y664453D01*
X630751Y633723D01*
X593474Y596446D01*
X593421Y596372D01*
X593361Y596302D01*
X593349Y596272D01*
X593330Y596246D01*
X593303Y596159D01*
X593269Y596074D01*
X593265Y596033D01*
X593258Y596011D01*
X593259Y595979D01*
X593251Y595907D01*
X593251Y564885D01*
X591124Y562758D01*
X576666Y548300D01*
X576624Y548242D01*
X576575Y548190D01*
X576553Y548143D01*
X576522Y548101D01*
X576501Y548032D01*
X576471Y547967D01*
X576465Y547915D01*
X576450Y547865D01*
X576452Y547794D01*
X576444Y547723D01*
X576455Y547672D01*
X576456Y547620D01*
X576481Y547552D01*
X576496Y547482D01*
X576523Y547437D01*
X576541Y547389D01*
X576586Y547333D01*
X576622Y547271D01*
X576662Y547237D01*
X576694Y547197D01*
X576755Y547158D01*
X576809Y547111D01*
X576858Y547092D01*
X576901Y547064D01*
X576971Y547046D01*
X577037Y547019D01*
X577109Y547011D01*
X577140Y547003D01*
X577163Y547005D01*
X577204Y547001D01*
X598222Y547001D01*
X600499Y544724D01*
X600572Y544671D01*
X600642Y544611D01*
X600672Y544599D01*
X600698Y544580D01*
X600785Y544553D01*
X600870Y544519D01*
X600911Y544515D01*
X600933Y544508D01*
X600966Y544509D01*
X601037Y544501D01*
X617064Y544501D01*
X617160Y544516D01*
X617257Y544526D01*
X617281Y544536D01*
X617307Y544540D01*
X617393Y544586D01*
X617482Y544626D01*
X617501Y544643D01*
X617524Y544656D01*
X617591Y544726D01*
X617663Y544792D01*
X617676Y544815D01*
X617694Y544834D01*
X617735Y544922D01*
X617782Y545008D01*
X617786Y545033D01*
X617797Y545057D01*
X617808Y545154D01*
X617825Y545250D01*
X617821Y545276D01*
X617824Y545301D01*
X617804Y545397D01*
X617789Y545493D01*
X617778Y545516D01*
X617772Y545542D01*
X617722Y545625D01*
X617678Y545712D01*
X617659Y545731D01*
X617646Y545753D01*
X617572Y545816D01*
X617502Y545884D01*
X617474Y545900D01*
X617459Y545913D01*
X617428Y545925D01*
X617355Y545965D01*
X614949Y546962D01*
X613112Y548799D01*
X612117Y551201D01*
X612117Y553799D01*
X613112Y556201D01*
X614949Y558038D01*
X617351Y559033D01*
X619949Y559033D01*
X622351Y558038D01*
X624188Y556201D01*
X625183Y553799D01*
X625183Y551201D01*
X624188Y548799D01*
X622351Y546962D01*
X619945Y545965D01*
X619862Y545914D01*
X619776Y545868D01*
X619758Y545849D01*
X619736Y545836D01*
X619673Y545761D01*
X619606Y545690D01*
X619595Y545666D01*
X619579Y545646D01*
X619544Y545555D01*
X619503Y545467D01*
X619500Y545441D01*
X619491Y545417D01*
X619486Y545319D01*
X619476Y545223D01*
X619481Y545197D01*
X619480Y545171D01*
X619507Y545077D01*
X619528Y544982D01*
X619541Y544960D01*
X619549Y544935D01*
X619604Y544855D01*
X619654Y544771D01*
X619674Y544754D01*
X619689Y544733D01*
X619767Y544674D01*
X619841Y544611D01*
X619865Y544601D01*
X619886Y544586D01*
X619979Y544556D01*
X620069Y544519D01*
X620102Y544516D01*
X620120Y544510D01*
X620153Y544510D01*
X620236Y544501D01*
X639161Y544501D01*
X639226Y544511D01*
X639291Y544512D01*
X639371Y544535D01*
X639404Y544540D01*
X639421Y544550D01*
X639453Y544559D01*
X641201Y545283D01*
X643799Y545283D01*
X646201Y544288D01*
X648038Y542451D01*
X648567Y541175D01*
X648618Y541092D01*
X648664Y541006D01*
X648683Y540988D01*
X648696Y540965D01*
X648771Y540903D01*
X648842Y540836D01*
X648866Y540825D01*
X648886Y540809D01*
X648977Y540774D01*
X649065Y540733D01*
X649091Y540730D01*
X649115Y540720D01*
X649213Y540716D01*
X649309Y540706D01*
X649335Y540711D01*
G37*
%LPC*%
G36*
X605597Y85227D02*
X605597Y85227D01*
X601711Y86836D01*
X598736Y89811D01*
X597127Y93697D01*
X597127Y93878D01*
X597124Y93898D01*
X597126Y93917D01*
X597104Y94019D01*
X597087Y94121D01*
X597078Y94138D01*
X597073Y94158D01*
X597020Y94247D01*
X596972Y94338D01*
X596958Y94352D01*
X596947Y94369D01*
X596869Y94436D01*
X596794Y94508D01*
X596776Y94516D01*
X596760Y94529D01*
X596664Y94568D01*
X596571Y94611D01*
X596551Y94613D01*
X596532Y94621D01*
X596366Y94639D01*
X590485Y94639D01*
X584546Y97100D01*
X580000Y101646D01*
X577539Y107585D01*
X577539Y114015D01*
X580000Y119954D01*
X584546Y124500D01*
X590485Y126961D01*
X596915Y126961D01*
X602854Y124500D01*
X607400Y119954D01*
X609861Y114015D01*
X609861Y107585D01*
X609715Y107234D01*
X609711Y107214D01*
X609701Y107197D01*
X609682Y107095D01*
X609659Y106994D01*
X609661Y106974D01*
X609657Y106955D01*
X609672Y106852D01*
X609682Y106749D01*
X609690Y106731D01*
X609693Y106711D01*
X609740Y106619D01*
X609782Y106525D01*
X609795Y106510D01*
X609804Y106492D01*
X609878Y106420D01*
X609948Y106344D01*
X609966Y106334D01*
X609980Y106320D01*
X610127Y106239D01*
X613689Y104764D01*
X616664Y101789D01*
X616997Y100985D01*
X617034Y100924D01*
X617064Y100859D01*
X617099Y100820D01*
X617115Y100793D01*
X617117Y100792D01*
X617126Y100776D01*
X617181Y100730D01*
X617230Y100677D01*
X617276Y100652D01*
X617316Y100619D01*
X617383Y100593D01*
X617446Y100559D01*
X617497Y100550D01*
X617545Y100531D01*
X617617Y100528D01*
X617688Y100515D01*
X617739Y100523D01*
X617791Y100521D01*
X617860Y100540D01*
X617931Y100551D01*
X617977Y100575D01*
X618027Y100589D01*
X618086Y100630D01*
X618150Y100662D01*
X618187Y100700D01*
X618229Y100729D01*
X618272Y100787D01*
X618322Y100838D01*
X618332Y100855D01*
X618333Y100856D01*
X618335Y100861D01*
X618357Y100901D01*
X618376Y100927D01*
X618383Y100949D01*
X618403Y100985D01*
X618736Y101789D01*
X621711Y104764D01*
X625597Y106373D01*
X629803Y106373D01*
X633689Y104764D01*
X636664Y101789D01*
X636997Y100985D01*
X637034Y100924D01*
X637064Y100859D01*
X637099Y100820D01*
X637115Y100793D01*
X637117Y100792D01*
X637126Y100776D01*
X637181Y100730D01*
X637230Y100677D01*
X637276Y100652D01*
X637316Y100619D01*
X637383Y100593D01*
X637446Y100559D01*
X637497Y100550D01*
X637545Y100531D01*
X637617Y100528D01*
X637688Y100515D01*
X637739Y100523D01*
X637791Y100521D01*
X637860Y100540D01*
X637931Y100551D01*
X637977Y100575D01*
X638027Y100589D01*
X638086Y100630D01*
X638150Y100662D01*
X638187Y100700D01*
X638229Y100729D01*
X638272Y100787D01*
X638322Y100838D01*
X638332Y100855D01*
X638333Y100856D01*
X638335Y100861D01*
X638357Y100901D01*
X638376Y100927D01*
X638383Y100949D01*
X638403Y100985D01*
X638736Y101789D01*
X641711Y104764D01*
X645597Y106373D01*
X649803Y106373D01*
X653689Y104764D01*
X656664Y101789D01*
X656997Y100985D01*
X657034Y100924D01*
X657064Y100859D01*
X657099Y100820D01*
X657115Y100793D01*
X657117Y100792D01*
X657126Y100776D01*
X657181Y100730D01*
X657230Y100677D01*
X657276Y100652D01*
X657316Y100619D01*
X657383Y100593D01*
X657446Y100559D01*
X657497Y100550D01*
X657545Y100531D01*
X657617Y100528D01*
X657688Y100515D01*
X657739Y100523D01*
X657791Y100521D01*
X657860Y100540D01*
X657931Y100551D01*
X657977Y100575D01*
X658027Y100589D01*
X658086Y100630D01*
X658150Y100662D01*
X658187Y100700D01*
X658229Y100729D01*
X658272Y100787D01*
X658322Y100838D01*
X658332Y100855D01*
X658333Y100856D01*
X658335Y100861D01*
X658357Y100901D01*
X658376Y100927D01*
X658383Y100949D01*
X658403Y100985D01*
X658736Y101789D01*
X661711Y104764D01*
X665597Y106373D01*
X669803Y106373D01*
X673689Y104764D01*
X676664Y101789D01*
X678273Y97903D01*
X678273Y93697D01*
X676664Y89811D01*
X673689Y86836D01*
X669803Y85227D01*
X665597Y85227D01*
X661711Y86836D01*
X658736Y89811D01*
X658403Y90615D01*
X658366Y90676D01*
X658336Y90741D01*
X658301Y90780D01*
X658274Y90824D01*
X658218Y90870D01*
X658170Y90923D01*
X658124Y90948D01*
X658084Y90981D01*
X658017Y91007D01*
X657954Y91041D01*
X657903Y91050D01*
X657855Y91069D01*
X657783Y91072D01*
X657712Y91085D01*
X657661Y91077D01*
X657609Y91079D01*
X657540Y91060D01*
X657469Y91049D01*
X657423Y91025D01*
X657373Y91011D01*
X657314Y90970D01*
X657250Y90938D01*
X657213Y90900D01*
X657171Y90871D01*
X657128Y90813D01*
X657078Y90762D01*
X657043Y90699D01*
X657024Y90673D01*
X657017Y90651D01*
X656997Y90615D01*
X656664Y89811D01*
X653689Y86836D01*
X649803Y85227D01*
X645597Y85227D01*
X641711Y86836D01*
X638736Y89811D01*
X638403Y90615D01*
X638366Y90676D01*
X638336Y90741D01*
X638301Y90780D01*
X638274Y90824D01*
X638218Y90870D01*
X638170Y90923D01*
X638124Y90948D01*
X638084Y90981D01*
X638017Y91007D01*
X637954Y91041D01*
X637903Y91050D01*
X637855Y91069D01*
X637783Y91072D01*
X637712Y91085D01*
X637661Y91077D01*
X637609Y91079D01*
X637540Y91060D01*
X637469Y91049D01*
X637423Y91025D01*
X637373Y91011D01*
X637314Y90970D01*
X637250Y90938D01*
X637213Y90900D01*
X637171Y90871D01*
X637128Y90813D01*
X637078Y90762D01*
X637043Y90699D01*
X637024Y90673D01*
X637017Y90651D01*
X636997Y90615D01*
X636664Y89811D01*
X633689Y86836D01*
X629803Y85227D01*
X625597Y85227D01*
X621711Y86836D01*
X618736Y89811D01*
X618403Y90615D01*
X618366Y90676D01*
X618336Y90741D01*
X618301Y90780D01*
X618274Y90824D01*
X618218Y90870D01*
X618170Y90923D01*
X618124Y90948D01*
X618084Y90981D01*
X618017Y91007D01*
X617954Y91041D01*
X617903Y91050D01*
X617855Y91069D01*
X617783Y91072D01*
X617712Y91085D01*
X617661Y91077D01*
X617609Y91079D01*
X617540Y91060D01*
X617469Y91049D01*
X617423Y91025D01*
X617373Y91011D01*
X617314Y90970D01*
X617250Y90938D01*
X617213Y90900D01*
X617171Y90871D01*
X617128Y90813D01*
X617078Y90762D01*
X617043Y90699D01*
X617024Y90673D01*
X617017Y90651D01*
X616997Y90615D01*
X616664Y89811D01*
X613689Y86836D01*
X609803Y85227D01*
X605597Y85227D01*
G37*
%LPD*%
%LPC*%
G36*
X468701Y430385D02*
X468701Y430385D01*
X466299Y431380D01*
X464462Y433217D01*
X463467Y435619D01*
X463467Y438217D01*
X464462Y440619D01*
X466299Y442456D01*
X468701Y443451D01*
X470206Y443451D01*
X470226Y443454D01*
X470245Y443452D01*
X470347Y443474D01*
X470449Y443490D01*
X470466Y443500D01*
X470486Y443504D01*
X470575Y443557D01*
X470666Y443606D01*
X470680Y443620D01*
X470697Y443630D01*
X470764Y443709D01*
X470836Y443784D01*
X470844Y443802D01*
X470857Y443817D01*
X470896Y443913D01*
X470939Y444007D01*
X470941Y444027D01*
X470949Y444045D01*
X470967Y444212D01*
X470967Y455565D01*
X516526Y501124D01*
X516579Y501197D01*
X516639Y501267D01*
X516651Y501297D01*
X516670Y501323D01*
X516697Y501410D01*
X516731Y501495D01*
X516735Y501536D01*
X516742Y501558D01*
X516741Y501591D01*
X516749Y501662D01*
X516749Y519549D01*
X516730Y519664D01*
X516713Y519780D01*
X516711Y519785D01*
X516710Y519792D01*
X516655Y519895D01*
X516602Y519999D01*
X516597Y520003D01*
X516594Y520009D01*
X516510Y520089D01*
X516426Y520171D01*
X516420Y520175D01*
X516416Y520178D01*
X516399Y520186D01*
X516306Y520238D01*
X514462Y522081D01*
X513467Y524483D01*
X513467Y527081D01*
X514462Y529483D01*
X516299Y531320D01*
X518701Y532315D01*
X521299Y532315D01*
X523701Y531320D01*
X525538Y529483D01*
X526533Y527081D01*
X526533Y524483D01*
X525538Y522081D01*
X523690Y520233D01*
X523622Y520191D01*
X523521Y520131D01*
X523517Y520126D01*
X523512Y520123D01*
X523437Y520033D01*
X523361Y519944D01*
X523359Y519938D01*
X523355Y519933D01*
X523313Y519825D01*
X523269Y519716D01*
X523268Y519708D01*
X523267Y519703D01*
X523266Y519685D01*
X523251Y519549D01*
X523251Y498653D01*
X477692Y453094D01*
X477639Y453021D01*
X477579Y452951D01*
X477567Y452921D01*
X477548Y452895D01*
X477521Y452808D01*
X477487Y452723D01*
X477483Y452682D01*
X477476Y452660D01*
X477477Y452627D01*
X477469Y452556D01*
X477469Y451466D01*
X477484Y451370D01*
X477494Y451273D01*
X477504Y451249D01*
X477508Y451223D01*
X477554Y451137D01*
X477594Y451048D01*
X477611Y451029D01*
X477624Y451006D01*
X477694Y450939D01*
X477760Y450867D01*
X477783Y450854D01*
X477802Y450836D01*
X477890Y450795D01*
X477976Y450748D01*
X478001Y450744D01*
X478025Y450733D01*
X478122Y450722D01*
X478218Y450705D01*
X478244Y450708D01*
X478269Y450706D01*
X478365Y450726D01*
X478461Y450740D01*
X478484Y450752D01*
X478510Y450758D01*
X478593Y450808D01*
X478680Y450852D01*
X478699Y450871D01*
X478721Y450884D01*
X478784Y450958D01*
X478852Y451028D01*
X478868Y451056D01*
X478881Y451071D01*
X478893Y451102D01*
X478933Y451174D01*
X479462Y452451D01*
X481299Y454288D01*
X483701Y455283D01*
X486315Y455283D01*
X486392Y455265D01*
X486506Y455236D01*
X486513Y455236D01*
X486519Y455235D01*
X486635Y455246D01*
X486752Y455255D01*
X486757Y455257D01*
X486764Y455258D01*
X486871Y455306D01*
X486978Y455351D01*
X486984Y455356D01*
X486988Y455358D01*
X487002Y455371D01*
X487109Y455456D01*
X527776Y496124D01*
X527829Y496197D01*
X527889Y496267D01*
X527901Y496297D01*
X527920Y496323D01*
X527947Y496410D01*
X527981Y496495D01*
X527985Y496536D01*
X527992Y496558D01*
X527991Y496591D01*
X527999Y496662D01*
X527999Y522597D01*
X530126Y524724D01*
X542776Y537373D01*
X542844Y537468D01*
X542914Y537562D01*
X542916Y537568D01*
X542920Y537573D01*
X542954Y537684D01*
X542990Y537796D01*
X542990Y537802D01*
X542992Y537808D01*
X542989Y537925D01*
X542988Y538042D01*
X542986Y538049D01*
X542986Y538054D01*
X542979Y538071D01*
X542941Y538203D01*
X542217Y539951D01*
X542217Y542549D01*
X543212Y544951D01*
X545049Y546788D01*
X547451Y547783D01*
X550049Y547783D01*
X552451Y546788D01*
X554288Y544951D01*
X555283Y542549D01*
X555283Y539951D01*
X554288Y537549D01*
X552451Y535712D01*
X550049Y534717D01*
X549630Y534717D01*
X549540Y534703D01*
X549449Y534695D01*
X549419Y534683D01*
X549387Y534678D01*
X549306Y534635D01*
X549223Y534599D01*
X549190Y534573D01*
X549170Y534562D01*
X549148Y534539D01*
X549092Y534494D01*
X534724Y520126D01*
X534671Y520053D01*
X534611Y519983D01*
X534599Y519953D01*
X534580Y519927D01*
X534553Y519840D01*
X534519Y519755D01*
X534515Y519714D01*
X534508Y519692D01*
X534509Y519659D01*
X534501Y519588D01*
X534501Y493653D01*
X532374Y491526D01*
X491706Y450859D01*
X491638Y450765D01*
X491568Y450670D01*
X491566Y450664D01*
X491563Y450659D01*
X491528Y450548D01*
X491492Y450436D01*
X491492Y450430D01*
X491490Y450424D01*
X491493Y450307D01*
X491494Y450190D01*
X491496Y450183D01*
X491497Y450178D01*
X491503Y450161D01*
X491533Y450058D01*
X491533Y447451D01*
X490538Y445049D01*
X488701Y443212D01*
X486299Y442217D01*
X483701Y442217D01*
X481299Y443212D01*
X479462Y445049D01*
X478933Y446326D01*
X478882Y446409D01*
X478836Y446494D01*
X478818Y446512D01*
X478804Y446535D01*
X478728Y446597D01*
X478658Y446664D01*
X478634Y446675D01*
X478614Y446691D01*
X478523Y446726D01*
X478435Y446767D01*
X478409Y446770D01*
X478385Y446780D01*
X478287Y446784D01*
X478191Y446794D01*
X478165Y446789D01*
X478139Y446790D01*
X478045Y446763D01*
X477950Y446742D01*
X477928Y446729D01*
X477903Y446721D01*
X477823Y446666D01*
X477739Y446616D01*
X477722Y446596D01*
X477701Y446581D01*
X477642Y446503D01*
X477579Y446429D01*
X477569Y446405D01*
X477554Y446384D01*
X477524Y446291D01*
X477487Y446201D01*
X477484Y446168D01*
X477478Y446150D01*
X477478Y446117D01*
X477469Y446034D01*
X477469Y439789D01*
X476706Y439027D01*
X476660Y438962D01*
X476644Y438946D01*
X476637Y438930D01*
X476568Y438838D01*
X476566Y438832D01*
X476563Y438827D01*
X476528Y438715D01*
X476492Y438604D01*
X476492Y438598D01*
X476490Y438592D01*
X476493Y438475D01*
X476494Y438358D01*
X476496Y438351D01*
X476497Y438346D01*
X476503Y438329D01*
X476533Y438226D01*
X476533Y435619D01*
X475538Y433217D01*
X473701Y431380D01*
X471299Y430385D01*
X468701Y430385D01*
G37*
%LPD*%
G36*
X560978Y452015D02*
X560978Y452015D01*
X561069Y452023D01*
X561098Y452035D01*
X561130Y452040D01*
X561211Y452083D01*
X561295Y452119D01*
X561327Y452145D01*
X561348Y452156D01*
X561370Y452179D01*
X561426Y452224D01*
X592826Y483624D01*
X594652Y485450D01*
X594694Y485508D01*
X594743Y485560D01*
X594765Y485607D01*
X594796Y485649D01*
X594817Y485718D01*
X594847Y485783D01*
X594853Y485835D01*
X594868Y485885D01*
X594866Y485956D01*
X594874Y486027D01*
X594863Y486078D01*
X594862Y486130D01*
X594837Y486198D01*
X594822Y486268D01*
X594795Y486313D01*
X594777Y486361D01*
X594732Y486417D01*
X594696Y486479D01*
X594656Y486513D01*
X594623Y486553D01*
X594563Y486592D01*
X594509Y486639D01*
X594460Y486658D01*
X594416Y486686D01*
X594347Y486704D01*
X594280Y486731D01*
X594209Y486739D01*
X594178Y486747D01*
X594155Y486745D01*
X594114Y486749D01*
X583233Y486749D01*
X583119Y486731D01*
X583002Y486713D01*
X582996Y486711D01*
X582990Y486710D01*
X582888Y486655D01*
X582783Y486602D01*
X582778Y486597D01*
X582773Y486594D01*
X582693Y486510D01*
X582611Y486426D01*
X582607Y486420D01*
X582604Y486416D01*
X582596Y486399D01*
X582544Y486306D01*
X580701Y484462D01*
X578299Y483467D01*
X575701Y483467D01*
X573299Y484462D01*
X571462Y486299D01*
X570467Y488701D01*
X570467Y491299D01*
X571462Y493701D01*
X573299Y495538D01*
X575701Y496533D01*
X578299Y496533D01*
X580701Y495538D01*
X582549Y493690D01*
X582591Y493622D01*
X582651Y493521D01*
X582656Y493517D01*
X582659Y493512D01*
X582749Y493438D01*
X582838Y493361D01*
X582844Y493359D01*
X582849Y493355D01*
X582957Y493313D01*
X583066Y493269D01*
X583074Y493268D01*
X583078Y493267D01*
X583096Y493266D01*
X583233Y493251D01*
X593945Y493251D01*
X594035Y493265D01*
X594126Y493273D01*
X594156Y493285D01*
X594188Y493290D01*
X594268Y493333D01*
X594352Y493369D01*
X594384Y493395D01*
X594405Y493406D01*
X594427Y493429D01*
X594483Y493474D01*
X603851Y502842D01*
X605677Y504668D01*
X605719Y504726D01*
X605768Y504778D01*
X605790Y504825D01*
X605821Y504867D01*
X605842Y504936D01*
X605872Y505001D01*
X605878Y505053D01*
X605893Y505103D01*
X605891Y505174D01*
X605899Y505245D01*
X605888Y505296D01*
X605887Y505348D01*
X605862Y505416D01*
X605847Y505486D01*
X605820Y505531D01*
X605802Y505579D01*
X605757Y505635D01*
X605721Y505697D01*
X605681Y505731D01*
X605649Y505771D01*
X605588Y505810D01*
X605534Y505857D01*
X605485Y505876D01*
X605442Y505904D01*
X605372Y505922D01*
X605306Y505949D01*
X605234Y505957D01*
X605203Y505965D01*
X605180Y505963D01*
X605139Y505967D01*
X584794Y505967D01*
X584774Y505964D01*
X584755Y505966D01*
X584653Y505944D01*
X584551Y505928D01*
X584534Y505918D01*
X584514Y505914D01*
X584425Y505861D01*
X584334Y505812D01*
X584320Y505798D01*
X584303Y505788D01*
X584236Y505709D01*
X584164Y505634D01*
X584156Y505616D01*
X584143Y505601D01*
X584104Y505505D01*
X584061Y505411D01*
X584059Y505391D01*
X584051Y505373D01*
X584033Y505206D01*
X584033Y503701D01*
X583038Y501299D01*
X581201Y499462D01*
X578799Y498467D01*
X576201Y498467D01*
X573799Y499462D01*
X571962Y501299D01*
X570967Y503701D01*
X570967Y506299D01*
X571962Y508701D01*
X573799Y510538D01*
X576201Y511533D01*
X578815Y511533D01*
X578893Y511515D01*
X579006Y511486D01*
X579013Y511486D01*
X579019Y511485D01*
X579135Y511496D01*
X579252Y511505D01*
X579257Y511507D01*
X579264Y511508D01*
X579371Y511556D01*
X579478Y511601D01*
X579484Y511606D01*
X579488Y511608D01*
X579502Y511621D01*
X579609Y511706D01*
X580371Y512469D01*
X604159Y512469D01*
X604255Y512484D01*
X604352Y512494D01*
X604376Y512504D01*
X604402Y512508D01*
X604488Y512554D01*
X604577Y512594D01*
X604596Y512611D01*
X604619Y512624D01*
X604686Y512694D01*
X604758Y512760D01*
X604771Y512783D01*
X604789Y512802D01*
X604830Y512890D01*
X604877Y512976D01*
X604881Y513001D01*
X604892Y513025D01*
X604903Y513122D01*
X604920Y513218D01*
X604917Y513244D01*
X604919Y513269D01*
X604899Y513365D01*
X604885Y513461D01*
X604873Y513484D01*
X604867Y513510D01*
X604817Y513593D01*
X604773Y513680D01*
X604754Y513699D01*
X604741Y513721D01*
X604667Y513784D01*
X604597Y513852D01*
X604569Y513868D01*
X604554Y513881D01*
X604523Y513893D01*
X604451Y513933D01*
X603174Y514462D01*
X601326Y516310D01*
X601284Y516378D01*
X601224Y516479D01*
X601219Y516483D01*
X601216Y516488D01*
X601126Y516563D01*
X601037Y516639D01*
X601031Y516641D01*
X601026Y516645D01*
X600918Y516687D01*
X600809Y516731D01*
X600801Y516732D01*
X600796Y516733D01*
X600778Y516734D01*
X600642Y516749D01*
X581233Y516749D01*
X581119Y516731D01*
X581002Y516713D01*
X580996Y516711D01*
X580990Y516710D01*
X580888Y516655D01*
X580783Y516602D01*
X580778Y516597D01*
X580773Y516594D01*
X580693Y516510D01*
X580611Y516426D01*
X580607Y516420D01*
X580604Y516416D01*
X580596Y516399D01*
X580544Y516306D01*
X578701Y514462D01*
X576299Y513467D01*
X573701Y513467D01*
X571299Y514462D01*
X569462Y516299D01*
X568467Y518701D01*
X568467Y521299D01*
X569462Y523701D01*
X571299Y525538D01*
X573701Y526533D01*
X576299Y526533D01*
X577764Y525926D01*
X577859Y525904D01*
X577952Y525875D01*
X577978Y525876D01*
X578004Y525870D01*
X578100Y525879D01*
X578198Y525882D01*
X578222Y525891D01*
X578248Y525893D01*
X578337Y525932D01*
X578429Y525966D01*
X578449Y525982D01*
X578473Y525993D01*
X578545Y526059D01*
X578621Y526120D01*
X578635Y526142D01*
X578654Y526159D01*
X578701Y526245D01*
X578754Y526327D01*
X578760Y526352D01*
X578773Y526375D01*
X578790Y526471D01*
X578814Y526565D01*
X578812Y526591D01*
X578817Y526617D01*
X578802Y526713D01*
X578795Y526810D01*
X578785Y526834D01*
X578781Y526860D01*
X578737Y526947D01*
X578699Y527037D01*
X578678Y527062D01*
X578669Y527080D01*
X578646Y527103D01*
X578594Y527168D01*
X576962Y528799D01*
X575967Y531201D01*
X575967Y533799D01*
X576762Y535719D01*
X576770Y535752D01*
X576770Y535753D01*
X576785Y535814D01*
X576813Y535907D01*
X576813Y535933D01*
X576819Y535958D01*
X576809Y536055D01*
X576807Y536153D01*
X576798Y536177D01*
X576795Y536203D01*
X576756Y536292D01*
X576722Y536384D01*
X576706Y536404D01*
X576695Y536428D01*
X576630Y536500D01*
X576569Y536576D01*
X576547Y536590D01*
X576529Y536609D01*
X576444Y536656D01*
X576362Y536709D01*
X576336Y536715D01*
X576314Y536728D01*
X576218Y536745D01*
X576123Y536769D01*
X576097Y536767D01*
X576071Y536771D01*
X575975Y536757D01*
X575878Y536750D01*
X575854Y536739D01*
X575828Y536736D01*
X575741Y536691D01*
X575652Y536653D01*
X575626Y536633D01*
X575609Y536624D01*
X575586Y536600D01*
X575521Y536549D01*
X561599Y522626D01*
X561546Y522553D01*
X561486Y522483D01*
X561474Y522453D01*
X561455Y522427D01*
X561428Y522340D01*
X561394Y522255D01*
X561390Y522214D01*
X561383Y522192D01*
X561384Y522159D01*
X561376Y522088D01*
X561376Y490678D01*
X561390Y490588D01*
X561398Y490497D01*
X561410Y490467D01*
X561415Y490435D01*
X561458Y490355D01*
X561494Y490271D01*
X561520Y490239D01*
X561531Y490218D01*
X561554Y490196D01*
X561599Y490140D01*
X563038Y488701D01*
X564033Y486299D01*
X564033Y483701D01*
X563038Y481299D01*
X561201Y479462D01*
X558799Y478467D01*
X556201Y478467D01*
X553799Y479462D01*
X551962Y481299D01*
X551433Y482576D01*
X551382Y482659D01*
X551336Y482744D01*
X551318Y482762D01*
X551304Y482785D01*
X551228Y482847D01*
X551158Y482914D01*
X551134Y482925D01*
X551114Y482941D01*
X551023Y482976D01*
X550935Y483017D01*
X550909Y483020D01*
X550885Y483030D01*
X550787Y483034D01*
X550691Y483044D01*
X550665Y483039D01*
X550639Y483040D01*
X550545Y483013D01*
X550450Y482992D01*
X550428Y482979D01*
X550403Y482971D01*
X550323Y482916D01*
X550239Y482866D01*
X550222Y482846D01*
X550201Y482831D01*
X550142Y482753D01*
X550079Y482679D01*
X550069Y482655D01*
X550054Y482634D01*
X550024Y482541D01*
X549987Y482451D01*
X549984Y482418D01*
X549978Y482400D01*
X549978Y482367D01*
X549969Y482284D01*
X549969Y474944D01*
X549983Y474854D01*
X549991Y474763D01*
X550003Y474733D01*
X550008Y474701D01*
X550051Y474620D01*
X550087Y474536D01*
X550113Y474504D01*
X550124Y474484D01*
X550147Y474461D01*
X550192Y474406D01*
X556840Y467758D01*
X558992Y465605D01*
X559003Y465534D01*
X559006Y465529D01*
X559007Y465522D01*
X559061Y465419D01*
X559114Y465315D01*
X559119Y465311D01*
X559122Y465305D01*
X559206Y465225D01*
X559290Y465143D01*
X559296Y465139D01*
X559300Y465136D01*
X559317Y465128D01*
X559410Y465076D01*
X561254Y463233D01*
X562249Y460831D01*
X562249Y458233D01*
X561254Y455831D01*
X559417Y453994D01*
X558141Y453465D01*
X558058Y453414D01*
X557972Y453368D01*
X557954Y453350D01*
X557931Y453336D01*
X557869Y453260D01*
X557802Y453190D01*
X557791Y453166D01*
X557775Y453146D01*
X557740Y453055D01*
X557699Y452967D01*
X557696Y452941D01*
X557686Y452917D01*
X557682Y452819D01*
X557672Y452723D01*
X557677Y452697D01*
X557676Y452671D01*
X557703Y452577D01*
X557724Y452482D01*
X557737Y452460D01*
X557745Y452435D01*
X557800Y452355D01*
X557850Y452271D01*
X557870Y452254D01*
X557885Y452233D01*
X557963Y452174D01*
X558037Y452111D01*
X558061Y452101D01*
X558082Y452086D01*
X558175Y452056D01*
X558265Y452019D01*
X558298Y452016D01*
X558316Y452010D01*
X558349Y452010D01*
X558432Y452001D01*
X560888Y452001D01*
X560978Y452015D01*
G37*
%LPC*%
G36*
X770420Y243337D02*
X770420Y243337D01*
X765031Y245569D01*
X760907Y249693D01*
X758675Y255082D01*
X758675Y260914D01*
X760907Y266303D01*
X765031Y270427D01*
X770420Y272659D01*
X776252Y272659D01*
X781641Y270427D01*
X785765Y266303D01*
X787997Y260914D01*
X787997Y255082D01*
X785765Y249693D01*
X781641Y245569D01*
X776252Y243337D01*
X770420Y243337D01*
G37*
%LPD*%
%LPC*%
G36*
X770420Y199141D02*
X770420Y199141D01*
X765031Y201373D01*
X760907Y205497D01*
X758675Y210886D01*
X758675Y216718D01*
X760907Y222107D01*
X765031Y226231D01*
X770420Y228463D01*
X776252Y228463D01*
X781641Y226231D01*
X785765Y222107D01*
X787997Y216718D01*
X787997Y210886D01*
X785765Y205497D01*
X781641Y201373D01*
X776252Y199141D01*
X770420Y199141D01*
G37*
%LPD*%
%LPC*%
G36*
X630051Y554293D02*
X630051Y554293D01*
X627649Y555287D01*
X625812Y557125D01*
X624817Y559526D01*
X624817Y562125D01*
X625812Y564526D01*
X627649Y566364D01*
X630051Y567358D01*
X630988Y567358D01*
X631008Y567361D01*
X631027Y567359D01*
X631129Y567381D01*
X631231Y567398D01*
X631248Y567407D01*
X631268Y567412D01*
X631357Y567465D01*
X631448Y567513D01*
X631462Y567527D01*
X631479Y567538D01*
X631546Y567616D01*
X631618Y567691D01*
X631626Y567709D01*
X631639Y567725D01*
X631678Y567821D01*
X631721Y567914D01*
X631723Y567934D01*
X631731Y567953D01*
X631749Y568119D01*
X631749Y606267D01*
X631730Y606382D01*
X631713Y606498D01*
X631711Y606503D01*
X631710Y606510D01*
X631655Y606613D01*
X631602Y606717D01*
X631597Y606721D01*
X631594Y606727D01*
X631510Y606807D01*
X631426Y606889D01*
X631420Y606893D01*
X631416Y606896D01*
X631399Y606904D01*
X631306Y606956D01*
X629462Y608799D01*
X628467Y611201D01*
X628467Y613799D01*
X629462Y616201D01*
X631299Y618038D01*
X633701Y619033D01*
X636299Y619033D01*
X638701Y618038D01*
X640538Y616201D01*
X641533Y613799D01*
X641533Y611201D01*
X640538Y608799D01*
X638690Y606951D01*
X638621Y606909D01*
X638521Y606849D01*
X638517Y606844D01*
X638512Y606841D01*
X638437Y606751D01*
X638361Y606662D01*
X638359Y606656D01*
X638355Y606651D01*
X638313Y606543D01*
X638269Y606434D01*
X638268Y606426D01*
X638267Y606421D01*
X638266Y606403D01*
X638251Y606267D01*
X638251Y564729D01*
X638252Y564721D01*
X638251Y564709D01*
X638287Y563365D01*
X637998Y563076D01*
X637929Y562981D01*
X637860Y562887D01*
X637858Y562881D01*
X637854Y562876D01*
X637820Y562764D01*
X637783Y562653D01*
X637783Y562647D01*
X637782Y562641D01*
X637785Y562524D01*
X637786Y562407D01*
X637788Y562400D01*
X637788Y562395D01*
X637794Y562378D01*
X637833Y562246D01*
X637883Y562125D01*
X637883Y559526D01*
X636888Y557125D01*
X635051Y555287D01*
X632649Y554293D01*
X630051Y554293D01*
G37*
%LPD*%
%LPC*%
G36*
X218257Y250760D02*
X218257Y250760D01*
X214908Y252147D01*
X212344Y254710D01*
X210957Y258060D01*
X210957Y261685D01*
X212344Y265034D01*
X224966Y277656D01*
X228315Y279043D01*
X231940Y279043D01*
X235290Y277656D01*
X237853Y275092D01*
X239240Y271743D01*
X239240Y268118D01*
X237853Y264768D01*
X225232Y252147D01*
X221882Y250760D01*
X218257Y250760D01*
G37*
%LPD*%
%LPC*%
G36*
X236218Y232799D02*
X236218Y232799D01*
X232868Y234186D01*
X230305Y236750D01*
X228918Y240099D01*
X228918Y243724D01*
X230305Y247074D01*
X242926Y259695D01*
X246276Y261082D01*
X249901Y261082D01*
X253250Y259695D01*
X255814Y257132D01*
X257201Y253782D01*
X257201Y250157D01*
X255814Y246808D01*
X243192Y234186D01*
X239843Y232799D01*
X236218Y232799D01*
G37*
%LPD*%
%LPC*%
G36*
X272139Y196878D02*
X272139Y196878D01*
X268789Y198265D01*
X266226Y200829D01*
X264839Y204178D01*
X264839Y207803D01*
X266226Y211153D01*
X278847Y223774D01*
X282197Y225161D01*
X285822Y225161D01*
X289171Y223774D01*
X291735Y221211D01*
X293122Y217861D01*
X293122Y214236D01*
X291735Y210887D01*
X279113Y198265D01*
X275764Y196878D01*
X272139Y196878D01*
G37*
%LPD*%
%LPC*%
G36*
X290099Y178918D02*
X290099Y178918D01*
X286750Y180305D01*
X284186Y182868D01*
X282799Y186218D01*
X282799Y189843D01*
X284186Y193192D01*
X296808Y205814D01*
X300157Y207201D01*
X303782Y207201D01*
X307132Y205814D01*
X309695Y203250D01*
X311082Y199901D01*
X311082Y196276D01*
X309695Y192926D01*
X297074Y180305D01*
X293724Y178918D01*
X290099Y178918D01*
G37*
%LPD*%
%LPC*%
G36*
X308060Y160957D02*
X308060Y160957D01*
X304710Y162344D01*
X302147Y164908D01*
X300760Y168257D01*
X300760Y171882D01*
X302147Y175232D01*
X314768Y187853D01*
X318118Y189240D01*
X321743Y189240D01*
X325092Y187853D01*
X327656Y185290D01*
X329043Y181940D01*
X329043Y178315D01*
X327656Y174966D01*
X315034Y162344D01*
X311685Y160957D01*
X308060Y160957D01*
G37*
%LPD*%
%LPC*%
G36*
X428701Y193467D02*
X428701Y193467D01*
X426299Y194462D01*
X424462Y196299D01*
X423467Y198701D01*
X423467Y201299D01*
X424462Y203701D01*
X426299Y205538D01*
X428701Y206533D01*
X431299Y206533D01*
X433302Y205703D01*
X433372Y205687D01*
X433439Y205661D01*
X433491Y205659D01*
X433542Y205647D01*
X433613Y205654D01*
X433685Y205651D01*
X433735Y205665D01*
X433787Y205670D01*
X433852Y205699D01*
X433921Y205719D01*
X433964Y205749D01*
X434011Y205770D01*
X434064Y205819D01*
X434123Y205859D01*
X434154Y205901D01*
X434192Y205936D01*
X434227Y205999D01*
X434270Y206057D01*
X434286Y206106D01*
X434311Y206152D01*
X434324Y206223D01*
X434346Y206291D01*
X434345Y206343D01*
X434355Y206394D01*
X434344Y206465D01*
X434344Y206537D01*
X434324Y206606D01*
X434319Y206637D01*
X434308Y206658D01*
X434297Y206698D01*
X433467Y208701D01*
X433467Y211299D01*
X434462Y213701D01*
X436299Y215538D01*
X438701Y216533D01*
X441299Y216533D01*
X443701Y215538D01*
X445538Y213701D01*
X446533Y211299D01*
X446533Y208701D01*
X445538Y206299D01*
X443701Y204462D01*
X441299Y203467D01*
X438701Y203467D01*
X436698Y204297D01*
X436628Y204313D01*
X436561Y204339D01*
X436509Y204341D01*
X436458Y204353D01*
X436387Y204346D01*
X436315Y204349D01*
X436265Y204335D01*
X436213Y204330D01*
X436148Y204301D01*
X436079Y204281D01*
X436036Y204251D01*
X435989Y204230D01*
X435936Y204181D01*
X435877Y204141D01*
X435846Y204099D01*
X435808Y204064D01*
X435773Y204001D01*
X435730Y203943D01*
X435714Y203894D01*
X435689Y203848D01*
X435676Y203777D01*
X435654Y203709D01*
X435655Y203657D01*
X435645Y203606D01*
X435656Y203535D01*
X435656Y203463D01*
X435676Y203394D01*
X435681Y203363D01*
X435692Y203342D01*
X435703Y203302D01*
X436533Y201299D01*
X436533Y198701D01*
X435538Y196299D01*
X433701Y194462D01*
X431299Y193467D01*
X428701Y193467D01*
G37*
%LPD*%
%LPC*%
G36*
X255271Y236883D02*
X255271Y236883D01*
X259760Y241372D01*
X260990Y242265D01*
X262343Y242955D01*
X263788Y243424D01*
X265289Y243662D01*
X266808Y243662D01*
X268309Y243424D01*
X269754Y242955D01*
X271108Y242265D01*
X271712Y241826D01*
X261020Y231134D01*
X255271Y236883D01*
G37*
%LPD*%
%LPC*%
G36*
X263174Y228980D02*
X263174Y228980D01*
X273866Y239672D01*
X274304Y239068D01*
X274994Y237715D01*
X275464Y236269D01*
X275701Y234769D01*
X275701Y233249D01*
X275464Y231749D01*
X274994Y230304D01*
X274304Y228950D01*
X273411Y227721D01*
X268922Y223232D01*
X263174Y228980D01*
G37*
%LPD*%
%LPC*%
G36*
X247735Y218892D02*
X247735Y218892D01*
X247045Y220246D01*
X246576Y221691D01*
X246338Y223192D01*
X246338Y224711D01*
X246576Y226212D01*
X247045Y227657D01*
X247735Y229010D01*
X248628Y230240D01*
X253117Y234729D01*
X258866Y228980D01*
X248174Y218288D01*
X247735Y218892D01*
G37*
%LPD*%
%LPC*%
G36*
X255231Y214299D02*
X255231Y214299D01*
X253730Y214536D01*
X252285Y215006D01*
X250932Y215696D01*
X250328Y216134D01*
X261020Y226826D01*
X266768Y221078D01*
X262279Y216589D01*
X261050Y215696D01*
X259696Y215006D01*
X258251Y214536D01*
X256750Y214299D01*
X255231Y214299D01*
G37*
%LPD*%
%LPC*%
G36*
X261019Y228980D02*
X261019Y228980D01*
X261020Y228981D01*
X261021Y228980D01*
X261020Y228979D01*
X261019Y228980D01*
G37*
%LPD*%
D10*
X220070Y259872D02*
X230128Y269930D01*
X248088Y251970D02*
X238030Y241912D01*
X255991Y223951D02*
X266049Y234009D01*
X284009Y216049D02*
X273951Y205991D01*
X291912Y188030D02*
X301970Y198088D01*
X319930Y180128D02*
X309872Y170070D01*
D11*
X647700Y45800D03*
D12*
X667700Y45800D03*
D11*
X627700Y45800D03*
X607700Y45800D03*
X607700Y95800D03*
X627700Y95800D03*
X647700Y95800D03*
X667700Y95800D03*
D13*
X294636Y264636D03*
X334218Y225053D03*
X471718Y235053D03*
X317500Y406368D03*
X265000Y403868D03*
X534218Y302553D03*
X765000Y623868D03*
X409218Y275053D03*
X520000Y137500D03*
X570000Y473949D03*
X740000Y581449D03*
X665000Y586449D03*
X252136Y272136D03*
X585000Y386368D03*
X572500Y436368D03*
X592500Y456368D03*
X515000Y541449D03*
X302500Y648949D03*
X112500Y618949D03*
X572500Y562250D03*
X389218Y225053D03*
X382500Y648949D03*
X660000Y641449D03*
X448750Y452500D03*
X805000Y673868D03*
X642500Y551449D03*
X592500Y553949D03*
X490000Y400000D03*
X840000Y350000D03*
D14*
X598180Y400000D02*
X490000Y400000D01*
X643962Y445782D02*
X654466Y445782D01*
X680000Y360000D02*
X690000Y350000D01*
X840000Y350000D01*
X643962Y445782D02*
X598180Y400000D01*
X680000Y420248D02*
X680000Y360000D01*
X680000Y420248D02*
X654466Y445782D01*
D13*
X850000Y360000D03*
X475000Y400000D03*
D14*
X479218Y404466D02*
X485534Y410782D01*
X494466Y410782D01*
X479218Y404218D02*
X475000Y400000D01*
X479218Y404218D02*
X479218Y404466D01*
X494466Y410782D02*
X495248Y410000D01*
X597574Y410000D01*
X640856Y453282D02*
X657573Y453282D01*
X640856Y453282D02*
X597574Y410000D01*
X845248Y360000D02*
X850000Y360000D01*
X845248Y360000D02*
X844466Y360782D01*
X699218Y360782D01*
X687500Y372500D01*
X687500Y423355D02*
X657573Y453282D01*
X687500Y423355D02*
X687500Y372500D01*
D13*
X850000Y375000D03*
X460000Y400000D03*
D14*
X464218Y404218D01*
X464218Y404466D01*
X470534Y410782D01*
X474927Y410782D01*
X497573Y418282D02*
X498355Y417500D01*
X497573Y418282D02*
X482427Y418282D01*
X474927Y410782D01*
X498355Y417500D02*
X594467Y417500D01*
X637749Y460782D02*
X660679Y460782D01*
X637749Y460782D02*
X594467Y417500D01*
X696718Y424743D02*
X696718Y399927D01*
X696718Y424743D02*
X660679Y460782D01*
X707427Y389218D02*
X725073Y389218D01*
X735782Y399927D01*
X735782Y417694D01*
X707427Y389218D02*
X696718Y399927D01*
X778088Y460000D02*
X799393Y460000D01*
X812500Y446893D01*
X812500Y415855D02*
X804218Y407573D01*
X804218Y392427D01*
X814927Y381718D01*
X812500Y415855D02*
X812500Y446893D01*
X843034Y381718D02*
X845534Y379218D01*
X845782Y379218D01*
X850000Y375000D01*
X843034Y381718D02*
X814927Y381718D01*
X778088Y460000D02*
X735782Y417694D01*
D13*
X850000Y390000D03*
X445000Y400000D03*
D14*
X449218Y404218D01*
X449218Y404466D01*
X455534Y410782D01*
X459927Y410782D01*
X500679Y425782D02*
X501461Y425000D01*
X500679Y425782D02*
X474927Y425782D01*
X459927Y410782D01*
X501461Y425000D02*
X591360Y425000D01*
X634642Y468282D01*
X663786Y468282D01*
X704218Y403034D02*
X710534Y396718D01*
X721966Y396718D01*
X728282Y403034D01*
X728282Y420800D01*
X704218Y427850D02*
X704218Y403034D01*
X777482Y470000D02*
X800000Y470000D01*
X704218Y427850D02*
X663786Y468282D01*
X728282Y420800D02*
X777482Y470000D01*
X800000Y470000D02*
X820000Y450000D01*
X811718Y404466D02*
X811718Y395534D01*
X818034Y389218D01*
X841966Y389218D02*
X842748Y390000D01*
X850000Y390000D01*
X841966Y389218D02*
X818034Y389218D01*
X811718Y404466D02*
X820000Y412748D01*
X820000Y450000D01*
D13*
X822500Y400000D03*
X723125Y373750D03*
X779375Y443125D03*
D14*
X733750Y373750D02*
X723125Y373750D01*
X733750Y373750D02*
X779375Y419375D01*
X779375Y434623D02*
X779375Y443125D01*
X779375Y434623D02*
X779218Y434466D01*
X779218Y425534D01*
X779375Y425377D01*
X779375Y419375D01*
D13*
X770000Y490000D03*
D14*
X759375Y479375D02*
X647500Y479375D01*
X759375Y479375D02*
X770000Y490000D01*
D13*
X647500Y479375D03*
X582500Y532500D03*
X717500Y560000D03*
D14*
X497500Y520000D02*
X481875Y520000D01*
X437500Y435000D02*
X416875Y414375D01*
X437500Y435000D02*
X437500Y475000D01*
X481875Y520000D01*
X416875Y414375D02*
X345625Y414375D01*
X330000Y430000D01*
X225625Y430000D01*
X117500Y510625D02*
X117500Y523750D01*
X265625Y671875D01*
X385625Y671875D01*
X411875Y698125D01*
D13*
X497500Y520000D03*
X225625Y430000D03*
X117500Y510625D03*
X411875Y698125D03*
X575000Y520000D03*
X707500Y570000D03*
D14*
X606875Y520000D02*
X575000Y520000D01*
X628750Y500625D02*
X643125Y500625D01*
X706250Y563750D01*
X706250Y568750D01*
X707500Y570000D01*
D13*
X606875Y520000D03*
X628750Y500625D03*
X557500Y485000D03*
X697500Y580000D03*
D14*
X578125Y543750D02*
X558125Y523750D01*
X578125Y543750D02*
X596875Y543750D01*
X599375Y541250D01*
X640000Y541250D02*
X642500Y538750D01*
X640000Y541250D02*
X599375Y541250D01*
X674375Y552500D02*
X696875Y575000D01*
X697500Y580000D01*
D13*
X642500Y538750D03*
X670625Y552500D03*
D14*
X558125Y485625D02*
X557500Y485000D01*
X558125Y485625D02*
X558125Y523750D01*
X670625Y552500D02*
X674375Y552500D01*
D13*
X535000Y465000D03*
X685782Y590000D03*
D14*
X728750Y553750D02*
X712500Y537500D01*
X728750Y553750D02*
X728750Y575000D01*
X712500Y591250D01*
X687500Y591250D01*
X685782Y590000D01*
X551250Y448750D02*
X535000Y465000D01*
X551250Y448750D02*
X562550Y448750D01*
X596300Y482500D01*
X598713Y482500D01*
X606056Y489843D01*
X642950Y489843D01*
X690607Y537500D01*
X712500Y537500D01*
D13*
X460000Y642356D03*
X675000Y650000D03*
D14*
X497350Y672350D02*
X467356Y642356D01*
X460000Y642356D01*
X497350Y672350D02*
X557350Y672350D01*
X575000Y690000D01*
X635000Y690000D01*
X675000Y650000D01*
D13*
X635000Y612500D03*
D14*
X635000Y564676D01*
X631350Y560826D01*
D13*
X631350Y560826D03*
X618650Y552500D03*
X400000Y650000D03*
X605950Y560000D03*
D14*
X429850Y679850D02*
X400000Y650000D01*
X429850Y679850D02*
X554243Y679850D01*
X571893Y697500D01*
X685782Y671966D02*
X685782Y645534D01*
X664466Y624218D01*
X685782Y671966D02*
X660248Y697500D01*
X571893Y697500D01*
X629755Y624218D02*
X607500Y601963D01*
X607500Y565625D01*
X605950Y564075D01*
X605950Y560000D01*
X629755Y624218D02*
X664466Y624218D01*
D13*
X190000Y434846D03*
X650000Y432500D03*
D14*
X193282Y431564D02*
X190000Y434846D01*
X193282Y431564D02*
X194466Y431564D01*
X215782Y410248D01*
X215782Y399414D01*
X645782Y428282D02*
X650000Y432500D01*
X645782Y428282D02*
X644569Y428282D01*
X257070Y388436D02*
X253634Y385000D01*
X257070Y388436D02*
X309495Y388436D01*
X324181Y373750D01*
X253634Y385000D02*
X230196Y385000D01*
X215782Y399414D01*
X324181Y373750D02*
X590037Y373750D01*
X644569Y428282D01*
D13*
X717500Y407500D03*
X283282Y325154D03*
D14*
X717500Y407500D02*
X717500Y420625D01*
X781250Y484375D01*
X781250Y495625D01*
X736250Y613750D02*
X736250Y619375D01*
X391875Y698125D02*
X286250Y698125D01*
X267500Y679375D01*
X261875Y679375D01*
X106250Y523750D01*
X106250Y499375D01*
X121250Y375625D02*
X171875Y325000D01*
X282500Y325000D01*
X283282Y325154D01*
D13*
X736250Y619375D03*
X391875Y698125D03*
X106250Y499375D03*
X121250Y375625D03*
D14*
X736250Y613750D02*
X755000Y595000D01*
X755000Y521875D02*
X781250Y495625D01*
X755000Y521875D02*
X755000Y595000D01*
D13*
X487848Y751908D03*
X172232Y703808D03*
D14*
X461250Y739850D02*
X483950Y739850D01*
X487848Y743748D02*
X487848Y751908D01*
X487848Y743748D02*
X483950Y739850D01*
X175514Y708274D02*
X175514Y707090D01*
X172232Y703808D01*
X229040Y761800D02*
X439300Y761800D01*
X229040Y761800D02*
X175514Y708274D01*
X439300Y761800D02*
X461250Y739850D01*
D13*
X577000Y490000D03*
D14*
X487848Y751908D02*
X487848Y757848D01*
X500000Y770000D01*
X567801Y770000D01*
X567991Y770190D01*
X610417Y770190D01*
D13*
X800000Y420000D03*
D14*
X660782Y561323D02*
X653282Y568823D01*
X660782Y561323D02*
X660782Y531177D01*
X653282Y568823D02*
X653282Y589483D01*
X703282Y639483D02*
X703282Y677325D01*
X703282Y639483D02*
X653282Y589483D01*
X703282Y677325D02*
X610417Y770190D01*
X660782Y531177D02*
X649605Y520000D01*
X595607Y490000D02*
X577000Y490000D01*
X625157Y512427D02*
X625157Y514550D01*
X625157Y512427D02*
X614448Y501718D01*
X625157Y514550D02*
X630607Y520000D01*
X649605Y520000D01*
X607325Y501718D02*
X595607Y490000D01*
X607325Y501718D02*
X614448Y501718D01*
D13*
X190000Y335936D03*
X650000Y327500D03*
D14*
X645000Y327500D01*
D13*
X440000Y525000D03*
D14*
X190000Y335936D02*
X174064Y335936D01*
X132500Y377500D01*
X373787Y545000D02*
X422500Y545000D01*
X440000Y527500D01*
X440000Y525000D01*
X358787Y530000D02*
X357574Y530000D01*
X345856Y518282D01*
X358787Y530000D02*
X373787Y545000D01*
X315782Y518282D02*
X292500Y495000D01*
X315782Y518282D02*
X345856Y518282D01*
X171360Y495000D02*
X132500Y456140D01*
X132500Y377500D01*
X171360Y495000D02*
X292500Y495000D01*
X190000Y335936D02*
X193436Y332500D01*
X275380Y332500D02*
X278816Y335936D01*
X287748Y335936D01*
X302434Y321250D01*
X275380Y332500D02*
X193436Y332500D01*
X302434Y321250D02*
X638750Y321250D01*
X645000Y327500D01*
D13*
X190000Y350000D03*
X650000Y342500D03*
D14*
X647500Y342500D01*
X190000Y350000D02*
X179393Y350000D01*
X140000Y389393D01*
X140000Y453033D01*
D13*
X425000Y525000D03*
D14*
X417500Y537500D02*
X376893Y537500D01*
X425000Y530000D02*
X425000Y525000D01*
X425000Y530000D02*
X417500Y537500D01*
X200000Y350000D02*
X190000Y350000D01*
X633750Y328750D02*
X647500Y342500D01*
X361893Y522500D02*
X360680Y522500D01*
X348962Y510782D01*
X320782Y510782D01*
X297500Y487500D01*
X361893Y522500D02*
X376893Y537500D01*
X297500Y487500D02*
X174467Y487500D01*
X140000Y453033D01*
X272273Y340000D02*
X275709Y343436D01*
X290855Y343436D01*
X305541Y328750D01*
X272273Y340000D02*
X210000Y340000D01*
X200000Y350000D01*
X305541Y328750D02*
X633750Y328750D01*
D13*
X190000Y364064D03*
X650000Y357500D03*
D14*
X647500Y357500D01*
X190000Y364064D02*
X178436Y364064D01*
X147500Y395000D01*
D13*
X410000Y525000D03*
D14*
X407500Y527500D01*
X377500Y527500D01*
X365000Y515000D01*
X196543Y364064D02*
X190000Y364064D01*
X363787Y515000D02*
X365000Y515000D01*
X363787Y515000D02*
X352069Y503282D01*
X325782Y503282D02*
X302500Y480000D01*
X325782Y503282D02*
X352069Y503282D01*
X147500Y449927D02*
X147500Y395000D01*
X177574Y480000D02*
X302500Y480000D01*
X177574Y480000D02*
X147500Y449927D01*
X269167Y347500D02*
X272603Y350936D01*
X293961Y350936D01*
X308647Y336250D01*
X269167Y347500D02*
X213107Y347500D01*
X196543Y364064D01*
X308647Y336250D02*
X626250Y336250D01*
X647500Y357500D01*
D13*
X190000Y378128D03*
X650000Y372500D03*
D14*
X647500Y372500D01*
D13*
X392500Y515000D03*
D14*
X388282Y510782D01*
X155000Y446820D02*
X155000Y405000D01*
X181872Y378128D02*
X190000Y378128D01*
X181872Y378128D02*
X155000Y405000D01*
X190000Y378128D02*
X193085Y378128D01*
X216213Y355000D01*
X380782Y510782D02*
X388282Y510782D01*
X377500Y507500D02*
X366893Y507500D01*
X355175Y495782D01*
X377500Y507500D02*
X380782Y510782D01*
X355175Y495782D02*
X330782Y495782D01*
X307500Y472500D01*
X180680Y472500D01*
X155000Y446820D01*
X266060Y355000D02*
X269496Y358436D01*
X297068Y358436D01*
X311754Y343750D01*
X266060Y355000D02*
X216213Y355000D01*
X311754Y343750D02*
X618750Y343750D01*
X647500Y372500D01*
D13*
X190000Y392192D03*
X650000Y387500D03*
D14*
X648107Y387500D01*
D13*
X390000Y500000D03*
D14*
X190000Y392192D02*
X180308Y392192D01*
X162500Y410000D01*
X162500Y443713D01*
X190000Y392192D02*
X193282Y388910D01*
X194466Y388910D01*
X220876Y362500D01*
X335782Y488282D02*
X358282Y488282D01*
X335782Y488282D02*
X312500Y465000D01*
X370000Y500000D02*
X390000Y500000D01*
X370000Y500000D02*
X358282Y488282D01*
X312500Y465000D02*
X183787Y465000D01*
X162500Y443713D01*
X262954Y362500D02*
X266390Y365936D01*
X300175Y365936D01*
X314861Y351250D01*
X262954Y362500D02*
X220876Y362500D01*
X314861Y351250D02*
X611857Y351250D01*
X648107Y387500D01*
D13*
X190000Y406256D03*
X650000Y402500D03*
D14*
X647500Y402500D01*
D13*
X375000Y480000D03*
D14*
X354466Y480782D02*
X343282Y480782D01*
X320000Y457500D01*
X354466Y480782D02*
X355248Y480000D01*
X375000Y480000D01*
X190000Y406256D02*
X183744Y406256D01*
X170000Y420000D01*
X170000Y440607D01*
X194466Y402974D02*
X200782Y396658D01*
X200782Y393201D01*
X193282Y402974D02*
X190000Y406256D01*
X193282Y402974D02*
X194466Y402974D01*
X603750Y358750D02*
X647500Y402500D01*
X320000Y457500D02*
X186893Y457500D01*
X170000Y440607D01*
X259847Y370000D02*
X263283Y373436D01*
X303281Y373436D01*
X317967Y358750D01*
X259847Y370000D02*
X223983Y370000D01*
X200782Y393201D01*
X317967Y358750D02*
X603750Y358750D01*
D13*
X190000Y420782D03*
X650000Y417500D03*
X350000Y470000D03*
D14*
X345000Y470000D01*
X325000Y450000D01*
X190000Y450000D01*
X177500Y437500D01*
X180782Y420782D02*
X190000Y420782D01*
X180782Y420782D02*
X180303Y420303D01*
X177500Y423107D01*
X177500Y437500D01*
X208282Y396307D02*
X227089Y377500D01*
X193744Y417038D02*
X190000Y420782D01*
X193744Y417038D02*
X194466Y417038D01*
X208282Y403222D01*
X208282Y396307D01*
X645782Y413282D02*
X650000Y417500D01*
X645782Y413282D02*
X645175Y413282D01*
X598143Y366250D01*
X260176Y380936D02*
X256740Y377500D01*
X260176Y380936D02*
X306388Y380936D01*
X321074Y366250D01*
X256740Y377500D02*
X227089Y377500D01*
X321074Y366250D02*
X598143Y366250D01*
D13*
X473784Y751908D03*
X158168Y703808D03*
D14*
X459799Y751908D02*
X473784Y751908D01*
X459799Y751908D02*
X442407Y769300D01*
X161450Y708274D02*
X161450Y707090D01*
X158168Y703808D01*
X222476Y769300D02*
X442407Y769300D01*
X222476Y769300D02*
X161450Y708274D01*
X86915Y696308D02*
X17500Y626893D01*
X150668Y696308D02*
X158168Y703808D01*
X150668Y696308D02*
X86915Y696308D01*
X17500Y626893D02*
X17500Y219467D01*
X144467Y92500D01*
X422500Y92500D02*
X427500Y87500D01*
X422500Y92500D02*
X144467Y92500D01*
D13*
X427500Y87500D03*
X770000Y530000D03*
X837500Y400000D03*
D14*
X531250Y495000D02*
X485000Y448750D01*
X770000Y518125D02*
X770000Y530000D01*
X770000Y518125D02*
X840000Y448125D01*
X840000Y402500D01*
X837500Y400000D01*
X770000Y530000D02*
X770000Y602500D01*
X749375Y623125D01*
X749375Y641875D01*
X612500Y778750D01*
X498125Y778750D01*
X471875Y752500D01*
X473784Y751908D01*
D13*
X548750Y541250D03*
X485000Y448750D03*
D14*
X548750Y538750D02*
X548750Y541250D01*
X548750Y538750D02*
X531250Y521250D01*
X531250Y495000D01*
D13*
X160000Y550000D03*
X480000Y640000D03*
D14*
X163282Y553282D02*
X160000Y550000D01*
X163282Y553282D02*
X163282Y554466D01*
X238816Y630000D01*
X470000Y630000D02*
X480000Y640000D01*
X470000Y630000D02*
X238816Y630000D01*
X480000Y640000D02*
X480000Y642500D01*
X502350Y664850D01*
X560457Y664850D01*
X627500Y663107D02*
X627500Y635069D01*
X590000Y597569D01*
X627500Y663107D02*
X618107Y672500D01*
X568107Y672500D02*
X560457Y664850D01*
X568107Y672500D02*
X618107Y672500D01*
X555716Y464284D02*
X555716Y459532D01*
D13*
X555716Y459532D03*
D14*
X555716Y464284D02*
X546718Y473282D01*
X550000Y492748D02*
X550000Y526232D01*
X546718Y489466D02*
X546718Y473282D01*
X546718Y489466D02*
X550000Y492748D01*
X550000Y526232D02*
X590000Y566232D01*
X590000Y597569D01*
D13*
X286576Y550000D03*
X606576Y640000D03*
D14*
X286576Y556576D02*
X286576Y550000D01*
X286576Y556576D02*
X292500Y562500D01*
X603294Y635534D02*
X603294Y636718D01*
X606576Y640000D01*
X530260Y562500D02*
X292500Y562500D01*
X530260Y562500D02*
X603294Y635534D01*
D13*
X560000Y257500D03*
D14*
X165754Y520000D02*
X105000Y459246D01*
X165754Y520000D02*
X270000Y520000D01*
X286576Y536576D02*
X286576Y550000D01*
X286576Y536576D02*
X270000Y520000D01*
X357500Y292500D02*
X162252Y292500D01*
X357500Y292500D02*
X395729Y254271D01*
X483684Y254271D01*
X504413Y275000D01*
X560000Y267500D02*
X560000Y257500D01*
X552500Y275000D02*
X504413Y275000D01*
X552500Y275000D02*
X560000Y267500D01*
X105000Y349752D02*
X105000Y459246D01*
X105000Y349752D02*
X162252Y292500D01*
D13*
X272512Y550000D03*
X592512Y640000D03*
D14*
X272512Y562512D02*
X272512Y550000D01*
X272512Y562512D02*
X280000Y570000D01*
X589230Y635534D02*
X589230Y636718D01*
X592512Y640000D01*
X589230Y635534D02*
X523696Y570000D01*
X280000Y570000D01*
D13*
X545000Y257500D03*
D14*
X162647Y527500D02*
X97500Y462353D01*
X162647Y527500D02*
X266893Y527500D01*
X272512Y533119D02*
X272512Y550000D01*
X272512Y533119D02*
X266893Y527500D01*
X354393Y285000D02*
X392622Y246771D01*
X354393Y285000D02*
X159145Y285000D01*
X392622Y246771D02*
X486791Y246771D01*
X535000Y267500D02*
X545000Y257500D01*
X507520Y267500D02*
X486791Y246771D01*
X507520Y267500D02*
X535000Y267500D01*
X97500Y346645D02*
X97500Y462353D01*
X97500Y346645D02*
X159145Y285000D01*
D13*
X258448Y550000D03*
X578448Y640000D03*
D14*
X261730Y553282D02*
X258448Y550000D01*
X261730Y553282D02*
X261730Y562337D01*
X276893Y577500D01*
X575166Y635534D02*
X575166Y636718D01*
X578448Y640000D01*
X517132Y577500D02*
X276893Y577500D01*
X517132Y577500D02*
X575166Y635534D01*
D13*
X520000Y525782D03*
D14*
X520000Y500000D01*
X474218Y454218D01*
D13*
X470000Y436918D03*
D14*
X474218Y441136D01*
X474218Y454218D01*
D13*
X244384Y550000D03*
X564384Y640000D03*
D14*
X247666Y553282D02*
X244384Y550000D01*
X247666Y553282D02*
X247666Y558879D01*
X273787Y585000D01*
X561102Y635534D02*
X561102Y636718D01*
X564384Y640000D01*
X561102Y635534D02*
X510568Y585000D01*
X273787Y585000D01*
D13*
X450000Y430000D03*
D14*
X441250Y427500D02*
X420625Y406875D01*
X341875Y406875D01*
X330000Y418750D01*
X220000Y418750D01*
X214375Y424375D01*
X214375Y435625D01*
X220000Y441250D01*
X372500Y441250D01*
X451250Y520000D01*
X451250Y529375D01*
X426875Y553750D01*
X310625Y553750D01*
X297500Y540625D01*
D13*
X297500Y540625D03*
D14*
X441250Y427500D02*
X447500Y427500D01*
X450000Y430000D01*
D13*
X230320Y550000D03*
X550320Y640000D03*
D14*
X233602Y553282D02*
X230320Y550000D01*
X233602Y553282D02*
X233602Y555422D01*
X270680Y592500D01*
X547038Y635534D02*
X547038Y636718D01*
X550320Y640000D01*
X547038Y635534D02*
X504004Y592500D01*
X270680Y592500D01*
D13*
X416670Y429418D03*
D14*
X550320Y640000D02*
X550320Y642820D01*
X572500Y665000D01*
X609218Y629218D02*
X611042Y629218D01*
X505000Y555000D02*
X414170Y464170D01*
X535000Y555000D02*
X609218Y629218D01*
X535000Y555000D02*
X505000Y555000D01*
X414170Y464170D02*
X414170Y431918D01*
X416670Y429418D01*
X572500Y665000D02*
X615000Y665000D01*
X620000Y660000D01*
X620000Y638176D01*
X611042Y629218D01*
D13*
X216256Y550000D03*
X536256Y640000D03*
D14*
X219538Y553282D02*
X216256Y550000D01*
X219538Y553282D02*
X219538Y554466D01*
X265072Y600000D01*
X532974Y635534D02*
X532974Y636718D01*
X536256Y640000D01*
X532974Y635534D02*
X497440Y600000D01*
X265072Y600000D01*
D13*
X187404Y257404D03*
D14*
X186875Y257500D02*
X183125Y261250D01*
X183125Y263125D01*
X170000Y276250D01*
X126875Y276250D01*
X78125Y325000D01*
X78125Y469375D01*
X96875Y488125D01*
X186875Y257500D02*
X187404Y257404D01*
D13*
X96875Y488125D03*
X202192Y550000D03*
X522192Y640000D03*
D14*
X205474Y553282D02*
X202192Y550000D01*
X205474Y553282D02*
X205474Y554466D01*
X258508Y607500D01*
X518910Y635534D02*
X518910Y636718D01*
X522192Y640000D01*
X518910Y635534D02*
X490876Y607500D01*
X258508Y607500D01*
D13*
X440000Y210000D03*
X188128Y550000D03*
X508128Y640000D03*
D14*
X191410Y553282D02*
X188128Y550000D01*
X191410Y553282D02*
X191410Y554466D01*
X251944Y615000D01*
X504846Y635534D02*
X504846Y636718D01*
X508128Y640000D01*
X504846Y635534D02*
X484312Y615000D01*
X251944Y615000D01*
D13*
X430000Y200000D03*
X516496Y751908D03*
X200360Y703808D03*
D14*
X433087Y746800D02*
X455037Y724850D01*
X513214Y747442D02*
X513214Y748626D01*
X516496Y751908D01*
X490622Y724850D02*
X455037Y724850D01*
X490622Y724850D02*
X513214Y747442D01*
X203642Y708274D02*
X203642Y707090D01*
X200360Y703808D01*
X242168Y746800D02*
X433087Y746800D01*
X242168Y746800D02*
X203642Y708274D01*
D13*
X630000Y260000D03*
D14*
X147489Y678026D02*
X144207Y681308D01*
X197078Y700526D02*
X200360Y703808D01*
X197078Y700526D02*
X197078Y699342D01*
X175762Y678026D01*
X147489Y678026D01*
X144207Y681308D02*
X93128Y681308D01*
X32500Y620680D01*
X32500Y225680D02*
X150680Y107500D01*
X32500Y225680D02*
X32500Y620680D01*
X617927Y197321D02*
X617927Y197321D01*
X429320Y107500D02*
X150680Y107500D01*
X429320Y107500D02*
X433713Y111893D01*
X532500Y111893D01*
X617927Y197321D01*
X630000Y209393D02*
X630000Y260000D01*
X630000Y209393D02*
X617927Y197321D01*
D13*
X530560Y751908D03*
X214424Y703808D03*
D14*
X429980Y739300D02*
X451930Y717350D01*
X527278Y747442D02*
X527278Y748626D01*
X530560Y751908D01*
X497186Y717350D02*
X451930Y717350D01*
X497186Y717350D02*
X527278Y747442D01*
X217706Y708274D02*
X217706Y707090D01*
X214424Y703808D01*
X248732Y739300D02*
X429980Y739300D01*
X248732Y739300D02*
X217706Y708274D01*
D13*
X614821Y259821D03*
D14*
X144382Y670526D02*
X141100Y673808D01*
X211142Y700526D02*
X214424Y703808D01*
X211142Y700526D02*
X211142Y699342D01*
X182326Y670526D01*
X144382Y670526D01*
X141100Y673808D02*
X96235Y673808D01*
X40000Y617574D01*
X40000Y228787D02*
X153787Y115000D01*
X426213Y115000D02*
X430607Y119393D01*
X529393Y119393D01*
X40000Y228787D02*
X40000Y617574D01*
X614821Y259821D02*
X614821Y204821D01*
X529393Y119393D01*
X426213Y115000D02*
X153787Y115000D01*
D13*
X575564Y751908D03*
X256700Y703808D03*
D14*
X256700Y705800D01*
X267700Y716800D01*
X420660Y716800D01*
X572282Y747442D02*
X572282Y748626D01*
X575564Y751908D01*
X442610Y694850D02*
X420660Y716800D01*
X442610Y694850D02*
X519690Y694850D01*
X572282Y747442D01*
D13*
X530000Y252500D03*
D14*
X253334Y700442D02*
X256700Y703808D01*
X253334Y700442D02*
X253334Y699342D01*
X209518Y655526D01*
X102448Y658808D02*
X55000Y611360D01*
X55000Y235000D01*
X102448Y658808D02*
X134887Y658808D01*
X138169Y655526D01*
X209518Y655526D01*
X160000Y130000D02*
X410000Y130000D01*
X490000Y210000D02*
X510000Y210000D01*
X160000Y130000D02*
X55000Y235000D01*
X410000Y130000D02*
X490000Y210000D01*
X530000Y230000D02*
X530000Y252500D01*
X530000Y230000D02*
X510000Y210000D01*
D13*
X544624Y751908D03*
X228488Y703808D03*
D14*
X541342Y747442D02*
X541342Y748626D01*
X544624Y751908D01*
X448824Y709850D02*
X426874Y731800D01*
X448824Y709850D02*
X503750Y709850D01*
X541342Y747442D01*
X231770Y708274D02*
X231770Y707090D01*
X228488Y703808D01*
X255296Y731800D02*
X426874Y731800D01*
X255296Y731800D02*
X231770Y708274D01*
D13*
X515000Y252500D03*
D14*
X141275Y663026D02*
X137993Y666308D01*
X225206Y700526D02*
X228488Y703808D01*
X225206Y700526D02*
X225206Y699342D01*
X188890Y663026D01*
X141275Y663026D01*
X137993Y666308D02*
X99341Y666308D01*
X47500Y614467D01*
X430303Y139697D02*
X413107Y122500D01*
X156893Y122500D02*
X47500Y231893D01*
X156893Y122500D02*
X413107Y122500D01*
X47500Y231893D02*
X47500Y614467D01*
X430303Y139697D02*
X434945Y139697D01*
X445000Y150000D01*
X452376Y157376D01*
X460124Y157376D01*
D13*
X460124Y157376D03*
X407500Y160000D03*
D14*
X429393Y160000D01*
X486893Y217500D01*
X506893Y217500D01*
X515000Y225607D02*
X515000Y252500D01*
X515000Y225607D02*
X506893Y217500D01*
D13*
X174064Y550000D03*
X494064Y640000D03*
D14*
X177346Y553282D02*
X174064Y550000D01*
X177346Y553282D02*
X177346Y554466D01*
X245380Y622500D01*
X490782Y635534D02*
X490782Y636718D01*
X494064Y640000D01*
X490782Y635534D02*
X477748Y622500D01*
X245380Y622500D01*
D13*
X465000Y272500D03*
D14*
X159540Y535000D02*
X90000Y465460D01*
X159540Y535000D02*
X167500Y535000D01*
X174064Y541564D01*
X174064Y550000D01*
D13*
X90000Y330000D03*
X120000Y350000D03*
D14*
X90000Y330000D02*
X90000Y465460D01*
X120000Y350000D02*
X120000Y345359D01*
X165359Y300000D01*
X360607Y300000D01*
X398836Y261771D01*
X460000Y261771D01*
X465000Y266771D02*
X465000Y272500D01*
X465000Y266771D02*
X460000Y261771D01*
D13*
X502432Y751908D03*
X186296Y703808D03*
D14*
X458143Y732350D02*
X487057Y732350D01*
X458143Y732350D02*
X436193Y754300D01*
X487057Y732350D02*
X498630Y743923D01*
X498630Y748106D01*
X502432Y751908D01*
X189578Y708274D02*
X189578Y707090D01*
X186296Y703808D01*
X235604Y754300D02*
X436193Y754300D01*
X235604Y754300D02*
X189578Y708274D01*
D13*
X445000Y275000D03*
D14*
X150595Y685526D02*
X147313Y688808D01*
X183014Y700526D02*
X186296Y703808D01*
X183014Y700526D02*
X183014Y699342D01*
X169198Y685526D01*
X150595Y685526D01*
X147313Y688808D02*
X90021Y688808D01*
X25000Y623787D01*
X650000Y270000D02*
X650000Y240000D01*
X650000Y270000D02*
X630000Y290000D01*
X460000Y290000D01*
X445000Y275000D01*
X147574Y100000D02*
X25000Y222574D01*
X25000Y623787D01*
X147574Y100000D02*
X432500Y100000D01*
X621034Y189821D02*
X621034Y189821D01*
X637500Y227500D02*
X650000Y240000D01*
X637500Y206287D02*
X621034Y189821D01*
X637500Y206287D02*
X637500Y227500D01*
X436893Y104393D02*
X432500Y100000D01*
X436893Y104393D02*
X535607Y104393D01*
X621034Y189821D01*
D13*
X589628Y751908D03*
X270764Y703808D03*
D14*
X280108Y703808D01*
X285600Y709300D01*
X417554Y709300D01*
X586346Y747442D02*
X586346Y748626D01*
X589628Y751908D01*
X439504Y687350D02*
X417554Y709300D01*
X439504Y687350D02*
X526254Y687350D01*
X586346Y747442D01*
X270764Y703808D02*
X267482Y700526D01*
X267482Y699342D01*
X216166Y648026D01*
X135062Y648026D02*
X131780Y651308D01*
X135062Y648026D02*
X216166Y648026D01*
X131780Y651308D02*
X105554Y651308D01*
X62500Y608254D01*
X62500Y242500D01*
D13*
X172500Y257500D03*
D14*
X172500Y242500D01*
X160000Y230000D01*
X75000Y230000D02*
X62500Y242500D01*
X75000Y230000D02*
X160000Y230000D01*
D13*
X561500Y751908D03*
X242552Y703808D03*
D14*
X423767Y724300D02*
X445717Y702350D01*
X511942Y702350D01*
X561500Y751908D01*
X245918Y708274D02*
X245918Y707174D01*
X242552Y703808D01*
X261944Y724300D02*
X423767Y724300D01*
X261944Y724300D02*
X245918Y708274D01*
D13*
X577500Y505000D03*
D14*
X564782Y756374D02*
X571098Y762690D01*
X564782Y755190D02*
X561500Y751908D01*
X564782Y755190D02*
X564782Y756374D01*
X571098Y762690D02*
X607310Y762690D01*
D13*
X790000Y430000D03*
D14*
X653282Y534284D02*
X653282Y558216D01*
X581718Y509218D02*
X577500Y505000D01*
X693282Y676718D02*
X607310Y762690D01*
X645782Y565716D02*
X653282Y558216D01*
X645782Y592589D02*
X693282Y640089D01*
X645782Y592589D02*
X645782Y565716D01*
X653282Y534284D02*
X646498Y527500D01*
X693282Y640089D02*
X693282Y676718D01*
X627500Y527500D02*
X617657Y517657D01*
X617657Y515534D01*
X611341Y509218D01*
X627500Y527500D02*
X646498Y527500D01*
X611341Y509218D02*
X581718Y509218D01*
D13*
X707500Y375000D03*
X283342Y311090D03*
D14*
X656875Y313750D02*
X665000Y321875D01*
X656875Y313750D02*
X286250Y313750D01*
X284375Y311875D01*
X283342Y311090D01*
D13*
X665000Y321875D03*
M02*
