G04 EAGLE Gerber RS-274X export*
G75*
%MOMM*%
%FSLAX34Y34*%
%LPD*%
%IN*%
%IPPOS*%
%AMOC8*
5,1,8,0,0,1.08239X$1,22.5*%
G01*
%ADD10C,0.254000*%


D10*
X0Y50800D02*
X193Y46373D01*
X772Y41979D01*
X1731Y37652D01*
X3064Y33425D01*
X4760Y29331D01*
X6806Y25400D01*
X9187Y21662D01*
X11885Y18146D01*
X14879Y14879D01*
X18146Y11885D01*
X21662Y9187D01*
X25400Y6806D01*
X29331Y4760D01*
X33425Y3064D01*
X37652Y1731D01*
X41979Y772D01*
X46373Y193D01*
X50800Y0D01*
X831700Y0D01*
X836128Y193D01*
X840521Y772D01*
X844848Y1731D01*
X849075Y3064D01*
X853169Y4760D01*
X857100Y6806D01*
X860838Y9187D01*
X864354Y11885D01*
X867621Y14879D01*
X870615Y18146D01*
X873313Y21662D01*
X875694Y25400D01*
X877740Y29331D01*
X879436Y33425D01*
X880769Y37652D01*
X881728Y41979D01*
X882307Y46373D01*
X882500Y50800D01*
X882500Y761700D01*
X882307Y766128D01*
X881728Y770521D01*
X880769Y774848D01*
X879436Y779075D01*
X877740Y783169D01*
X875694Y787100D01*
X873313Y790838D01*
X870615Y794354D01*
X867621Y797621D01*
X864354Y800615D01*
X860838Y803313D01*
X857100Y805694D01*
X853169Y807740D01*
X849075Y809436D01*
X844848Y810769D01*
X840521Y811728D01*
X836128Y812307D01*
X831700Y812500D01*
X50800Y812500D01*
X46373Y812307D01*
X41979Y811728D01*
X37652Y810769D01*
X33425Y809436D01*
X29331Y807740D01*
X25400Y805694D01*
X21662Y803313D01*
X18146Y800615D01*
X14879Y797621D01*
X11885Y794354D01*
X9187Y790838D01*
X6806Y787100D01*
X4760Y783169D01*
X3064Y779075D01*
X1731Y774848D01*
X772Y770521D01*
X193Y766128D01*
X0Y761700D01*
X0Y50800D01*
X599700Y110463D02*
X599625Y109793D01*
X599475Y109136D01*
X599252Y108500D01*
X598960Y107893D01*
X598601Y107323D01*
X598181Y106796D01*
X597704Y106319D01*
X597178Y105899D01*
X596607Y105540D01*
X596000Y105248D01*
X595364Y105025D01*
X594707Y104875D01*
X594037Y104800D01*
X593363Y104800D01*
X592693Y104875D01*
X592036Y105025D01*
X591400Y105248D01*
X590793Y105540D01*
X590223Y105899D01*
X589696Y106319D01*
X589219Y106796D01*
X588799Y107323D01*
X588440Y107893D01*
X588148Y108500D01*
X587925Y109136D01*
X587775Y109793D01*
X587700Y110463D01*
X587700Y111137D01*
X587775Y111807D01*
X587925Y112464D01*
X588148Y113100D01*
X588440Y113707D01*
X588799Y114278D01*
X589219Y114804D01*
X589696Y115281D01*
X590223Y115701D01*
X590793Y116060D01*
X591400Y116352D01*
X592036Y116575D01*
X592693Y116725D01*
X593363Y116800D01*
X594037Y116800D01*
X594707Y116725D01*
X595364Y116575D01*
X596000Y116352D01*
X596607Y116060D01*
X597178Y115701D01*
X597704Y115281D01*
X598181Y114804D01*
X598601Y114278D01*
X598960Y113707D01*
X599252Y113100D01*
X599475Y112464D01*
X599625Y111807D01*
X599700Y111137D01*
X599700Y110463D01*
X773631Y218302D02*
X774216Y218225D01*
X774786Y218072D01*
X775331Y217847D01*
X775841Y217552D01*
X776309Y217193D01*
X776727Y216775D01*
X777086Y216307D01*
X777381Y215797D01*
X777606Y215252D01*
X777759Y214682D01*
X777836Y214097D01*
X777836Y213507D01*
X777759Y212922D01*
X777606Y212352D01*
X777381Y211807D01*
X777086Y211297D01*
X776727Y210829D01*
X776309Y210411D01*
X775841Y210052D01*
X775331Y209757D01*
X774786Y209532D01*
X774216Y209379D01*
X773631Y209302D01*
X773041Y209302D01*
X772456Y209379D01*
X771886Y209532D01*
X771341Y209757D01*
X770831Y210052D01*
X770363Y210411D01*
X769945Y210829D01*
X769586Y211297D01*
X769291Y211807D01*
X769066Y212352D01*
X768913Y212922D01*
X768836Y213507D01*
X768836Y214097D01*
X768913Y214682D01*
X769066Y215252D01*
X769291Y215797D01*
X769586Y216307D01*
X769945Y216775D01*
X770363Y217193D01*
X770831Y217552D01*
X771341Y217847D01*
X771886Y218072D01*
X772456Y218225D01*
X773041Y218302D01*
X773631Y218302D01*
X773631Y262498D02*
X774216Y262421D01*
X774786Y262268D01*
X775331Y262043D01*
X775841Y261748D01*
X776309Y261389D01*
X776727Y260971D01*
X777086Y260503D01*
X777381Y259993D01*
X777606Y259448D01*
X777759Y258878D01*
X777836Y258293D01*
X777836Y257703D01*
X777759Y257118D01*
X777606Y256548D01*
X777381Y256003D01*
X777086Y255493D01*
X776727Y255025D01*
X776309Y254607D01*
X775841Y254248D01*
X775331Y253953D01*
X774786Y253728D01*
X774216Y253575D01*
X773631Y253498D01*
X773041Y253498D01*
X772456Y253575D01*
X771886Y253728D01*
X771341Y253953D01*
X770831Y254248D01*
X770363Y254607D01*
X769945Y255025D01*
X769586Y255493D01*
X769291Y256003D01*
X769066Y256548D01*
X768913Y257118D01*
X768836Y257703D01*
X768836Y258293D01*
X768913Y258878D01*
X769066Y259448D01*
X769291Y259993D01*
X769586Y260503D01*
X769945Y260971D01*
X770363Y261389D01*
X770831Y261748D01*
X771341Y262043D01*
X771886Y262268D01*
X772456Y262421D01*
X773041Y262498D01*
X773631Y262498D01*
X849480Y761118D02*
X849404Y759956D01*
X849252Y758802D01*
X849025Y757660D01*
X848724Y756536D01*
X848349Y755434D01*
X847904Y754358D01*
X847389Y753314D01*
X846807Y752306D01*
X846160Y751338D01*
X845452Y750414D01*
X844684Y749539D01*
X843861Y748716D01*
X842986Y747949D01*
X842062Y747240D01*
X841094Y746593D01*
X840086Y746011D01*
X839042Y745496D01*
X837966Y745051D01*
X836864Y744677D01*
X835740Y744375D01*
X834598Y744148D01*
X833444Y743996D01*
X832282Y743920D01*
X831118Y743920D01*
X829956Y743996D01*
X828802Y744148D01*
X827660Y744375D01*
X826536Y744677D01*
X825434Y745051D01*
X824358Y745496D01*
X823314Y746011D01*
X822306Y746593D01*
X821338Y747240D01*
X820414Y747949D01*
X819539Y748716D01*
X818716Y749539D01*
X817949Y750414D01*
X817240Y751338D01*
X816593Y752306D01*
X816011Y753314D01*
X815496Y754358D01*
X815051Y755434D01*
X814677Y756536D01*
X814375Y757660D01*
X814148Y758802D01*
X813996Y759956D01*
X813920Y761118D01*
X813920Y762282D01*
X813996Y763444D01*
X814148Y764598D01*
X814375Y765740D01*
X814677Y766864D01*
X815051Y767966D01*
X815496Y769042D01*
X816011Y770086D01*
X816593Y771094D01*
X817240Y772062D01*
X817949Y772986D01*
X818716Y773861D01*
X819539Y774684D01*
X820414Y775452D01*
X821338Y776160D01*
X822306Y776807D01*
X823314Y777389D01*
X824358Y777904D01*
X825434Y778349D01*
X826536Y778724D01*
X827660Y779025D01*
X828802Y779252D01*
X829956Y779404D01*
X831118Y779480D01*
X832282Y779480D01*
X833444Y779404D01*
X834598Y779252D01*
X835740Y779025D01*
X836864Y778724D01*
X837966Y778349D01*
X839042Y777904D01*
X840086Y777389D01*
X841094Y776807D01*
X842062Y776160D01*
X842986Y775452D01*
X843861Y774684D01*
X844684Y773861D01*
X845452Y772986D01*
X846160Y772062D01*
X846807Y771094D01*
X847389Y770086D01*
X847904Y769042D01*
X848349Y767966D01*
X848724Y766864D01*
X849025Y765740D01*
X849252Y764598D01*
X849404Y763444D01*
X849480Y762282D01*
X849480Y761118D01*
X68580Y761118D02*
X68504Y759956D01*
X68352Y758802D01*
X68125Y757660D01*
X67824Y756536D01*
X67449Y755434D01*
X67004Y754358D01*
X66489Y753314D01*
X65907Y752306D01*
X65260Y751338D01*
X64552Y750414D01*
X63784Y749539D01*
X62961Y748716D01*
X62086Y747949D01*
X61162Y747240D01*
X60194Y746593D01*
X59186Y746011D01*
X58142Y745496D01*
X57066Y745051D01*
X55964Y744677D01*
X54840Y744375D01*
X53698Y744148D01*
X52544Y743996D01*
X51382Y743920D01*
X50218Y743920D01*
X49056Y743996D01*
X47902Y744148D01*
X46760Y744375D01*
X45636Y744677D01*
X44534Y745051D01*
X43458Y745496D01*
X42414Y746011D01*
X41406Y746593D01*
X40438Y747240D01*
X39514Y747949D01*
X38639Y748716D01*
X37816Y749539D01*
X37049Y750414D01*
X36340Y751338D01*
X35693Y752306D01*
X35111Y753314D01*
X34596Y754358D01*
X34151Y755434D01*
X33777Y756536D01*
X33475Y757660D01*
X33248Y758802D01*
X33096Y759956D01*
X33020Y761118D01*
X33020Y762282D01*
X33096Y763444D01*
X33248Y764598D01*
X33475Y765740D01*
X33777Y766864D01*
X34151Y767966D01*
X34596Y769042D01*
X35111Y770086D01*
X35693Y771094D01*
X36340Y772062D01*
X37049Y772986D01*
X37816Y773861D01*
X38639Y774684D01*
X39514Y775452D01*
X40438Y776160D01*
X41406Y776807D01*
X42414Y777389D01*
X43458Y777904D01*
X44534Y778349D01*
X45636Y778724D01*
X46760Y779025D01*
X47902Y779252D01*
X49056Y779404D01*
X50218Y779480D01*
X51382Y779480D01*
X52544Y779404D01*
X53698Y779252D01*
X54840Y779025D01*
X55964Y778724D01*
X57066Y778349D01*
X58142Y777904D01*
X59186Y777389D01*
X60194Y776807D01*
X61162Y776160D01*
X62086Y775452D01*
X62961Y774684D01*
X63784Y773861D01*
X64552Y772986D01*
X65260Y772062D01*
X65907Y771094D01*
X66489Y770086D01*
X67004Y769042D01*
X67449Y767966D01*
X67824Y766864D01*
X68125Y765740D01*
X68352Y764598D01*
X68504Y763444D01*
X68580Y762282D01*
X68580Y761118D01*
X68580Y50218D02*
X68504Y49056D01*
X68352Y47902D01*
X68125Y46760D01*
X67824Y45636D01*
X67449Y44534D01*
X67004Y43458D01*
X66489Y42414D01*
X65907Y41406D01*
X65260Y40438D01*
X64552Y39514D01*
X63784Y38639D01*
X62961Y37816D01*
X62086Y37049D01*
X61162Y36340D01*
X60194Y35693D01*
X59186Y35111D01*
X58142Y34596D01*
X57066Y34151D01*
X55964Y33777D01*
X54840Y33475D01*
X53698Y33248D01*
X52544Y33096D01*
X51382Y33020D01*
X50218Y33020D01*
X49056Y33096D01*
X47902Y33248D01*
X46760Y33475D01*
X45636Y33777D01*
X44534Y34151D01*
X43458Y34596D01*
X42414Y35111D01*
X41406Y35693D01*
X40438Y36340D01*
X39514Y37049D01*
X38639Y37816D01*
X37816Y38639D01*
X37049Y39514D01*
X36340Y40438D01*
X35693Y41406D01*
X35111Y42414D01*
X34596Y43458D01*
X34151Y44534D01*
X33777Y45636D01*
X33475Y46760D01*
X33248Y47902D01*
X33096Y49056D01*
X33020Y50218D01*
X33020Y51382D01*
X33096Y52544D01*
X33248Y53698D01*
X33475Y54840D01*
X33777Y55964D01*
X34151Y57066D01*
X34596Y58142D01*
X35111Y59186D01*
X35693Y60194D01*
X36340Y61162D01*
X37049Y62086D01*
X37816Y62961D01*
X38639Y63784D01*
X39514Y64552D01*
X40438Y65260D01*
X41406Y65907D01*
X42414Y66489D01*
X43458Y67004D01*
X44534Y67449D01*
X45636Y67824D01*
X46760Y68125D01*
X47902Y68352D01*
X49056Y68504D01*
X50218Y68580D01*
X51382Y68580D01*
X52544Y68504D01*
X53698Y68352D01*
X54840Y68125D01*
X55964Y67824D01*
X57066Y67449D01*
X58142Y67004D01*
X59186Y66489D01*
X60194Y65907D01*
X61162Y65260D01*
X62086Y64552D01*
X62961Y63784D01*
X63784Y62961D01*
X64552Y62086D01*
X65260Y61162D01*
X65907Y60194D01*
X66489Y59186D01*
X67004Y58142D01*
X67449Y57066D01*
X67824Y55964D01*
X68125Y54840D01*
X68352Y53698D01*
X68504Y52544D01*
X68580Y51382D01*
X68580Y50218D01*
X849480Y50218D02*
X849404Y49056D01*
X849252Y47902D01*
X849025Y46760D01*
X848724Y45636D01*
X848349Y44534D01*
X847904Y43458D01*
X847389Y42414D01*
X846807Y41406D01*
X846160Y40438D01*
X845452Y39514D01*
X844684Y38639D01*
X843861Y37816D01*
X842986Y37049D01*
X842062Y36340D01*
X841094Y35693D01*
X840086Y35111D01*
X839042Y34596D01*
X837966Y34151D01*
X836864Y33777D01*
X835740Y33475D01*
X834598Y33248D01*
X833444Y33096D01*
X832282Y33020D01*
X831118Y33020D01*
X829956Y33096D01*
X828802Y33248D01*
X827660Y33475D01*
X826536Y33777D01*
X825434Y34151D01*
X824358Y34596D01*
X823314Y35111D01*
X822306Y35693D01*
X821338Y36340D01*
X820414Y37049D01*
X819539Y37816D01*
X818716Y38639D01*
X817949Y39514D01*
X817240Y40438D01*
X816593Y41406D01*
X816011Y42414D01*
X815496Y43458D01*
X815051Y44534D01*
X814677Y45636D01*
X814375Y46760D01*
X814148Y47902D01*
X813996Y49056D01*
X813920Y50218D01*
X813920Y51382D01*
X813996Y52544D01*
X814148Y53698D01*
X814375Y54840D01*
X814677Y55964D01*
X815051Y57066D01*
X815496Y58142D01*
X816011Y59186D01*
X816593Y60194D01*
X817240Y61162D01*
X817949Y62086D01*
X818716Y62961D01*
X819539Y63784D01*
X820414Y64552D01*
X821338Y65260D01*
X822306Y65907D01*
X823314Y66489D01*
X824358Y67004D01*
X825434Y67449D01*
X826536Y67824D01*
X827660Y68125D01*
X828802Y68352D01*
X829956Y68504D01*
X831118Y68580D01*
X832282Y68580D01*
X833444Y68504D01*
X834598Y68352D01*
X835740Y68125D01*
X836864Y67824D01*
X837966Y67449D01*
X839042Y67004D01*
X840086Y66489D01*
X841094Y65907D01*
X842062Y65260D01*
X842986Y64552D01*
X843861Y63784D01*
X844684Y62961D01*
X845452Y62086D01*
X846160Y61162D01*
X846807Y60194D01*
X847389Y59186D01*
X847904Y58142D01*
X848349Y57066D01*
X848724Y55964D01*
X849025Y54840D01*
X849252Y53698D01*
X849404Y52544D01*
X849480Y51382D01*
X849480Y50218D01*
M02*
