G04 EAGLE Gerber RS-274X export*
G75*
%MOMM*%
%FSLAX34Y34*%
%LPD*%
%INSolderpaste Top*%
%IPPOS*%
%AMOC8*
5,1,8,0,0,1.08239X$1,22.5*%
G01*
%ADD10R,1.000000X1.100000*%
%ADD11R,1.600000X1.800000*%
%ADD12R,1.100000X1.000000*%
%ADD13R,1.300000X0.650000*%
%ADD14R,1.500000X0.200000*%
%ADD15R,0.200000X1.500000*%
%ADD16R,0.750000X2.000000*%
%ADD17R,6.500000X12.000000*%
%ADD18R,0.850000X2.500000*%
%ADD19R,1.000000X1.000000*%
%ADD20R,1.000000X0.250000*%
%ADD21R,1.100000X0.700000*%
%ADD22R,2.540000X2.286000*%
%ADD23R,3.810000X0.508000*%


D10*
X319450Y374800D03*
X319450Y391800D03*
X475300Y536800D03*
X475300Y553800D03*
X574200Y405200D03*
X574200Y422200D03*
X485000Y224000D03*
X485000Y241000D03*
X460000Y224000D03*
X460000Y241000D03*
D11*
X494000Y545300D03*
X522000Y545300D03*
D10*
X280000Y388650D03*
X280000Y371650D03*
D12*
X539000Y225000D03*
X556000Y225000D03*
X609200Y462200D03*
X626200Y462200D03*
D13*
X713300Y319600D03*
X689300Y310100D03*
X689300Y329100D03*
X689300Y319600D03*
X713300Y310100D03*
X713300Y329100D03*
D14*
X392900Y451700D03*
X392900Y447700D03*
X392900Y443700D03*
X392900Y439700D03*
X392900Y435700D03*
X392900Y431700D03*
X392900Y427700D03*
X392900Y423700D03*
X392900Y419700D03*
X392900Y415700D03*
X392900Y411700D03*
X392900Y407700D03*
X392900Y403700D03*
X392900Y399700D03*
X392900Y395700D03*
X392900Y391700D03*
X392900Y387700D03*
X392900Y383700D03*
X392900Y379700D03*
X392900Y375700D03*
X392900Y371700D03*
X392900Y367700D03*
X392900Y363700D03*
X392900Y359700D03*
X392900Y355700D03*
D15*
X411900Y336700D03*
X415900Y336700D03*
X419900Y336700D03*
X423900Y336700D03*
X427900Y336700D03*
X431900Y336700D03*
X435900Y336700D03*
X439900Y336700D03*
X443900Y336700D03*
X447900Y336700D03*
X451900Y336700D03*
X455900Y336700D03*
X459900Y336700D03*
X463900Y336700D03*
X467900Y336700D03*
X471900Y336700D03*
X475900Y336700D03*
X479900Y336700D03*
X483900Y336700D03*
X487900Y336700D03*
X491900Y336700D03*
X495900Y336700D03*
X499900Y336700D03*
X503900Y336700D03*
X507900Y336700D03*
D14*
X526900Y355700D03*
X526900Y359700D03*
X526900Y363700D03*
X526900Y367700D03*
X526900Y371700D03*
X526900Y375700D03*
X526900Y379700D03*
X526900Y383700D03*
X526900Y387700D03*
X526900Y391700D03*
X526900Y395700D03*
X526900Y399700D03*
X526900Y403700D03*
X526900Y407700D03*
X526900Y411700D03*
X526900Y415700D03*
X526900Y419700D03*
X526900Y423700D03*
X526900Y427700D03*
X526900Y431700D03*
X526900Y435700D03*
X526900Y439700D03*
X526900Y443700D03*
X526900Y447700D03*
X526900Y451700D03*
D15*
X507900Y470700D03*
X503900Y470700D03*
X499900Y470700D03*
X495900Y470700D03*
X491900Y470700D03*
X487900Y470700D03*
X483900Y470700D03*
X479900Y470700D03*
X475900Y470700D03*
X471900Y470700D03*
X467900Y470700D03*
X463900Y470700D03*
X459900Y470700D03*
X455900Y470700D03*
X451900Y470700D03*
X447900Y470700D03*
X443900Y470700D03*
X439900Y470700D03*
X435900Y470700D03*
X431900Y470700D03*
X427900Y470700D03*
X423900Y470700D03*
X419900Y470700D03*
X415900Y470700D03*
X411900Y470700D03*
D16*
X478950Y582312D03*
X491650Y582312D03*
X504350Y582312D03*
X517050Y582312D03*
X529750Y582312D03*
X542450Y582312D03*
X555150Y582312D03*
X567850Y582312D03*
X580550Y582312D03*
X593250Y582312D03*
X605950Y582312D03*
X618650Y582312D03*
X631350Y582312D03*
X644050Y582312D03*
X644050Y676888D03*
X631350Y676888D03*
X618650Y676888D03*
X605950Y676888D03*
X593250Y676888D03*
X580550Y676888D03*
X567850Y676888D03*
X555150Y676888D03*
X542450Y676888D03*
X529750Y676888D03*
X517050Y676888D03*
X504350Y676888D03*
X491650Y676888D03*
X478950Y676888D03*
X161450Y582312D03*
X174150Y582312D03*
X186850Y582312D03*
X199550Y582312D03*
X212250Y582312D03*
X224950Y582312D03*
X237650Y582312D03*
X250350Y582312D03*
X263050Y582312D03*
X275750Y582312D03*
X288450Y582312D03*
X301150Y582312D03*
X313850Y582312D03*
X326550Y582312D03*
X326550Y676888D03*
X313850Y676888D03*
X301150Y676888D03*
X288450Y676888D03*
X275750Y676888D03*
X263050Y676888D03*
X250350Y676888D03*
X237650Y676888D03*
X224950Y676888D03*
X212250Y676888D03*
X199550Y676888D03*
X186850Y676888D03*
X174150Y676888D03*
X161450Y676888D03*
D17*
X519900Y86600D03*
D18*
X554300Y173200D03*
X537100Y173200D03*
X519900Y173200D03*
X502700Y173200D03*
X485500Y173200D03*
D19*
X308300Y254400D03*
X308300Y237400D03*
X332900Y254400D03*
X332900Y237400D03*
X367500Y254400D03*
X367500Y237400D03*
X392100Y254400D03*
X392100Y237400D03*
D20*
X738900Y549300D03*
X738900Y544300D03*
X738900Y539300D03*
X738900Y534300D03*
X738900Y529300D03*
X738900Y524300D03*
X738900Y519300D03*
X738900Y514300D03*
X738900Y509300D03*
X738900Y504300D03*
X738900Y499300D03*
X738900Y494300D03*
X738900Y489300D03*
X738900Y484300D03*
X738900Y479300D03*
X738900Y474300D03*
X738900Y469300D03*
X738900Y464300D03*
X738900Y459300D03*
X738900Y454300D03*
X738900Y449300D03*
X738900Y444300D03*
X738900Y439300D03*
X738900Y434300D03*
X738900Y429300D03*
X738900Y424300D03*
X738900Y419300D03*
X738900Y414300D03*
X738900Y409300D03*
X738900Y404300D03*
X738900Y399300D03*
X738900Y394300D03*
X738900Y389300D03*
X738900Y384300D03*
X738900Y379300D03*
X738900Y374300D03*
X738900Y369300D03*
X738900Y364300D03*
X738900Y359300D03*
X738900Y354300D03*
D21*
X767400Y578300D03*
X767400Y325300D03*
D22*
X802800Y286700D03*
X747936Y286700D03*
X802800Y185100D03*
X747936Y185100D03*
D23*
X739300Y235900D03*
X739300Y227772D03*
X739300Y219644D03*
X739300Y244028D03*
X739300Y252156D03*
D10*
X523500Y210000D03*
X506500Y210000D03*
D12*
X392100Y292500D03*
X392100Y275500D03*
D10*
X556000Y210000D03*
X539000Y210000D03*
X280900Y408600D03*
X297900Y408600D03*
D12*
X300000Y372200D03*
X300000Y389200D03*
D10*
X626200Y479700D03*
X609200Y479700D03*
D12*
X592500Y511100D03*
X592500Y494100D03*
X308300Y292500D03*
X308300Y275500D03*
X332900Y292500D03*
X332900Y275500D03*
X367500Y292500D03*
X367500Y275500D03*
M02*
