G04 EAGLE Gerber RS-274X export*
G75*
%MOMM*%
%FSLAX34Y34*%
%LPD*%
%INSoldermask Top*%
%IPPOS*%
%AMOC8*
5,1,8,0,0,1.08239X$1,22.5*%
G01*
%ADD10R,1.203200X1.303200*%
%ADD11R,1.803200X2.003200*%
%ADD12R,1.303200X1.203200*%
%ADD13R,1.503200X0.853200*%
%ADD14R,1.703200X0.403200*%
%ADD15R,0.403200X1.703200*%
%ADD16R,0.953200X2.203200*%
%ADD17R,6.703200X12.203200*%
%ADD18R,1.053200X2.703200*%
%ADD19C,1.625600*%
%ADD20R,1.203200X1.203200*%
%ADD21R,1.203200X0.453200*%
%ADD22R,1.303200X0.903200*%
%ADD23C,1.917700*%
%ADD24P,2.075699X8X22.500000*%
%ADD25C,1.403200*%
%ADD26C,1.103200*%
%ADD27R,2.743200X2.489200*%
%ADD28R,4.013200X0.711200*%
%ADD29C,3.759200*%
%ADD30C,1.109600*%


D10*
X319450Y374800D03*
X319450Y391800D03*
X475300Y536800D03*
X475300Y553800D03*
X574200Y405200D03*
X574200Y422200D03*
X485000Y224000D03*
X485000Y241000D03*
X460000Y224000D03*
X460000Y241000D03*
D11*
X494000Y545300D03*
X522000Y545300D03*
D10*
X280000Y388650D03*
X280000Y371650D03*
D12*
X539000Y225000D03*
X556000Y225000D03*
X609200Y462200D03*
X626200Y462200D03*
D13*
X713300Y319600D03*
X689300Y310100D03*
X689300Y329100D03*
X689300Y319600D03*
X713300Y310100D03*
X713300Y329100D03*
D14*
X392900Y451700D03*
X392900Y447700D03*
X392900Y443700D03*
X392900Y439700D03*
X392900Y435700D03*
X392900Y431700D03*
X392900Y427700D03*
X392900Y423700D03*
X392900Y419700D03*
X392900Y415700D03*
X392900Y411700D03*
X392900Y407700D03*
X392900Y403700D03*
X392900Y399700D03*
X392900Y395700D03*
X392900Y391700D03*
X392900Y387700D03*
X392900Y383700D03*
X392900Y379700D03*
X392900Y375700D03*
X392900Y371700D03*
X392900Y367700D03*
X392900Y363700D03*
X392900Y359700D03*
X392900Y355700D03*
D15*
X411900Y336700D03*
X415900Y336700D03*
X419900Y336700D03*
X423900Y336700D03*
X427900Y336700D03*
X431900Y336700D03*
X435900Y336700D03*
X439900Y336700D03*
X443900Y336700D03*
X447900Y336700D03*
X451900Y336700D03*
X455900Y336700D03*
X459900Y336700D03*
X463900Y336700D03*
X467900Y336700D03*
X471900Y336700D03*
X475900Y336700D03*
X479900Y336700D03*
X483900Y336700D03*
X487900Y336700D03*
X491900Y336700D03*
X495900Y336700D03*
X499900Y336700D03*
X503900Y336700D03*
X507900Y336700D03*
D14*
X526900Y355700D03*
X526900Y359700D03*
X526900Y363700D03*
X526900Y367700D03*
X526900Y371700D03*
X526900Y375700D03*
X526900Y379700D03*
X526900Y383700D03*
X526900Y387700D03*
X526900Y391700D03*
X526900Y395700D03*
X526900Y399700D03*
X526900Y403700D03*
X526900Y407700D03*
X526900Y411700D03*
X526900Y415700D03*
X526900Y419700D03*
X526900Y423700D03*
X526900Y427700D03*
X526900Y431700D03*
X526900Y435700D03*
X526900Y439700D03*
X526900Y443700D03*
X526900Y447700D03*
X526900Y451700D03*
D15*
X507900Y470700D03*
X503900Y470700D03*
X499900Y470700D03*
X495900Y470700D03*
X491900Y470700D03*
X487900Y470700D03*
X483900Y470700D03*
X479900Y470700D03*
X475900Y470700D03*
X471900Y470700D03*
X467900Y470700D03*
X463900Y470700D03*
X459900Y470700D03*
X455900Y470700D03*
X451900Y470700D03*
X447900Y470700D03*
X443900Y470700D03*
X439900Y470700D03*
X435900Y470700D03*
X431900Y470700D03*
X427900Y470700D03*
X423900Y470700D03*
X419900Y470700D03*
X415900Y470700D03*
X411900Y470700D03*
D16*
X478950Y582312D03*
X491650Y582312D03*
X504350Y582312D03*
X517050Y582312D03*
X529750Y582312D03*
X542450Y582312D03*
X555150Y582312D03*
X567850Y582312D03*
X580550Y582312D03*
X593250Y582312D03*
X605950Y582312D03*
X618650Y582312D03*
X631350Y582312D03*
X644050Y582312D03*
X644050Y676888D03*
X631350Y676888D03*
X618650Y676888D03*
X605950Y676888D03*
X593250Y676888D03*
X580550Y676888D03*
X567850Y676888D03*
X555150Y676888D03*
X542450Y676888D03*
X529750Y676888D03*
X517050Y676888D03*
X504350Y676888D03*
X491650Y676888D03*
X478950Y676888D03*
X161450Y582312D03*
X174150Y582312D03*
X186850Y582312D03*
X199550Y582312D03*
X212250Y582312D03*
X224950Y582312D03*
X237650Y582312D03*
X250350Y582312D03*
X263050Y582312D03*
X275750Y582312D03*
X288450Y582312D03*
X301150Y582312D03*
X313850Y582312D03*
X326550Y582312D03*
X326550Y676888D03*
X313850Y676888D03*
X301150Y676888D03*
X288450Y676888D03*
X275750Y676888D03*
X263050Y676888D03*
X250350Y676888D03*
X237650Y676888D03*
X224950Y676888D03*
X212250Y676888D03*
X199550Y676888D03*
X186850Y676888D03*
X174150Y676888D03*
X161450Y676888D03*
D17*
X519900Y86600D03*
D18*
X554300Y173200D03*
X537100Y173200D03*
X519900Y173200D03*
X502700Y173200D03*
X485500Y173200D03*
D19*
X230128Y269930D02*
X220070Y259872D01*
X238030Y241912D02*
X248088Y251970D01*
X266049Y234009D02*
X255991Y223951D01*
X273951Y205991D02*
X284009Y216049D01*
X301970Y198088D02*
X291912Y188030D01*
X309872Y170070D02*
X319930Y180128D01*
D20*
X308300Y254400D03*
X308300Y237400D03*
X332900Y254400D03*
X332900Y237400D03*
X367500Y254400D03*
X367500Y237400D03*
X392100Y254400D03*
X392100Y237400D03*
D21*
X738900Y549300D03*
X738900Y544300D03*
X738900Y539300D03*
X738900Y534300D03*
X738900Y529300D03*
X738900Y524300D03*
X738900Y519300D03*
X738900Y514300D03*
X738900Y509300D03*
X738900Y504300D03*
X738900Y499300D03*
X738900Y494300D03*
X738900Y489300D03*
X738900Y484300D03*
X738900Y479300D03*
X738900Y474300D03*
X738900Y469300D03*
X738900Y464300D03*
X738900Y459300D03*
X738900Y454300D03*
X738900Y449300D03*
X738900Y444300D03*
X738900Y439300D03*
X738900Y434300D03*
X738900Y429300D03*
X738900Y424300D03*
X738900Y419300D03*
X738900Y414300D03*
X738900Y409300D03*
X738900Y404300D03*
X738900Y399300D03*
X738900Y394300D03*
X738900Y389300D03*
X738900Y384300D03*
X738900Y379300D03*
X738900Y374300D03*
X738900Y369300D03*
X738900Y364300D03*
X738900Y359300D03*
X738900Y354300D03*
D22*
X767400Y578300D03*
X767400Y325300D03*
D23*
X647700Y45800D03*
D24*
X667700Y45800D03*
D25*
X593700Y110800D03*
D23*
X627700Y45800D03*
X607700Y45800D03*
X607700Y95800D03*
X627700Y95800D03*
X647700Y95800D03*
X667700Y95800D03*
D26*
X773336Y213802D03*
X773336Y257998D03*
D27*
X802800Y286700D03*
X747936Y286700D03*
X802800Y185100D03*
X747936Y185100D03*
D28*
X739300Y235900D03*
X739300Y227772D03*
X739300Y219644D03*
X739300Y244028D03*
X739300Y252156D03*
D10*
X523500Y210000D03*
X506500Y210000D03*
D12*
X392100Y292500D03*
X392100Y275500D03*
D10*
X556000Y210000D03*
X539000Y210000D03*
X280900Y408600D03*
X297900Y408600D03*
D12*
X300000Y372200D03*
X300000Y389200D03*
D10*
X626200Y479700D03*
X609200Y479700D03*
D12*
X592500Y511100D03*
X592500Y494100D03*
X308300Y292500D03*
X308300Y275500D03*
X332900Y292500D03*
X332900Y275500D03*
X367500Y292500D03*
X367500Y275500D03*
D29*
X831700Y761700D03*
X50800Y761700D03*
X50800Y50800D03*
X831700Y50800D03*
D30*
X294636Y264636D03*
X334218Y225053D03*
X471718Y235053D03*
X317500Y406368D03*
X265000Y403868D03*
X534218Y302553D03*
X765000Y623868D03*
X409218Y275053D03*
X520000Y137500D03*
X570000Y473949D03*
X740000Y581449D03*
X665000Y586449D03*
X252136Y272136D03*
X585000Y386368D03*
X572500Y436368D03*
X592500Y456368D03*
X515000Y541449D03*
X302500Y648949D03*
X112500Y618949D03*
X572500Y562250D03*
X389218Y225053D03*
X382500Y648949D03*
X660000Y641449D03*
X448750Y452500D03*
X805000Y673868D03*
X642500Y551449D03*
X592500Y553949D03*
X490000Y400000D03*
X840000Y350000D03*
X850000Y360000D03*
X475000Y400000D03*
X850000Y375000D03*
X460000Y400000D03*
X850000Y390000D03*
X445000Y400000D03*
X822500Y400000D03*
X723125Y373750D03*
X779375Y443125D03*
X770000Y490000D03*
X647500Y479375D03*
X582500Y532500D03*
X717500Y560000D03*
X497500Y520000D03*
X225625Y430000D03*
X117500Y510625D03*
X411875Y698125D03*
X575000Y520000D03*
X707500Y570000D03*
X606875Y520000D03*
X628750Y500625D03*
X557500Y485000D03*
X697500Y580000D03*
X642500Y538750D03*
X670625Y552500D03*
X535000Y465000D03*
X685782Y590000D03*
X460000Y642356D03*
X675000Y650000D03*
X635000Y612500D03*
X631350Y560826D03*
X618650Y552500D03*
X400000Y650000D03*
X605950Y560000D03*
X190000Y434846D03*
X650000Y432500D03*
X717500Y407500D03*
X283282Y325154D03*
X736250Y619375D03*
X391875Y698125D03*
X106250Y499375D03*
X121250Y375625D03*
X487848Y751908D03*
X172232Y703808D03*
X577000Y490000D03*
X800000Y420000D03*
X190000Y335936D03*
X650000Y327500D03*
X440000Y525000D03*
X190000Y350000D03*
X650000Y342500D03*
X425000Y525000D03*
X190000Y364064D03*
X650000Y357500D03*
X410000Y525000D03*
X190000Y378128D03*
X650000Y372500D03*
X392500Y515000D03*
X190000Y392192D03*
X650000Y387500D03*
X390000Y500000D03*
X190000Y406256D03*
X650000Y402500D03*
X375000Y480000D03*
X190000Y420782D03*
X650000Y417500D03*
X350000Y470000D03*
X473784Y751908D03*
X158168Y703808D03*
X427500Y87500D03*
X770000Y530000D03*
X837500Y400000D03*
X548750Y541250D03*
X485000Y448750D03*
X160000Y550000D03*
X480000Y640000D03*
X555716Y459532D03*
X286576Y550000D03*
X606576Y640000D03*
X560000Y257500D03*
X272512Y550000D03*
X592512Y640000D03*
X545000Y257500D03*
X258448Y550000D03*
X578448Y640000D03*
X520000Y525782D03*
X470000Y436918D03*
X244384Y550000D03*
X564384Y640000D03*
X450000Y430000D03*
X297500Y540625D03*
X230320Y550000D03*
X550320Y640000D03*
X416670Y429418D03*
X216256Y550000D03*
X536256Y640000D03*
X187404Y257404D03*
X96875Y488125D03*
X202192Y550000D03*
X522192Y640000D03*
X440000Y210000D03*
X188128Y550000D03*
X508128Y640000D03*
X430000Y200000D03*
X516496Y751908D03*
X200360Y703808D03*
X630000Y260000D03*
X530560Y751908D03*
X214424Y703808D03*
X614821Y259821D03*
X575564Y751908D03*
X256700Y703808D03*
X530000Y252500D03*
X544624Y751908D03*
X228488Y703808D03*
X515000Y252500D03*
X460124Y157376D03*
X407500Y160000D03*
X174064Y550000D03*
X494064Y640000D03*
X465000Y272500D03*
X90000Y330000D03*
X120000Y350000D03*
X502432Y751908D03*
X186296Y703808D03*
X445000Y275000D03*
X589628Y751908D03*
X270764Y703808D03*
X172500Y257500D03*
X561500Y751908D03*
X242552Y703808D03*
X577500Y505000D03*
X790000Y430000D03*
X707500Y375000D03*
X283342Y311090D03*
X665000Y321875D03*
M02*
